{
.appVersion = "1313";
DisplayStrings = (
"six/space whiz/space kids/space eject/space pineapples/space from/space every/space big/space quadrant\012SIX/space WHIZ/space KIDS/space EJECT/space PINEAPPLES/space FROM/space EVERY/space BIG/space QUADRANT/space ENT\012Will/space zan/space bagel/space shops/space equip/space for/space extra/space kava/space juice./space demand?,\012Flaunt/space our/space pizza,/space cowards,/space but/space expect/space quivering/space hitmen/space to/space jack/space it\012\012WILL/space ZAN/space BAGEL/space SHOPS/space EQUIP/space FOR/space EXTRA/space KAVA/space JUICE./space DEMAND?,\012FLAUNT/space OUR/space PIZZA,/space COWARDS,/space BUT/space EXPECT/space QUIVERING/space HITMEN/space TO/space JACK/space IT\012",
ABCDEFGHIJKLMNOPQRSTUVWXYZabcdefghijklmnopqrstuvwxyz
);
classes = (
{
automatic = 1;

glyphs = (
{
glyphname = A;
lastChange = "2020-04-16 20:49:18 +0000";
layers = (
{
anchors = (
{
name = bottom;
position = "{76, 0}";
},
{
name = ogonek;
position = "{121, 0}";
},
{
name = top;
position = "{76, 1350}";
}
);
layerId = "A1A0948C-E637-4A65-8CCC-05505AD98C44";
paths = (
{
closed = 1;
nodes = (
"43 0 LINE",
"54 437 LINE",
"100 437 LINE",
"111 0 LINE",
"133 0 LINE",
"101 1350 LINE",
"53 1350 LINE",
"21 0 LINE"
);
},
{
closed = 1;
nodes = (
"73 1328 LINE",
"81 1328 LINE",
"100 459 LINE",
"54 459 LINE"
);
}
);
width = 161;
},
{
anchors = (
{
name = bottom;
position = "{379, 0}";
},
{
name = ogonek;
position = "{472, 0}";
},
{
name = top;
position = "{379, 1350}";
}
);
layerId = "BA0CA162-2A9B-49EE-921D-3B4346C7D39F";
paths = (
{
closed = 1;
nodes = (
"359 0 LINE",
"362 314 LINE",
"396 314 LINE",
"399 0 LINE",
"749 0 LINE",
"651 1350 LINE",
"103 1350 LINE",
"9 0 LINE"
);
},
{
closed = 1;
nodes = (
"371 1100 LINE",
"387 1100 LINE",
"394 568 LINE",
"364 568 LINE"
);
}
);
width = 758;
},
{
anchors = (
{
name = bottom;
position = "{1192, 0}";
},
{
name = ogonek;
position = "{1825, 0}";
},
{
name = top;
position = "{1192, 1350}";
}
);
layerId = "C75D3228-2D13-4E9D-9829-45195F4951D0";
paths = (
{
closed = 1;
nodes = (
"688 0 LINE",
"823 264 LINE",
"1570 264 LINE",
"1704 0 LINE",
"2294 0 LINE",
"1606 1350 LINE",
"788 1350 LINE",
"98 0 LINE"
);
},
{
closed = 1;
nodes = (
"1197 1072 LINE",
"1199 1072 LINE",
"1429 606 LINE",
"966 606 LINE"
);
}
);
width = 2388;
},
{
anchors = (
{
name = bottom;
position = "{1065, 0}";
},
{
name = ogonek;
position = "{1993, 0}";
},
{
name = top;
position = "{1065, 1350}";
}
);
layerId = "71977205-6510-4B11-BB00-17BACA883C8F";
paths = (
{
closed = 1;
nodes = (
"149 0 LINE",
"447 437 LINE",
"1685 437 LINE",
"1982 0 LINE",
"2010 0 LINE",
"1086 1357 LINE",
"1047 1357 LINE",
"120 0 LINE"
);
},
{
closed = 1;
nodes = (
"1066 1342 LINE",
"1067 1342 LINE",
"1669 459 LINE",
"463 459 LINE"
);
}
);
width = 2130;
},
{
anchors = (
{
name = bottom;
position = "{948, 0}";
},
{
name = ogonek;
position = "{1870, 0}";
},
{
name = top;
position = "{1185, 1350}";
}
);
layerId = "5997A0D0-E78E-41EC-9011-DECBEAD8517D";
paths = (
{
closed = 1;
nodes = (
"30 0 LINE",
"405 437 LINE",
"1643 437 LINE",
"1863 0 LINE",
"1891 0 LINE",
"1207 1357 LINE",
"1168 1357 LINE",
"1 0 LINE"
);
},
{
closed = 1;
nodes = (
"1186 1342 LINE",
"1187 1342 LINE",
"1632 459 LINE",
"426 459 LINE"
);
}
);
width = 2130;
},
{
anchors = (
{
name = bottom;
position = "{279, 0}";
},
{
name = ogonek;
position = "{375, 0}";
},
{
name = top;
position = "{518, 1350}";
}
);
layerId = "55C4185A-9C39-4468-B19C-DE0A3E571700";
paths = (
{
closed = 1;
nodes = (
"257 0 LINE",
"295 198 LINE",
"331 198 LINE",
"297 0 LINE",
"647 0 LINE",
"787 1350 LINE",
"239 1350 LINE",
"-93 0 LINE"
);
},
{
closed = 1;
nodes = (
"468 1100 LINE",
"484 1100 LINE",
"374 452 LINE",
"344 452 LINE"
);
}
);
width = 758;
},
{
anchors = (
{
name = bottom;
position = "{-24, 0}";
},
{
name = ogonek;
position = "{22, 0}";
},
{
name = top;
position = "{215, 1350}";
}
);
layerId = "4F53612F-C4F8-4368-83AD-8913BEEF8F1D";
paths = (
{
closed = 1;
nodes = (
"-56 0 LINE",
"32 437 LINE",
"78 437 LINE",
"12 0 LINE",
"34 0 LINE",
"240 1350 LINE",
"192 1350 LINE",
"-78 0 LINE"
);
},
{
closed = 1;
nodes = (
"208 1328 LINE",
"216 1328 LINE",
"82 459 LINE",
"36 459 LINE"
);
}
);
width = 161;
},
{
anchors = (
{
name = bottom;
position = "{1070, 0}";
},
{
name = ogonek;
position = "{1731, 0}";
},
{
name = top;
position = "{1345, 1350}";
}
);
layerId = "E5A4176B-9C10-4B01-BBC9-D7999ECBFAF8";
paths = (
{
closed = 1;
nodes = (
"589 0 LINE",
"763 264 LINE",
"1529 264 LINE",
"1605 0 LINE",
"2195 0 LINE",
"1745 1350 LINE",
"927 1350 LINE",
"-1 0 LINE"
);
},
{
closed = 1;
nodes = (
"1294 1072 LINE",
"1296 1072 LINE",
"1430 606 LINE",
"988 606 LINE"
);
}
);
width = 2388;
}
);
leftKerningGroup = A;
note = A;
rightKerningGroup = A;
unicode = 0041;
},
{
glyphname = AE;
lastChange = "2020-04-16 23:48:42 +0000";
layers = (
{
anchors = (
{
name = bottom;
position = "{110, 0}";
},
{
name = top;
position = "{110, 1350}";
}
);
components = (
{
alignment = -1;
name = E;
transform = "{1, 0, 0, 1, 69, 0}";
}
);
layerId = "A1A0948C-E637-4A65-8CCC-05505AD98C44";
paths = (
{
closed = 1;
nodes = (
"43 0 LINE",
"102 1334 LINE",
"104 1350 LINE",
"86 1350 LINE",
"21 0 LINE"
);
},
{
closed = 1;
nodes = (
"109 322 LINE",
"109 344 LINE",
"41 344 LINE",
"43 322 LINE"
);
}
);
width = 211;
},
{
anchors = (
{
name = bottom;
position = "{467, 0}";
},
{
name = top;
position = "{467, 1350}";
}
);
components = (
{
alignment = -1;
name = E;
transform = "{1, 0, 0, 1, 435, 0}";
}
);
layerId = "BA0CA162-2A9B-49EE-921D-3B4346C7D39F";
paths = (
{
closed = 1;
nodes = (
"377 0 LINE",
"451 1160 LINE",
"451 1350 LINE",
"163 1350 LINE",
"9 0 LINE"
);
},
{
closed = 1;
nodes = (
"569 204 LINE",
"569 448 LINE",
"293 448 LINE",
"239 204 LINE"
);
}
);
width = 937;
},
{
anchors = (
{
name = bottom;
position = "{1631, 0}";
},
{
name = top;
position = "{1631, 1350}";
}
);
components = (
{
alignment = -1;
name = E;
transform = "{1, 0, 0, 1, 1440, 0}";
}
);
layerId = "C75D3228-2D13-4E9D-9829-45195F4951D0";
paths = (
{
closed = 1;
nodes = (
"688 0 LINE",
"1764 1218 LINE",
"1764 1350 LINE",
"1270 1350 LINE",
"98 0 LINE"
);
},
{
closed = 1;
nodes = (
"1630 250 LINE",
"1630 604 LINE",
"758 604 LINE",
"638 250 LINE"
);
}
);
width = 3364;
},
{
anchors = (
{
name = bottom;
position = "{1625, 0}";
},
{
name = top;
position = "{1625, 1350}";
}
);
components = (
{
alignment = -1;
name = E;
transform = "{1, 0, 0, 1, 1346, 0}";
}
);
layerId = "71977205-6510-4B11-BB00-17BACA883C8F";
paths = (
{
closed = 1;
nodes = (
"149 0 LINE",
"1513 1339 LINE",
"1513 1350 LINE",
"1490 1350 LINE",
"120 0 LINE"
);
},
{
closed = 1;
nodes = (
"1508 437 LINE",
"1508 459 LINE",
"598 459 LINE",
"568 437 LINE"
);
}
);
width = 3188;
},
{
anchors = (
{
name = bottom;
position = "{1326, 0}";
},
{
name = top;
position = "{1565, 1350}";
}
);
components = (
{
alignment = -1;
name = E;
transform = "{1, 0, 0, 1, 1175, 0}";
}
);
layerId = "5997A0D0-E78E-41EC-9011-DECBEAD8517D";
paths = (
{
closed = 1;
nodes = (
"33 0 LINE",
"1455 1338 LINE",
"1457 1350 LINE",
"1431 1350 LINE",
"1 0 LINE"
);
},
{
closed = 1;
nodes = (
"1297 422 LINE",
"1301 444 LINE",
"499 444 LINE",
"461 422 LINE"
);
}
);
width = 3017;
},
{
anchors = (
{
name = bottom;
position = "{379, 0}";
},
{
name = top;
position = "{618, 1350}";
}
);
components = (
{
alignment = -1;
name = E;
transform = "{1, 0, 0, 1, 438, 0}";
}
);
layerId = "55C4185A-9C39-4468-B19C-DE0A3E571700";
paths = (
{
closed = 1;
nodes = (
"275 0 LINE",
"554 1160 LINE",
"591 1350 LINE",
"299 1350 LINE",
"-93 0 LINE"
);
},
{
closed = 1;
nodes = (
"503 204 LINE",
"546 448 LINE",
"270 448 LINE",
"173 204 LINE"
);
}
);
width = 940;
},
{
anchors = (
{
name = bottom;
position = "{9, 0}";
},
{
name = top;
position = "{248, 1350}";
}
);
components = (
{
alignment = -1;
name = E;
transform = "{1, 0, 0, 1, 63, 0}";
}
);
layerId = "4F53612F-C4F8-4368-83AD-8913BEEF8F1D";
paths = (
{
closed = 1;
nodes = (
"-56 0 LINE",
"235 1334 LINE",
"238 1350 LINE",
"220 1350 LINE",
"-78 0 LINE"
);
},
{
closed = 1;
nodes = (
"67 322 LINE",
"71 344 LINE",
"3 344 LINE",
"1 322 LINE"
);
}
);
width = 205;
},
{
anchors = (
{
name = bottom;
position = "{1576, 0}";
},
{
name = top;
position = "{1815, 1350}";
}
);
components = (
{
alignment = -1;
name = E;
transform = "{1, 0, 0, 1, 1480, 0}";
}
);
layerId = "E5A4176B-9C10-4B01-BBC9-D7999ECBFAF8";
paths = (
{
closed = 1;
nodes = (
"589 0 LINE",
"1790 1218 LINE",
"1813 1350 LINE",
"1319 1350 LINE",
"-1 0 LINE"
);
},
{
closed = 1;
nodes = (
"1575 250 LINE",
"1637 604 LINE",
"735 604 LINE",
"553 250 LINE"
);
}
);
width = 3404;
}
);
leftKerningGroup = A;
leftMetricsKey = A;
rightKerningGroup = E;
rightMetricsKey = E;
unicode = 00C6;
},
{
glyphname = B;
lastChange = "2020-04-15 20:28:29 +0000";
layers = (
{
anchors = (
{
name = bottom;
position = "{84, 0}";
},
{
name = top;
position = "{84, 1350}";
}
);
layerId = "A1A0948C-E637-4A65-8CCC-05505AD98C44";
paths = (
{
closed = 1;
nodes = (
"67 0 LINE SMOOTH",
"130 0 OFFCURVE",
"130 236 OFFCURVE",
"130 396 QCURVE SMOOTH",
"130 530 OFFCURVE",
"130 756 OFFCURVE",
"90 762 QCURVE",
"130 768 OFFCURVE",
"130 952 OFFCURVE",
"130 1068 QCURVE SMOOTH",
"130 1168 OFFCURVE",
"130 1350 OFFCURVE",
"65 1350 QCURVE SMOOTH",
"28 1350 LINE",
"28 0 LINE"
);
},
{
closed = 1;
nodes = (
"50 750 LINE",
"68 750 LINE SMOOTH",
"108 750 OFFCURVE",
"108 530 OFFCURVE",
"108 396 QCURVE SMOOTH",
"108 236 OFFCURVE",
"108 22 OFFCURVE",
"67 22 QCURVE SMOOTH",
"50 22 LINE"
);
},
{
closed = 1;
nodes = (
"50 1328 LINE",
"65 1328 LINE SMOOTH",
"108 1328 OFFCURVE",
"108 1170 OFFCURVE",
"108 1070 QCURVE SMOOTH",
"108 954 OFFCURVE",
"108 772 OFFCURVE",
"68 772 QCURVE SMOOTH",
"50 772 LINE"
);
}
);
width = 168;
},
{
anchors = (
{
name = bottom;
position = "{371, 0}";
},
{
name = top;
position = "{371, 1350}";
}
);
layerId = "BA0CA162-2A9B-49EE-921D-3B4346C7D39F";
paths = (
{
closed = 1;
nodes = (
"496 0 LINE SMOOTH",
"730 0 OFFCURVE",
"730 266 OFFCURVE",
"730 408 QCURVE SMOOTH",
"730 508 OFFCURVE",
"730 738 OFFCURVE",
"588 746 QCURVE",
"730 748 OFFCURVE",
"730 956 OFFCURVE",
"730 1024 QCURVE SMOOTH",
"730 1086 OFFCURVE",
"730 1350 OFFCURVE",
"520 1350 QCURVE SMOOTH",
"12 1350 LINE",
"12 0 LINE"
);
},
{
closed = 1;
nodes = (
"360 617 LINE",
"368 617 LINE SMOOTH",
"384 617 OFFCURVE",
"384 524 OFFCURVE",
"384 424 QCURVE SMOOTH",
"384 324 OFFCURVE",
"384 254 OFFCURVE",
"370 254 QCURVE SMOOTH",
"360 254 LINE"
);
},
{
closed = 1;
nodes = (
"360 1100 LINE",
"368 1100 LINE SMOOTH",
"384 1100 OFFCURVE",
"384 1052 OFFCURVE",
"384 992 QCURVE SMOOTH",
"384 932 OFFCURVE",
"384 869 OFFCURVE",
"368 869 QCURVE",
"360 869 LINE"
);
}
);
width = 742;
},
{
anchors = (
{
name = bottom;
position = "{1106, 0}";
},
{
name = top;
position = "{1106, 1350}";
}
);
layerId = "C75D3228-2D13-4E9D-9829-45195F4951D0";
paths = (
{
closed = 1;
nodes = (
"1414 0 LINE SMOOTH",
"1777 0 OFFCURVE",
"2032 191 OFFCURVE",
"2032 369 QCURVE SMOOTH",
"2032 543 OFFCURVE",
"1756 684 OFFCURVE",
"1630 690 QCURVE",
"1756 696 OFFCURVE",
"1960 858 OFFCURVE",
"1960 1014 QCURVE SMOOTH",
"1960 1180 OFFCURVE",
"1695 1350 OFFCURVE",
"1328 1350 QCURVE SMOOTH",
"140 1350 LINE",
"140 0 LINE"
);
},
{
closed = 1;
nodes = (
"706 532 LINE",
"1310 532 LINE SMOOTH",
"1414 532 OFFCURVE",
"1466 494 OFFCURVE",
"1466 448 QCURVE SMOOTH",
"1466 402 OFFCURVE",
"1414 362 OFFCURVE",
"1310 362 QCURVE SMOOTH",
"706 362 LINE"
);
},
{
closed = 1;
nodes = (
"706 988 LINE",
"1250 988 LINE SMOOTH",
"1334 988 OFFCURVE",
"1386 950 OFFCURVE",
"1386 910 QCURVE SMOOTH",
"1386 870 OFFCURVE",
"1334 826 OFFCURVE",
"1250 826 QCURVE SMOOTH",
"706 826 LINE"
);
}
);
width = 2192;
},
{
anchors = (
{
name = bottom;
position = "{1009, 0}";
},
{
name = top;
position = "{1009, 1350}";
}
);
layerId = "71977205-6510-4B11-BB00-17BACA883C8F";
paths = (
{
closed = 1;
nodes = (
"1344 0 LINE SMOOTH",
"1517 0 OFFCURVE",
"1736 183 OFFCURVE",
"1736 373 QCURVE SMOOTH",
"1736 557 OFFCURVE",
"1492 710 OFFCURVE",
"1353 716 QCURVE",
"1471 722 OFFCURVE",
"1697 889 OFFCURVE",
"1697 1047 QCURVE SMOOTH",
"1697 1204 OFFCURVE",
"1494 1350 OFFCURVE",
"1289 1350 QCURVE SMOOTH",
"150 1350 LINE",
"150 0 LINE"
);
},
{
closed = 1;
nodes = (
"172 704 LINE",
"1198 704 LINE SMOOTH",
"1453 704 OFFCURVE",
"1712 551 OFFCURVE",
"1712 373 QCURVE SMOOTH",
"1712 193 OFFCURVE",
"1507 22 OFFCURVE",
"1335 22 QCURVE SMOOTH",
"172 22 LINE"
);
},
{
closed = 1;
nodes = (
"172 1328 LINE",
"1280 1328 LINE SMOOTH",
"1486 1328 OFFCURVE",
"1673 1192 OFFCURVE",
"1673 1047 QCURVE SMOOTH",
"1673 895 OFFCURVE",
"1437 726 OFFCURVE",
"1198 726 QCURVE SMOOTH",
"172 726 LINE"
);
}
);
width = 1981;
},
{
anchors = (
{
name = bottom;
position = "{789, 0}";
},
{
name = top;
position = "{1028, 1350}";
}
);
layerId = "5997A0D0-E78E-41EC-9011-DECBEAD8517D";
paths = (
{
closed = 1;
nodes = (
"1225 0 LINE SMOOTH",
"1398 0 OFFCURVE",
"1650 180 OFFCURVE",
"1683 373 QCURVE SMOOTH",
"1714 555 OFFCURVE",
"1498 710 OFFCURVE",
"1360 716 QCURVE",
"1479 722 OFFCURVE",
"1735 886 OFFCURVE",
"1763 1047 QCURVE SMOOTH",
"1790 1200 OFFCURVE",
"1613 1350 OFFCURVE",
"1408 1350 QCURVE SMOOTH",
"269 1350 LINE",
"31 0 LINE"
);
},
{
closed = 1;
nodes = (
"177 704 LINE",
"1203 704 LINE SMOOTH",
"1458 704 OFFCURVE",
"1690 551 OFFCURVE",
"1659 373 QCURVE SMOOTH",
"1627 193 OFFCURVE",
"1392 22 OFFCURVE",
"1220 22 QCURVE SMOOTH",
"57 22 LINE"
);
},
{
closed = 1;
nodes = (
"287 1328 LINE",
"1395 1328 LINE SMOOTH",
"1601 1328 OFFCURVE",
"1764 1192 OFFCURVE",
"1739 1047 QCURVE SMOOTH",
"1712 895 OFFCURVE",
"1446 726 OFFCURVE",
"1207 726 QCURVE SMOOTH",
"181 726 LINE"
);
}
);
width = 1971;
},
{
anchors = (
{
name = bottom;
position = "{275, 0}";
},
{
name = top;
position = "{514, 1350}";
}
);
layerId = "55C4185A-9C39-4468-B19C-DE0A3E571700";
paths = (
{
closed = 1;
nodes = (
"394 0 LINE SMOOTH",
"628 0 OFFCURVE",
"675 266 OFFCURVE",
"700 408 QCURVE SMOOTH",
"718 508 OFFCURVE",
"758 738 OFFCURVE",
"618 746 QCURVE",
"760 748 OFFCURVE",
"797 956 OFFCURVE",
"809 1024 QCURVE SMOOTH",
"819 1086 OFFCURVE",
"866 1350 OFFCURVE",
"656 1350 QCURVE SMOOTH",
"148 1350 LINE",
"-90 0 LINE"
);
},
{
closed = 1;
nodes = (
"367 617 LINE",
"375 617 LINE SMOOTH",
"391 617 OFFCURVE",
"374 524 OFFCURVE",
"357 424 QCURVE SMOOTH",
"339 324 OFFCURVE",
"327 254 OFFCURVE",
"313 254 QCURVE SMOOTH",
"303 254 LINE"
);
},
{
closed = 1;
nodes = (
"452 1100 LINE",
"460 1100 LINE SMOOTH",
"476 1100 OFFCURVE",
"467 1052 OFFCURVE",
"457 992 QCURVE SMOOTH",
"446 932 OFFCURVE",
"435 869 OFFCURVE",
"419 869 QCURVE",
"411 869 LINE"
);
}
);
width = 742;
},
{
anchors = (
{
name = bottom;
position = "{-12, 0}";
},
{
name = top;
position = "{227, 1350}";
}
);
layerId = "4F53612F-C4F8-4368-83AD-8913BEEF8F1D";
paths = (
{
closed = 1;
nodes = (
"-29 0 LINE SMOOTH",
"34 0 OFFCURVE",
"76 236 OFFCURVE",
"104 396 QCURVE SMOOTH",
"127 530 OFFCURVE",
"167 756 OFFCURVE",
"128 762 QCURVE",
"169 768 OFFCURVE",
"202 952 OFFCURVE",
"222 1068 QCURVE SMOOTH",
"240 1168 OFFCURVE",
"272 1350 OFFCURVE",
"207 1350 QCURVE SMOOTH",
"170 1350 LINE",
"-68 0 LINE"
);
},
{
closed = 1;
nodes = (
"86 750 LINE",
"104 750 LINE SMOOTH",
"144 750 OFFCURVE",
"111 563 OFFCURVE",
"82 396 QCURVE SMOOTH",
"54 236 OFFCURVE",
"16 22 OFFCURVE",
"-25 22 QCURVE SMOOTH",
"-42 22 LINE"
);
},
{
closed = 1;
nodes = (
"188 1328 LINE",
"203 1328 LINE SMOOTH",
"246 1328 OFFCURVE",
"223 1193 OFFCURVE",
"201 1070 QCURVE SMOOTH",
"183 967 OFFCURVE",
"148 772 OFFCURVE",
"108 772 QCURVE SMOOTH",
"90 772 LINE"
);
}
);
width = 171;
},
{
anchors = (
{
name = bottom;
position = "{1003, 0}";
},
{
name = top;
position = "{1242, 1350}";
}
);
layerId = "E5A4176B-9C10-4B01-BBC9-D7999ECBFAF8";
paths = (
{
closed = 1;
nodes = (
"1316 0 LINE SMOOTH",
"1679 0 OFFCURVE",
"2005 202 OFFCURVE",
"2005 416 QCURVE SMOOTH",
"2005 569 OFFCURVE",
"1779 684 OFFCURVE",
"1654 690 QCURVE",
"1781 696 OFFCURVE",
"2043 877 OFFCURVE",
"2043 1074 QCURVE SMOOTH",
"2043 1205 OFFCURVE",
"1825 1350 OFFCURVE",
"1468 1350 QCURVE SMOOTH",
"280 1350 LINE",
"42 0 LINE"
);
},
{
closed = 1;
nodes = (
"702 532 LINE",
"1306 532 LINE SMOOTH",
"1410 532 OFFCURVE",
"1455 494 OFFCURVE",
"1447 448 QCURVE SMOOTH",
"1439 402 OFFCURVE",
"1380 362 OFFCURVE",
"1276 362 QCURVE SMOOTH",
"672 362 LINE"
);
},
{
closed = 1;
nodes = (
"782 988 LINE",
"1326 988 LINE SMOOTH",
"1410 988 OFFCURVE",
"1455 950 OFFCURVE",
"1448 910 QCURVE SMOOTH",
"1441 870 OFFCURVE",
"1382 826 OFFCURVE",
"1298 826 QCURVE SMOOTH",
"754 826 LINE"
);
}
);
width = 2184;
}
);
leftKerningGroup = H;
leftMetricsKey = H;
note = B;
rightKerningGroup = B;
unicode = 0042;
},
{
glyphname = C;
layers = (
{
anchors = (
{
name = bottom;
position = "{88, 0}";
},
{
name = top;
position = "{88, 1350}";
}
);
layerId = "A1A0948C-E637-4A65-8CCC-05505AD98C44";
paths = (
{
closed = 1;
nodes = (
"146 -8 OFFCURVE",
"146 206 OFFCURVE",
"146 556 QCURVE",
"124 556 LINE",
"124 214 OFFCURVE",
"124 14 OFFCURVE",
"88 14 QCURVE SMOOTH",
"52 14 OFFCURVE",
"52 212 OFFCURVE",
"52 678 QCURVE SMOOTH",
"52 1144 OFFCURVE",
"50 1334 OFFCURVE",
"88 1334 QCURVE SMOOTH",
"124 1334 OFFCURVE",
"124 1144 OFFCURVE",
"124 794 QCURVE",
"146 794 LINE",
"146 1150 OFFCURVE",
"146 1356 OFFCURVE",
"88 1356 QCURVE SMOOTH",
"28 1356 OFFCURVE",
"30 1150 OFFCURVE",
"30 678 QCURVE SMOOTH",
"30 206 OFFCURVE",
"30 -8 OFFCURVE",
"88 -8 QCURVE SMOOTH"
);
}
);
width = 184;
},
{
anchors = (
{
name = bottom;
position = "{370, 0}";
},
{
name = top;
position = "{370, 1350}";
}
);
layerId = "BA0CA162-2A9B-49EE-921D-3B4346C7D39F";
paths = (
{
closed = 1;
nodes = (
"728 -8 OFFCURVE",
"728 380 OFFCURVE",
"728 572 QCURVE",
"382 572 LINE",
"382 290 OFFCURVE",
"382 246 OFFCURVE",
"370 246 QCURVE SMOOTH",
"358 246 OFFCURVE",
"358 290 OFFCURVE",
"358 680 QCURVE SMOOTH",
"358 1064 OFFCURVE",
"358 1108 OFFCURVE",
"370 1108 QCURVE SMOOTH",
"382 1108 OFFCURVE",
"382 1064 OFFCURVE",
"382 774 QCURVE",
"728 774 LINE",
"728 980 OFFCURVE",
"728 1362 OFFCURVE",
"366 1362 QCURVE SMOOTH",
"12 1362 OFFCURVE",
"12 980 OFFCURVE",
"12 680 QCURVE SMOOTH",
"12 380 OFFCURVE",
"12 -8 OFFCURVE",
"368 -8 QCURVE SMOOTH"
);
}
);
width = 740;
},
{
anchors = (
{
name = bottom;
position = "{1068, 0}";
},
{
name = top;
position = "{1068, 1350}";
}
);
layerId = "C75D3228-2D13-4E9D-9829-45195F4951D0";
paths = (
{
closed = 1;
nodes = (
"1550 -8 OFFCURVE",
"2056 322 OFFCURVE",
"2056 546 QCURVE",
"1478 546 LINE",
"1478 486 OFFCURVE",
"1254 354 OFFCURVE",
"1072 354 QCURVE SMOOTH",
"884 354 OFFCURVE",
"628 518 OFFCURVE",
"628 678 QCURVE SMOOTH",
"628 838 OFFCURVE",
"884 1000 OFFCURVE",
"1072 1000 QCURVE SMOOTH",
"1256 1000 OFFCURVE",
"1478 874 OFFCURVE",
"1478 814 QCURVE",
"2056 814 LINE",
"2056 1038 OFFCURVE",
"1550 1362 OFFCURVE",
"1082 1362 QCURVE SMOOTH",
"614 1362 OFFCURVE",
"50 1012 OFFCURVE",
"50 678 QCURVE SMOOTH",
"50 344 OFFCURVE",
"614 -8 OFFCURVE",
"1082 -8 QCURVE SMOOTH"
);
}
);
width = 2167;
},
{
anchors = (
{
name = bottom;
position = "{941, 0}";
},
{
name = top;
position = "{941, 1350}";
}
);
layerId = "71977205-6510-4B11-BB00-17BACA883C8F";
paths = (
{
closed = 1;
nodes = (
"1336 -10 OFFCURVE",
"1757 324 OFFCURVE",
"1757 482 QCURVE",
"1734 482 LINE",
"1734 336 OFFCURVE",
"1332 12 OFFCURVE",
"958 12 QCURVE SMOOTH",
"578 12 OFFCURVE",
"137 382 OFFCURVE",
"137 676 QCURVE SMOOTH",
"137 969 OFFCURVE",
"577 1341 OFFCURVE",
"958 1341 QCURVE SMOOTH",
"1332 1341 OFFCURVE",
"1734 1022 OFFCURVE",
"1734 877 QCURVE",
"1757 877 LINE",
"1757 1035 OFFCURVE",
"1335 1363 OFFCURVE",
"958 1363 QCURVE SMOOTH",
"569 1363 OFFCURVE",
"113 982 OFFCURVE",
"113 676 QCURVE SMOOTH",
"113 367 OFFCURVE",
"569 -10 OFFCURVE",
"958 -10 QCURVE SMOOTH"
);
}
);
width = 2016;
},
{
anchors = (
{
name = bottom;
position = "{733, 0}";
},
{
name = top;
position = "{972, 1350}";
}
);
layerId = "5997A0D0-E78E-41EC-9011-DECBEAD8517D";
paths = (
{
closed = 1;
nodes = (
"1224 -10 OFFCURVE",
"1696 304 OFFCURVE",
"1724 482 QCURVE",
"1701 482 LINE",
"1675 316 OFFCURVE",
"1216 12 OFFCURVE",
"842 12 QCURVE SMOOTH",
"460 12 OFFCURVE",
"99 392 OFFCURVE",
"138 676 QCURVE SMOOTH",
"181 991 OFFCURVE",
"695 1341 OFFCURVE",
"1076 1341 QCURVE SMOOTH",
"1450 1341 OFFCURVE",
"1785 1061 OFFCURVE",
"1770 877 QCURVE",
"1793 877 LINE",
"1810 1074 OFFCURVE",
"1452 1363 OFFCURVE",
"1075 1363 QCURVE SMOOTH",
"686 1363 OFFCURVE",
"159 1003 OFFCURVE",
"114 676 QCURVE SMOOTH",
"73 377 OFFCURVE",
"457 -10 OFFCURVE",
"846 -10 QCURVE SMOOTH"
);
}
);
width = 2016;
},
{
anchors = (
{
name = bottom;
position = "{270, 0}";
},
{
name = top;
position = "{509, 1350}";
}
);
layerId = "55C4185A-9C39-4468-B19C-DE0A3E571700";
paths = (
{
closed = 1;
nodes = (
"626 -8 OFFCURVE",
"695 380 OFFCURVE",
"728 572 QCURVE",
"382 572 LINE",
"333 290 OFFCURVE",
"325 246 OFFCURVE",
"313 246 QCURVE SMOOTH",
"301 246 OFFCURVE",
"309 290 OFFCURVE",
"378 680 QCURVE SMOOTH",
"445 1064 OFFCURVE",
"453 1108 OFFCURVE",
"465 1108 QCURVE SMOOTH",
"477 1108 OFFCURVE",
"469 1064 OFFCURVE",
"418 774 QCURVE",
"764 774 LINE",
"800 980 OFFCURVE",
"868 1362 OFFCURVE",
"506 1362 QCURVE SMOOTH",
"152 1362 OFFCURVE",
"84 980 OFFCURVE",
"32 680 QCURVE SMOOTH",
"-21 380 OFFCURVE",
"-90 -8 OFFCURVE",
"266 -8 QCURVE SMOOTH"
);
}
);
width = 740;
},
{
anchors = (
{
name = bottom;
position = "{-6, 0}";
},
{
name = top;
position = "{233, 1350}";
}
);
layerId = "4F53612F-C4F8-4368-83AD-8913BEEF8F1D";
paths = (
{
closed = 1;
nodes = (
"49 -8 OFFCURVE",
"86 206 OFFCURVE",
"148 556 QCURVE",
"126 556 LINE",
"66 214 OFFCURVE",
"31 14 OFFCURVE",
"-5 14 QCURVE SMOOTH",
"-41 14 OFFCURVE",
"-6 212 OFFCURVE",
"76 678 QCURVE SMOOTH",
"158 1144 OFFCURVE",
"189 1334 OFFCURVE",
"227 1334 QCURVE SMOOTH",
"263 1334 OFFCURVE",
"230 1144 OFFCURVE",
"168 794 QCURVE",
"190 794 LINE",
"253 1150 OFFCURVE",
"289 1356 OFFCURVE",
"229 1356 QCURVE SMOOTH",
"171 1356 OFFCURVE",
"137 1150 OFFCURVE",
"54 678 QCURVE SMOOTH",
"-30 206 OFFCURVE",
"-67 -8 OFFCURVE",
"-8 -8 QCURVE SMOOTH"
);
}
);
width = 184;
},
{
anchors = (
{
name = bottom;
position = "{964, 0}";
},
{
name = top;
position = "{1203, 1350}";
}
);
layerId = "E5A4176B-9C10-4B01-BBC9-D7999ECBFAF8";
paths = (
{
closed = 1;
nodes = (
"1458 -8 OFFCURVE",
"2012 322 OFFCURVE",
"2052 546 QCURVE",
"1474 546 LINE",
"1463 486 OFFCURVE",
"1216 354 OFFCURVE",
"1034 354 QCURVE SMOOTH",
"846 354 OFFCURVE",
"630 517 OFFCURVE",
"647 678 QCURVE SMOOTH",
"665 848 OFFCURVE",
"960 1000 OFFCURVE",
"1148 1000 QCURVE SMOOTH",
"1332 1000 OFFCURVE",
"1528 874 OFFCURVE",
"1521 814 QCURVE",
"2099 814 LINE",
"2129 1038 OFFCURVE",
"1680 1362 OFFCURVE",
"1212 1362 QCURVE SMOOTH",
"744 1362 OFFCURVE",
"118 1014 OFFCURVE",
"69 678 QCURVE SMOOTH",
"20 344 OFFCURVE",
"522 -8 OFFCURVE",
"990 -8 QCURVE SMOOTH"
);
}
);
width = 2167;
}
);
leftKerningGroup = O;
note = C;
rightKerningGroup = O;
unicode = 0043;
},
{
glyphname = D;
layers = (
{
anchors = (
{
name = bottom;
position = "{75, 0}";
},
{
name = center;
position = "{85, 675}";
},
{
name = top;
position = "{75, 1350}";
}
);
layerId = "A1A0948C-E637-4A65-8CCC-05505AD98C44";
paths = (
{
closed = 1;
nodes = (
"70 0 LINE SMOOTH",
"132 0 OFFCURVE",
"132 242 OFFCURVE",
"132 674 QCURVE SMOOTH",
"132 1106 OFFCURVE",
"132 1350 OFFCURVE",
"70 1350 QCURVE SMOOTH",
"28 1350 LINE",
"28 0 LINE"
);
},
{
closed = 1;
nodes = (
"50 1328 LINE",
"68 1328 LINE SMOOTH",
"110 1328 OFFCURVE",
"110 1100 OFFCURVE",
"110 674 QCURVE SMOOTH",
"110 248 OFFCURVE",
"110 22 OFFCURVE",
"68 22 QCURVE SMOOTH",
"50 22 LINE"
);
}
);
width = 162;
},
{
anchors = (
{
name = bottom;
position = "{370, 0}";
},
{
name = center;
position = "{370, 675}";
},
{
name = top;
position = "{370, 1350}";
}
);
layerId = "BA0CA162-2A9B-49EE-921D-3B4346C7D39F";
paths = (
{
closed = 1;
nodes = (
"486 0 LINE SMOOTH",
"728 0 OFFCURVE",
"728 296 OFFCURVE",
"728 676 QCURVE SMOOTH",
"728 1056 OFFCURVE",
"728 1350 OFFCURVE",
"486 1350 QCURVE SMOOTH",
"12 1350 LINE",
"12 0 LINE"
);
},
{
closed = 1;
nodes = (
"358 1096 LINE",
"366 1096 LINE SMOOTH",
"382 1096 OFFCURVE",
"382 1044 OFFCURVE",
"382 676 QCURVE SMOOTH",
"382 306 OFFCURVE",
"382 254 OFFCURVE",
"366 254 QCURVE SMOOTH",
"358 254 LINE"
);
}
);
width = 740;
},
{
anchors = (
{
name = bottom;
position = "{1102, 0}";
},
{
name = center;
position = "{1102, 675}";
},
{
name = top;
position = "{1102, 1350}";
}
);
layerId = "C75D3228-2D13-4E9D-9829-45195F4951D0";
paths = (
{
closed = 1;
nodes = (
"1268 0 LINE SMOOTH",
"1632 0 OFFCURVE",
"2082 322 OFFCURVE",
"2082 676 QCURVE SMOOTH",
"2082 1030 OFFCURVE",
"1632 1350 OFFCURVE",
"1268 1350 QCURVE SMOOTH",
"140 1350 LINE",
"140 0 LINE"
);
},
{
closed = 1;
nodes = (
"706 988 LINE",
"1138 988 LINE SMOOTH",
"1330 988 OFFCURVE",
"1516 846 OFFCURVE",
"1516 676 QCURVE SMOOTH",
"1516 504 OFFCURVE",
"1330 362 OFFCURVE",
"1138 362 QCURVE SMOOTH",
"706 362 LINE"
);
}
);
width = 2169;
},
{
anchors = (
{
name = bottom;
position = "{916, 0}";
},
{
name = center;
position = "{949, 675}";
},
{
name = top;
position = "{866, 1350}";
}
);
layerId = "71977205-6510-4B11-BB00-17BACA883C8F";
paths = (
{
closed = 1;
nodes = (
"905 0 LINE SMOOTH",
"1284 0 OFFCURVE",
"1722 318 OFFCURVE",
"1722 676 QCURVE SMOOTH",
"1722 1034 OFFCURVE",
"1285 1350 OFFCURVE",
"905 1350 QCURVE SMOOTH",
"150 1350 LINE",
"150 0 LINE"
);
},
{
closed = 1;
nodes = (
"172 1328 LINE",
"899 1328 LINE SMOOTH",
"1274 1328 OFFCURVE",
"1698 1024 OFFCURVE",
"1698 676 QCURVE SMOOTH",
"1698 329 OFFCURVE",
"1274 22 OFFCURVE",
"899 22 QCURVE SMOOTH",
"172 22 LINE"
);
}
);
width = 1916;
},
{
anchors = (
{
name = bottom;
position = "{749, 0}";
},
{
name = center;
position = "{269, 675}";
},
{
name = top;
position = "{994, 1350}";
}
);
layerId = "5997A0D0-E78E-41EC-9011-DECBEAD8517D";
paths = (
{
closed = 1;
nodes = (
"786 0 LINE SMOOTH",
"1165 0 OFFCURVE",
"1670 306 OFFCURVE",
"1722 676 QCURVE SMOOTH",
"1771 1024 OFFCURVE",
"1404 1350 OFFCURVE",
"1024 1350 QCURVE SMOOTH",
"269 1350 LINE",
"31 0 LINE"
);
},
{
closed = 1;
nodes = (
"287 1328 LINE",
"1014 1328 LINE SMOOTH",
"1389 1328 OFFCURVE",
"1748 1014 OFFCURVE",
"1698 676 QCURVE SMOOTH",
"1645 317 OFFCURVE",
"1159 22 OFFCURVE",
"784 22 QCURVE SMOOTH",
"57 22 LINE"
);
}
);
width = 1927;
},
{
anchors = (
{
name = bottom;
position = "{272, 0}";
},
{
name = center;
position = "{392, 675}";
},
{
name = top;
position = "{511, 1350}";
}
);
layerId = "55C4185A-9C39-4468-B19C-DE0A3E571700";
paths = (
{
closed = 1;
nodes = (
"384 0 LINE SMOOTH",
"626 0 OFFCURVE",
"678 296 OFFCURVE",
"745 676 QCURVE SMOOTH",
"812 1056 OFFCURVE",
"864 1350 OFFCURVE",
"622 1350 QCURVE SMOOTH",
"148 1350 LINE",
"-90 0 LINE"
);
},
{
closed = 1;
nodes = (
"449 1096 LINE",
"457 1096 LINE SMOOTH",
"473 1096 OFFCURVE",
"464 1044 OFFCURVE",
"399 676 QCURVE SMOOTH",
"334 306 OFFCURVE",
"325 254 OFFCURVE",
"309 254 QCURVE SMOOTH",
"301 254 LINE"
);
}
);
width = 742;
},
{
anchors = (
{
name = bottom;
position = "{-13, 0}";
},
{
name = center;
position = "{107, 675}";
},
{
name = top;
position = "{226, 1350}";
}
);
layerId = "4F53612F-C4F8-4368-83AD-8913BEEF8F1D";
paths = (
{
closed = 1;
nodes = (
"-26 0 LINE SMOOTH",
"36 0 OFFCURVE",
"79 242 OFFCURVE",
"155 674 QCURVE SMOOTH",
"231 1106 OFFCURVE",
"274 1350 OFFCURVE",
"212 1350 QCURVE SMOOTH",
"170 1350 LINE",
"-68 0 LINE"
);
},
{
closed = 1;
nodes = (
"188 1328 LINE",
"206 1328 LINE SMOOTH",
"248 1328 OFFCURVE",
"208 1100 OFFCURVE",
"133 674 QCURVE SMOOTH",
"58 248 OFFCURVE",
"18 22 OFFCURVE",
"-24 22 QCURVE SMOOTH",
"-42 22 LINE"
);
}
);
width = 163;
},
{
anchors = (
{
name = bottom;
position = "{960, 0}";
},
{
name = center;
position = "{1150, 675}";
},
{
name = top;
position = "{1199, 1350}";
}
);
layerId = "E5A4176B-9C10-4B01-BBC9-D7999ECBFAF8";
paths = (
{
closed = 1;
nodes = (
"1190 0 LINE SMOOTH",
"1554 0 OFFCURVE",
"2059 320 OFFCURVE",
"2103 676 QCURVE SMOOTH",
"2146 1020 OFFCURVE",
"1752 1350 OFFCURVE",
"1388 1350 QCURVE SMOOTH",
"280 1350 LINE",
"42 0 LINE"
);
},
{
closed = 1;
nodes = (
"782 988 LINE",
"1214 988 LINE SMOOTH",
"1406 988 OFFCURVE",
"1567 846 OFFCURVE",
"1537 676 QCURVE SMOOTH",
"1507 504 OFFCURVE",
"1296 362 OFFCURVE",
"1104 362 QCURVE SMOOTH",
"672 362 LINE"
);
}
);
width = 2191;
}
);
leftKerningGroup = H;
leftMetricsKey = H;
note = D;
rightKerningGroup = O;
rightMetricsKey = O;
unicode = 0044;
},
{
glyphname = Eth;
layers = (
{
components = (
{
name = D;
transform = "{1, 0, 0, 1, 36, 0}";
}
);
layerId = "A1A0948C-E637-4A65-8CCC-05505AD98C44";
paths = (
{
closed = 1;
nodes = (
"126 666 LINE",
"126 688 LINE",
"28 688 LINE",
"28 666 LINE"
);
}
);
width = 198;
},
{
components = (
{
alignment = -1;
name = D;
transform = "{1, 0, 0, 1, 52, 0}";
}
);
layerId = "BA0CA162-2A9B-49EE-921D-3B4346C7D39F";
paths = (
{
closed = 1;
nodes = (
"422 564 LINE",
"422 788 LINE",
"12 788 LINE",
"12 564 LINE"
);
}
);
width = 792;
},
{
components = (
{
alignment = -1;
name = D;
transform = "{1, 0, 0, 1, 44, 0}";
}
);
layerId = "C75D3228-2D13-4E9D-9829-45195F4951D0";
paths = (
{
closed = 1;
nodes = (
"1088 494 LINE",
"1088 858 LINE",
"-52 858 LINE",
"-52 494 LINE"
);
}
);
width = 2213;
},
{
components = (
{
name = D;
transform = "{1, 0, 0, 1, -6, 0}";
}
);
layerId = "71977205-6510-4B11-BB00-17BACA883C8F";
paths = (
{
closed = 1;
nodes = (
"602 666 LINE",
"602 688 LINE",
"-78 688 LINE",
"-78 666 LINE"
);
}
);
width = 1910;
},
{
components = (
{
name = D;
}
);
layerId = "5997A0D0-E78E-41EC-9011-DECBEAD8517D";
paths = (
{
closed = 1;
nodes = (
"538 666 LINE",
"540 688 LINE",
"-62 688 LINE",
"-64 666 LINE"
);
}
);
width = 1927;
},
{
components = (
{
alignment = -1;
name = D;
transform = "{1, 0, 0, 1, 54, 0}";
}
);
layerId = "55C4185A-9C39-4468-B19C-DE0A3E571700";
paths = (
{
closed = 1;
nodes = (
"425 564 LINE",
"465 788 LINE",
"50 788 LINE",
"8 564 LINE"
);
}
);
width = 796;
},
{
components = (
{
name = D;
transform = "{1, 0, 0, 1, 50, 0}";
}
);
layerId = "4F53612F-C4F8-4368-83AD-8913BEEF8F1D";
paths = (
{
closed = 1;
nodes = (
"150 666 LINE",
"152 688 LINE",
"54 688 LINE",
"50 666 LINE"
);
}
);
width = 213;
},
{
components = (
{
alignment = -1;
name = D;
transform = "{1, 0, 0, 1, 44, 0}";
}
);
layerId = "E5A4176B-9C10-4B01-BBC9-D7999ECBFAF8";
paths = (
{
closed = 1;
nodes = (
"1052 494 LINE",
"1108 858 LINE",
"-64 858 LINE",
"-120 494 LINE"
);
}
);
width = 2235;
}
);
leftKerningGroup = H;
rightKerningGroup = O;
rightMetricsKey = D;
unicode = 00D0;
},
{
glyphname = E;
layers = (
{
anchors = (
{
name = bottom;
position = "{73, 0}";
},
{
name = ogonek;
position = "{89, 0}";
},
{
name = top;
position = "{73, 1350}";
},
{
name = topleft;
position = "{24, 1350}";
}
);
layerId = "A1A0948C-E637-4A65-8CCC-05505AD98C44";
paths = (
{
closed = 1;
nodes = (
"108 0 LINE",
"108 22 LINE",
"54 22 LINE",
"54 688 LINE",
"108 688 LINE",
"108 710 LINE",
"54 710 LINE",
"54 1328 LINE",
"108 1328 LINE",
"108 1350 LINE",
"32 1350 LINE",
"32 0 LINE"
);
}
);
width = 142;
},
{
anchors = (
{
name = bottom;
position = "{251, 0}";
},
{
name = ogonek;
position = "{364, 0}";
},
{
name = top;
position = "{251, 1350}";
},
{
name = topleft;
position = "{20, 1350}";
}
);
layerId = "BA0CA162-2A9B-49EE-921D-3B4346C7D39F";
paths = (
{
closed = 1;
nodes = (
"490 0 LINE",
"490 254 LINE",
"360 254 LINE",
"360 555 LINE",
"490 555 LINE",
"490 805 LINE",
"360 805 LINE",
"360 1096 LINE",
"490 1096 LINE",
"490 1350 LINE",
"12 1350 LINE",
"12 0 LINE"
);
}
);
width = 502;
},
{
anchors = (
{
name = bottom;
position = "{932, 0}";
},
{
name = ogonek;
position = "{1476, 0}";
},
{
name = top;
position = "{932, 1350}";
},
{
name = topleft;
position = "{20, 1350}";
}
);
layerId = "C75D3228-2D13-4E9D-9829-45195F4951D0";
paths = (
{
closed = 1;
nodes = (
"1776 0 LINE",
"1776 362 LINE",
"686 362 LINE",
"686 508 LINE",
"1676 508 LINE",
"1676 844 LINE",
"686 844 LINE",
"686 988 LINE",
"1776 988 LINE",
"1776 1350 LINE",
"120 1350 LINE",
"120 0 LINE"
);
}
);
width = 1924;
},
{
anchors = (
{
name = bottom;
position = "{921, 0}";
},
{
name = ogonek;
position = "{950, 0}";
},
{
name = top;
position = "{921, 1350}";
},
{
name = topleft;
position = "{19, 1350}";
}
);
layerId = "71977205-6510-4B11-BB00-17BACA883C8F";
paths = (
{
closed = 1;
nodes = (
"1617 0 LINE",
"1617 22 LINE",
"178 22 LINE",
"178 688 LINE",
"1548 688 LINE",
"1548 710 LINE",
"178 710 LINE",
"178 1328 LINE",
"1617 1328 LINE",
"1617 1350 LINE",
"156 1350 LINE",
"156 0 LINE"
);
}
);
width = 1842;
},
{
anchors = (
{
name = bottom;
position = "{715, 0}";
},
{
name = ogonek;
position = "{733, 0}";
},
{
name = top;
position = "{954, 1350}";
},
{
name = topleft;
position = "{164, 1350}";
}
);
layerId = "5997A0D0-E78E-41EC-9011-DECBEAD8517D";
paths = (
{
closed = 1;
nodes = (
"1497 0 LINE",
"1501 22 LINE",
"62 22 LINE",
"179 688 LINE",
"1549 688 LINE",
"1553 710 LINE",
"183 710 LINE",
"292 1328 LINE",
"1731 1328 LINE",
"1735 1350 LINE",
"274 1350 LINE",
"36 0 LINE"
);
}
);
width = 1842;
},
{
anchors = (
{
name = bottom;
position = "{155, 0}";
},
{
name = ogonek;
position = "{275, 0}";
},
{
name = top;
position = "{394, 1350}";
},
{
name = topleft;
position = "{164, 1350}";
}
);
layerId = "55C4185A-9C39-4468-B19C-DE0A3E571700";
paths = (
{
closed = 1;
nodes = (
"388 0 LINE",
"433 254 LINE",
"303 254 LINE",
"356 555 LINE",
"486 555 LINE",
"530 805 LINE",
"400 805 LINE",
"451 1096 LINE",
"581 1096 LINE",
"626 1350 LINE",
"148 1350 LINE",
"-90 0 LINE"
);
}
);
width = 502;
},
{
anchors = (
{
name = bottom;
position = "{-26, 0}";
},
{
name = ogonek;
position = "{-10, 0}";
},
{
name = top;
position = "{213, 1350}";
},
{
name = topleft;
position = "{164, 1350}";
}
);
layerId = "4F53612F-C4F8-4368-83AD-8913BEEF8F1D";
paths = (
{
closed = 1;
nodes = (
"11 0 LINE",
"15 22 LINE",
"-39 22 LINE",
"78 688 LINE",
"132 688 LINE",
"136 710 LINE",
"82 710 LINE",
"191 1328 LINE",
"245 1328 LINE",
"249 1350 LINE",
"173 1350 LINE",
"-65 0 LINE"
);
}
);
width = 142;
},
{
anchors = (
{
name = bottom;
position = "{836, 0}";
},
{
name = ogonek;
position = "{1286, 0}";
},
{
name = top;
position = "{1075, 1350}";
},
{
name = topleft;
position = "{164, 1350}";
}
);
layerId = "E5A4176B-9C10-4B01-BBC9-D7999ECBFAF8";
paths = (
{
closed = 1;
nodes = (
"1657 0 LINE",
"1721 362 LINE",
"631 362 LINE",
"657 508 LINE",
"1647 508 LINE",
"1706 844 LINE",
"716 844 LINE",
"741 988 LINE",
"1831 988 LINE",
"1895 1350 LINE",
"239 1350 LINE",
"1 0 LINE"
);
}
);
width = 1924;
}
);
leftKerningGroup = H;
note = E;
rightKerningGroup = E;
unicode = 0045;
},
{
glyphname = F;
lastChange = "2020-04-16 14:40:10 +0000";
layers = (
{
anchors = (
{
name = bottom;
position = "{73, 0}";
},
{
name = top;
position = "{73, 1350}";
}
);
layerId = "A1A0948C-E637-4A65-8CCC-05505AD98C44";
paths = (
{
closed = 1;
nodes = (
"50 0 LINE",
"50 654 LINE",
"112 654 LINE",
"112 676 LINE",
"50 676 LINE",
"50 1328 LINE",
"112 1328 LINE",
"112 1350 LINE",
"28 1350 LINE",
"28 0 LINE"
);
}
);
width = 146;
},
{
anchors = (
{
name = bottom;
position = "{245, 0}";
},
{
name = top;
position = "{245, 1350}";
}
);
layerId = "BA0CA162-2A9B-49EE-921D-3B4346C7D39F";
paths = (
{
closed = 1;
nodes = (
"360 0 LINE",
"360 480 LINE",
"488 480 LINE",
"488 730 LINE",
"360 730 LINE",
"360 1096 LINE",
"486 1096 LINE",
"486 1350 LINE",
"12 1350 LINE",
"12 0 LINE"
);
}
);
width = 500;
},
{
anchors = (
{
name = bottom;
position = "{867, 0}";
},
{
name = top;
position = "{867, 1350}";
}
);
layerId = "C75D3228-2D13-4E9D-9829-45195F4951D0";
paths = (
{
closed = 1;
nodes = (
"662 0 LINE",
"662 412 LINE",
"1536 412 LINE",
"1536 748 LINE",
"662 748 LINE",
"662 988 LINE",
"1632 988 LINE",
"1632 1350 LINE",
"96 1350 LINE",
"96 0 LINE"
);
}
);
width = 1754;
},
{
anchors = (
{
name = bottom;
position = "{889, 0}";
},
{
name = top;
position = "{889, 1350}";
}
);
layerId = "71977205-6510-4B11-BB00-17BACA883C8F";
paths = (
{
closed = 1;
nodes = (
"211 0 LINE",
"211 645 LINE",
"1472 645 LINE",
"1472 667 LINE",
"211 667 LINE",
"211 1328 LINE",
"1584 1328 LINE",
"1584 1350 LINE",
"189 1350 LINE",
"189 0 LINE"
);
}
);
width = 1722;
},
{
anchors = (
{
name = bottom;
position = "{687, 0}";
},
{
name = top;
position = "{926, 1350}";
}
);
layerId = "5997A0D0-E78E-41EC-9011-DECBEAD8517D";
paths = (
{
closed = 1;
nodes = (
"52 0 LINE",
"166 645 LINE",
"1427 645 LINE",
"1431 667 LINE",
"170 667 LINE",
"286 1328 LINE",
"1659 1328 LINE",
"1663 1350 LINE",
"268 1350 LINE",
"30 0 LINE"
);
}
);
width = 1722;
},
{
anchors = (
{
name = bottom;
position = "{150, 0}";
},
{
name = top;
position = "{389, 1350}";
}
);
layerId = "55C4185A-9C39-4468-B19C-DE0A3E571700";
paths = (
{
closed = 1;
nodes = (
"261 0 LINE",
"346 480 LINE",
"474 480 LINE",
"518 730 LINE",
"390 730 LINE",
"454 1096 LINE",
"580 1096 LINE",
"625 1350 LINE",
"151 1350 LINE",
"-87 0 LINE"
);
}
);
width = 500;
},
{
anchors = (
{
name = bottom;
position = "{-22, 0}";
},
{
name = top;
position = "{217, 1350}";
}
);
layerId = "4F53612F-C4F8-4368-83AD-8913BEEF8F1D";
paths = (
{
closed = 1;
nodes = (
"-44 0 LINE",
"71 654 LINE",
"133 654 LINE",
"137 676 LINE",
"75 676 LINE",
"190 1328 LINE",
"252 1328 LINE",
"256 1350 LINE",
"172 1350 LINE",
"-66 0 LINE"
);
}
);
width = 146;
},
{
anchors = (
{
name = bottom;
position = "{772, 0}";
},
{
name = top;
position = "{1011, 1350}";
}
);
layerId = "E5A4176B-9C10-4B01-BBC9-D7999ECBFAF8";
paths = (
{
closed = 1;
nodes = (
"522 0 LINE",
"595 412 LINE",
"1469 412 LINE",
"1528 748 LINE",
"654 748 LINE",
"696 988 LINE",
"1666 988 LINE",
"1730 1350 LINE",
"194 1350 LINE",
"-44 0 LINE"
);
}
);
width = 1754;
}
);
leftKerningGroup = H;
note = F;
rightKerningGroup = F;
unicode = 0046;
},
{
glyphname = G;
lastChange = "2020-04-16 23:48:42 +0000";
layers = (
{
anchors = (
{
name = bottom;
position = "{86, 0}";
},
{
name = top;
position = "{86, 1350}";
}
);
layerId = "A1A0948C-E637-4A65-8CCC-05505AD98C44";
paths = (
{
closed = 1;
nodes = (
"113 -8 OFFCURVE",
"125 42 QCURVE",
"125 0 LINE",
"144 0 LINE",
"144 582 LINE",
"84 582 LINE",
"84 558 LINE",
"122 558 LINE",
"122 224 LINE",
"122 64 OFFCURVE",
"99 14 OFFCURVE",
"80 14 QCURVE SMOOTH",
"50 14 OFFCURVE",
"50 218 OFFCURVE",
"50 684 QCURVE SMOOTH",
"50 1150 OFFCURVE",
"50 1334 OFFCURVE",
"86 1334 QCURVE SMOOTH",
"122 1334 OFFCURVE",
"122 1120 OFFCURVE",
"122 836 QCURVE",
"144 836 LINE",
"144 1130 OFFCURVE",
"143 1356 OFFCURVE",
"86 1356 QCURVE SMOOTH",
"28 1356 OFFCURVE",
"28 1156 OFFCURVE",
"28 684 QCURVE SMOOTH",
"28 212 OFFCURVE",
"28 -8 OFFCURVE",
"80 -8 QCURVE SMOOTH"
);
}
);
width = 184;
},
{
anchors = (
{
name = bottom;
position = "{372, 0}";
},
{
name = top;
position = "{372, 1350}";
}
);
layerId = "BA0CA162-2A9B-49EE-921D-3B4346C7D39F";
paths = (
{
closed = 1;
nodes = (
"489 -8 OFFCURVE",
"539 59 QCURVE",
"560 0 LINE",
"732 0 LINE",
"732 702 LINE",
"377 702 LINE",
"377 468 LINE",
"398 468 LINE",
"398 467 LINE",
"398 302 OFFCURVE",
"391 246 OFFCURVE",
"378 246 QCURVE SMOOTH",
"360 246 OFFCURVE",
"360 348 OFFCURVE",
"360 650 QCURVE SMOOTH",
"360 1062 OFFCURVE",
"360 1108 OFFCURVE",
"372 1108 QCURVE SMOOTH",
"384 1108 OFFCURVE",
"384 1061 OFFCURVE",
"384 846 QCURVE",
"732 846 LINE",
"732 990 OFFCURVE",
"732 1362 OFFCURVE",
"372 1362 QCURVE SMOOTH",
"12 1362 OFFCURVE",
"12 990 OFFCURVE",
"12 680 QCURVE SMOOTH",
"12 380 OFFCURVE",
"12 -8 OFFCURVE",
"314 -8 QCURVE SMOOTH"
);
}
);
width = 744;
},
{
anchors = (
{
name = bottom;
position = "{1086, 1}";
},
{
name = top;
position = "{1087, 1350}";
}
);
layerId = "C75D3228-2D13-4E9D-9829-45195F4951D0";
paths = (
{
closed = 1;
nodes = (
"1426 -8 OFFCURVE",
"1642 134 QCURVE",
"1665 0 LINE",
"2072 0 LINE",
"2072 774 LINE",
"1140 774 LINE",
"1140 476 LINE",
"1479 476 LINE",
"1479 487 LINE",
"1463 430 OFFCURVE",
"1289 352 OFFCURVE",
"1100 352 QCURVE SMOOTH",
"901 352 OFFCURVE",
"652 521 OFFCURVE",
"652 680 QCURVE SMOOTH",
"652 838 OFFCURVE",
"900 1002 OFFCURVE",
"1100 1002 QCURVE SMOOTH",
"1289 1002 OFFCURVE",
"1495 917 OFFCURVE",
"1506 872 QCURVE",
"2072 872 LINE",
"2072 1099 OFFCURVE",
"1493 1362 OFFCURVE",
"1098 1362 QCURVE SMOOTH",
"643 1362 OFFCURVE",
"80 1017 OFFCURVE",
"80 680 QCURVE SMOOTH",
"80 343 OFFCURVE",
"622 -8 OFFCURVE",
"1076 -8 QCURVE SMOOTH"
);
}
);
width = 2267;
},
{
anchors = (
{
name = bottom;
position = "{1016, 0}";
},
{
name = top;
position = "{1016, 1350}";
}
);
layerId = "71977205-6510-4B11-BB00-17BACA883C8F";
paths = (
{
closed = 1;
nodes = (
"1654 -8 OFFCURVE",
"1748 472 QCURVE",
"1748 0 LINE",
"1770 0 LINE",
"1770 605 LINE",
"1024 605 LINE",
"1024 583 LINE",
"1737 583 LINE",
"1737 584 LINE",
"1737 328 OFFCURVE",
"1369 14 OFFCURVE",
"979 14 QCURVE SMOOTH",
"577 14 OFFCURVE",
"166 390 OFFCURVE",
"166 672 QCURVE SMOOTH",
"166 956 OFFCURVE",
"577 1341 OFFCURVE",
"978 1341 QCURVE SMOOTH",
"1366 1341 OFFCURVE",
"1746 1015 OFFCURVE",
"1746 838 QCURVE",
"1770 838 LINE",
"1770 1024 OFFCURVE",
"1373 1363 OFFCURVE",
"978 1363 QCURVE SMOOTH",
"573 1363 OFFCURVE",
"142 967 OFFCURVE",
"142 672 QCURVE SMOOTH",
"142 378 OFFCURVE",
"573 -8 OFFCURVE",
"979 -8 QCURVE SMOOTH"
);
}
);
width = 2042;
},
{
anchors = (
{
name = bottom;
position = "{822, 0}";
},
{
name = top;
position = "{1061, 1350}";
}
);
layerId = "5997A0D0-E78E-41EC-9011-DECBEAD8517D";
paths = (
{
closed = 1;
nodes = (
"1530 -8 OFFCURVE",
"1703 472 QCURVE",
"1620 0 LINE",
"1642 0 LINE",
"1748 605 LINE",
"1002 605 LINE",
"998 583 LINE",
"1711 583 LINE",
"1712 584 LINE",
"1666 328 OFFCURVE",
"1243 14 OFFCURVE",
"853 14 QCURVE SMOOTH",
"454 14 OFFCURVE",
"134 387 OFFCURVE",
"156 662 QCURVE SMOOTH",
"179 955 OFFCURVE",
"687 1341 OFFCURVE",
"1086 1341 QCURVE SMOOTH",
"1474 1341 OFFCURVE",
"1797 1015 OFFCURVE",
"1765 838 QCURVE",
"1789 838 LINE",
"1822 1024 OFFCURVE",
"1480 1363 OFFCURVE",
"1085 1363 QCURVE SMOOTH",
"680 1363 OFFCURVE",
"158 968 OFFCURVE",
"132 662 QCURVE SMOOTH",
"108 375 OFFCURVE",
"449 -8 OFFCURVE",
"855 -8 QCURVE SMOOTH"
);
}
);
width = 2033;
},
{
anchors = (
{
name = bottom;
position = "{270, 0}";
},
{
name = top;
position = "{509, 1350}";
}
);
layerId = "55C4185A-9C39-4468-B19C-DE0A3E571700";
paths = (
{
closed = 1;
nodes = (
"383 -8 OFFCURVE",
"445 59 QCURVE",
"456 0 LINE",
"628 0 LINE",
"751 702 LINE",
"396 702 LINE",
"355 468 LINE",
"376 468 LINE",
"376 467 LINE",
"347 302 OFFCURVE",
"330 246 OFFCURVE",
"317 246 QCURVE SMOOTH",
"299 246 OFFCURVE",
"317 348 OFFCURVE",
"370 650 QCURVE SMOOTH",
"443 1062 OFFCURVE",
"451 1108 OFFCURVE",
"463 1108 QCURVE SMOOTH",
"475 1108 OFFCURVE",
"467 1061 OFFCURVE",
"429 846 QCURVE",
"777 846 LINE",
"802 990 OFFCURVE",
"868 1362 OFFCURVE",
"508 1362 QCURVE SMOOTH",
"148 1362 OFFCURVE",
"82 990 OFFCURVE",
"28 680 QCURVE SMOOTH",
"-25 380 OFFCURVE",
"-94 -8 OFFCURVE",
"208 -8 QCURVE SMOOTH"
);
}
);
width = 742;
},
{
anchors = (
{
name = bottom;
position = "{-16, 0}";
},
{
name = top;
position = "{223, 1350}";
}
);
layerId = "4F53612F-C4F8-4368-83AD-8913BEEF8F1D";
paths = (
{
closed = 1;
nodes = (
"15 -8 OFFCURVE",
"36 42 QCURVE",
"28 0 LINE",
"47 0 LINE",
"150 582 LINE",
"90 582 LINE",
"86 558 LINE",
"124 558 LINE",
"65 224 LINE",
"36 64 OFFCURVE",
"5 14 OFFCURVE",
"-14 14 QCURVE SMOOTH",
"-44 14 OFFCURVE",
"-8 218 OFFCURVE",
"74 684 QCURVE SMOOTH",
"156 1150 OFFCURVE",
"188 1334 OFFCURVE",
"224 1334 QCURVE SMOOTH",
"260 1334 OFFCURVE",
"223 1120 OFFCURVE",
"173 836 QCURVE",
"195 836 LINE",
"246 1130 OFFCURVE",
"285 1356 OFFCURVE",
"228 1356 QCURVE SMOOTH",
"170 1356 OFFCURVE",
"135 1156 OFFCURVE",
"52 684 QCURVE SMOOTH",
"-31 212 OFFCURVE",
"-70 -8 OFFCURVE",
"-18 -8 QCURVE SMOOTH"
);
}
);
width = 181;
},
{
anchors = (
{
name = bottom;
position = "{1016, 0}";
},
{
name = top;
position = "{1255, 1350}";
}
);
layerId = "E5A4176B-9C10-4B01-BBC9-D7999ECBFAF8";
paths = (
{
closed = 1;
nodes = (
"1314 -8 OFFCURVE",
"1545 134 QCURVE",
"1545 0 LINE",
"1952 0 LINE",
"2088 774 LINE",
"1156 774 LINE",
"1104 476 LINE",
"1443 476 LINE",
"1444 487 LINE",
"1418 430 OFFCURVE",
"1231 352 OFFCURVE",
"1042 352 QCURVE SMOOTH",
"843 352 OFFCURVE",
"633 521 OFFCURVE",
"652 670 QCURVE SMOOTH",
"674 839 OFFCURVE",
"956 1002 OFFCURVE",
"1156 1002 QCURVE SMOOTH",
"1345 1002 OFFCURVE",
"1536 917 OFFCURVE",
"1539 872 QCURVE",
"2105 872 LINE",
"2145 1099 OFFCURVE",
"1603 1362 OFFCURVE",
"1208 1362 QCURVE SMOOTH",
"753 1362 OFFCURVE",
"121 1019 OFFCURVE",
"80 670 QCURVE SMOOTH",
"42 343 OFFCURVE",
"510 -8 OFFCURVE",
"964 -8 QCURVE SMOOTH"
);
}
);
width = 2247;
}
);
leftKerningGroup = O;
leftMetricsKey = O;
note = G;
rightKerningGroup = H;
rightMetricsKey = H;
unicode = 0047;
},
{
glyphname = H;
layers = (
{
anchors = (
{
name = bottom;
position = "{86, 0}";
},
{
name = center;
position = "{86, 675}";
},
{
name = top;
position = "{86, 1350}";
},
{
name = topleft;
position = "{12, 1350}";
}
);
layerId = "A1A0948C-E637-4A65-8CCC-05505AD98C44";
paths = (
{
closed = 1;
nodes = (
"50 0 LINE",
"50 728 LINE",
"112 728 LINE",
"112 0 LINE",
"134 0 LINE",
"134 1350 LINE",
"112 1350 LINE",
"112 750 LINE",
"50 750 LINE",
"50 1350 LINE",
"28 1350 LINE",
"28 0 LINE"
);
}
);
width = 174;
},
{
anchors = (
{
name = bottom;
position = "{371, 0}";
},
{
name = center;
position = "{371, 675}";
},
{
name = top;
position = "{371, 1350}";
},
{
name = topleft;
position = "{20, 1350}";
}
);
layerId = "BA0CA162-2A9B-49EE-921D-3B4346C7D39F";
paths = (
{
closed = 1;
nodes = (
"360 0 LINE",
"360 543 LINE",
"382 543 LINE",
"382 0 LINE",
"730 0 LINE",
"730 1350 LINE",
"382 1350 LINE",
"382 797 LINE",
"360 797 LINE",
"360 1350 LINE",
"12 1350 LINE",
"12 0 LINE"
);
}
);
width = 742;
},
{
anchors = (
{
name = bottom;
position = "{1110, 0}";
},
{
name = center;
position = "{1110, 675}";
},
{
name = top;
position = "{1110, 1350}";
},
{
name = topleft;
position = "{20, 1350}";
}
);
layerId = "C75D3228-2D13-4E9D-9829-45195F4951D0";
paths = (
{
closed = 1;
nodes = (
"706 0 LINE",
"706 468 LINE",
"1494 468 LINE",
"1494 0 LINE",
"2060 0 LINE",
"2060 1350 LINE",
"1494 1350 LINE",
"1494 830 LINE",
"706 830 LINE",
"706 1350 LINE",
"140 1350 LINE",
"140 0 LINE"
);
}
);
width = 2255;
},
{
anchors = (
{
name = bottom;
position = "{953, 0}";
},
{
name = center;
position = "{953, 675}";
},
{
name = top;
position = "{953, 1350}";
},
{
name = topleft;
position = "{30, 1350}";
}
);
layerId = "71977205-6510-4B11-BB00-17BACA883C8F";
paths = (
{
closed = 1;
nodes = (
"172 0 LINE",
"172 684 LINE",
"1612 684 LINE",
"1612 0 LINE",
"1634 0 LINE",
"1634 1350 LINE",
"1612 1350 LINE",
"1612 706 LINE",
"172 706 LINE",
"172 1350 LINE",
"150 1350 LINE",
"150 0 LINE"
);
}
);
width = 1906;
},
{
anchors = (
{
name = bottom;
position = "{737, 0}";
},
{
name = center;
position = "{857, 675}";
},
{
name = top;
position = "{976, 1350}";
},
{
name = topleft;
position = "{164, 1350}";
}
);
layerId = "5997A0D0-E78E-41EC-9011-DECBEAD8517D";
paths = (
{
closed = 1;
nodes = (
"53 0 LINE",
"174 684 LINE",
"1614 684 LINE",
"1493 0 LINE",
"1515 0 LINE",
"1753 1350 LINE",
"1731 1350 LINE",
"1617 706 LINE",
"177 706 LINE",
"291 1350 LINE",
"269 1350 LINE",
"31 0 LINE"
);
}
);
width = 1906;
},
{
anchors = (
{
name = bottom;
position = "{275, 0}";
},
{
name = center;
position = "{395, 675}";
},
{
name = top;
position = "{514, 1350}";
},
{
name = topleft;
position = "{164, 1350}";
}
);
layerId = "55C4185A-9C39-4468-B19C-DE0A3E571700";
paths = (
{
closed = 1;
nodes = (
"258 0 LINE",
"354 543 LINE",
"376 543 LINE",
"280 0 LINE",
"628 0 LINE",
"866 1350 LINE",
"518 1350 LINE",
"421 797 LINE",
"399 797 LINE",
"496 1350 LINE",
"148 1350 LINE",
"-90 0 LINE"
);
}
);
width = 742;
},
{
anchors = (
{
name = bottom;
position = "{-9, 0}";
},
{
name = center;
position = "{111, 675}";
},
{
name = top;
position = "{230, 1350}";
},
{
name = topleft;
position = "{156, 1350}";
}
);
layerId = "4F53612F-C4F8-4368-83AD-8913BEEF8F1D";
paths = (
{
closed = 1;
nodes = (
"-46 0 LINE",
"84 728 LINE",
"146 728 LINE",
"18 0 LINE",
"40 0 LINE",
"278 1350 LINE",
"256 1350 LINE",
"150 750 LINE",
"88 750 LINE",
"194 1350 LINE",
"172 1350 LINE",
"-68 0 LINE"
);
}
);
width = 174;
},
{
anchors = (
{
name = bottom;
position = "{1015, 0}";
},
{
name = center;
position = "{1135, 675}";
},
{
name = top;
position = "{1254, 1350}";
},
{
name = topleft;
position = "{164, 1350}";
}
);
layerId = "E5A4176B-9C10-4B01-BBC9-D7999ECBFAF8";
paths = (
{
closed = 1;
nodes = (
"608 0 LINE",
"690 468 LINE",
"1478 468 LINE",
"1394 0 LINE",
"1960 0 LINE",
"2198 1350 LINE",
"1632 1350 LINE",
"1540 830 LINE",
"754 830 LINE",
"846 1350 LINE",
"280 1350 LINE",
"42 0 LINE"
);
}
);
width = 2255;
}
);
leftKerningGroup = H;
note = H;
rightKerningGroup = H;
unicode = 0048;
},
{
glyphname = Hbar;
lastChange = "2020-04-16 17:49:18 +0000";
layers = (
{
components = (
{
name = H;
}
);
layerId = "A1A0948C-E637-4A65-8CCC-05505AD98C44";
paths = (
{
closed = 1;
nodes = (
"158 1048 LINE",
"158 1070 LINE",
"4 1070 LINE",
"4 1048 LINE"
);
}
);
width = 188;
},
{
components = (
{
name = H;
transform = "{1, 0, 0, 1, 32, 0}";
}
);
layerId = "BA0CA162-2A9B-49EE-921D-3B4346C7D39F";
paths = (
{
closed = 1;
nodes = (
"813 1046 LINE",
"813 1170 LINE",
"-7 1170 LINE",
"-7 1046 LINE"
);
}
);
width = 820;
},
{
components = (
{
name = H;
}
);
layerId = "C75D3228-2D13-4E9D-9829-45195F4951D0";
paths = (
{
closed = 1;
nodes = (
"2130 1006 LINE",
"2130 1200 LINE",
"70 1200 LINE",
"70 1006 LINE"
);
}
);
width = 2220;
},
{
components = (
{
name = H;
}
);
layerId = "71977205-6510-4B11-BB00-17BACA883C8F";
paths = (
{
closed = 1;
nodes = (
"1738 1048 LINE",
"1738 1070 LINE",
"45 1070 LINE",
"45 1048 LINE"
);
}
);
width = 1759;
},
{
components = (
{
name = H;
}
);
layerId = "5997A0D0-E78E-41EC-9011-DECBEAD8517D";
paths = (
{
closed = 1;
nodes = (
"1804 1048 LINE",
"1808 1070 LINE",
"115 1070 LINE",
"111 1048 LINE"
);
}
);
width = 1753;
},
{
components = (
{
name = H;
transform = "{1, 0, 0, 1, 33, 0}";
}
);
layerId = "55C4185A-9C39-4468-B19C-DE0A3E571700";
paths = (
{
closed = 1;
nodes = (
"896 1046 LINE",
"918 1170 LINE",
"100 1170 LINE",
"76 1046 LINE"
);
}
);
width = 820;
},
{
components = (
{
name = H;
}
);
layerId = "4F53612F-C4F8-4368-83AD-8913BEEF8F1D";
paths = (
{
closed = 1;
nodes = (
"249 1048 LINE",
"253 1070 LINE",
"99 1070 LINE",
"95 1048 LINE"
);
}
);
width = 188;
},
{
components = (
{
name = H;
}
);
layerId = "E5A4176B-9C10-4B01-BBC9-D7999ECBFAF8";
paths = (
{
closed = 1;
nodes = (
"2207 1006 LINE",
"2241 1200 LINE",
"181 1200 LINE",
"147 1006 LINE"
);
}
);
width = 2220;
}
);
leftKerningGroup = H;
rightKerningGroup = H;
unicode = 0126;
},
{
glyphname = I;
lastChange = "2020-04-16 17:49:34 +0000";
layers = (
{
anchors = (
{
name = bottom;
position = "{46, 0}";
},
{
name = ogonek;
position = "{45, 0}";
},
{
name = top;
position = "{45, 1350}";
},
{
name = topleft;
position = "{10, 1350}";
}
);
layerId = "A1A0948C-E637-4A65-8CCC-05505AD98C44";
paths = (
{
closed = 1;
nodes = (
"56 0 LINE",
"56 1350 LINE",
"34 1350 LINE",
"34 0 LINE"
);
}
);
width = 100;
},
{
anchors = (
{
name = bottom;
position = "{187, 0}";
},
{
name = ogonek;
position = "{187, 0}";
},
{
name = top;
position = "{187, 1350}";
},
{
name = topleft;
position = "{20, 1350}";
}
);
layerId = "BA0CA162-2A9B-49EE-921D-3B4346C7D39F";
paths = (
{
closed = 1;
nodes = (
"362 0 LINE",
"362 1350 LINE",
"12 1350 LINE",
"12 0 LINE"
);
}
);
width = 374;
},
{
anchors = (
{
name = bottom;
position = "{503, 0}";
},
{
name = ogonek;
position = "{505, 0}";
},
{
name = top;
position = "{503, 1350}";
},
{
name = topleft;
position = "{20, 1350}";
}
);
layerId = "C75D3228-2D13-4E9D-9829-45195F4951D0";
paths = (
{
closed = 1;
nodes = (
"784 0 LINE",
"784 1350 LINE",
"224 1350 LINE",
"224 0 LINE"
);
}
);
width = 1026;
},
{
anchors = (
{
name = bottom;
position = "{293, 0}";
},
{
name = ogonek;
position = "{294, 0}";
},
{
name = top;
position = "{293, 1350}";
},
{
name = topleft;
position = "{10, 1350}";
}
);
layerId = "71977205-6510-4B11-BB00-17BACA883C8F";
paths = (
{
closed = 1;
nodes = (
"304 0 LINE",
"304 1350 LINE",
"282 1350 LINE",
"282 0 LINE"
);
}
);
width = 698;
},
{
anchors = (
{
name = bottom;
position = "{149, 0}";
},
{
name = ogonek;
position = "{197, 0}";
},
{
name = top;
position = "{445, 1350}";
},
{
name = topleft;
position = "{154, 1350}";
}
);
layerId = "5997A0D0-E78E-41EC-9011-DECBEAD8517D";
paths = (
{
closed = 1;
nodes = (
"210 0 LINE",
"450 1350 LINE",
"428 1350 LINE",
"188 0 LINE"
);
}
);
width = 698;
},
{
anchors = (
{
name = bottom;
position = "{90, 0}";
},
{
name = ogonek;
position = "{132, 0}";
},
{
name = top;
position = "{329, 1350}";
},
{
name = topleft;
position = "{164, 1350}";
}
);
layerId = "55C4185A-9C39-4468-B19C-DE0A3E571700";
paths = (
{
closed = 1;
nodes = (
"260 0 LINE",
"498 1350 LINE",
"150 1350 LINE",
"-90 0 LINE"
);
}
);
width = 374;
},
{
anchors = (
{
name = bottom;
position = "{-51, 0}";
},
{
name = ogonek;
position = "{-54, 0}";
},
{
name = top;
position = "{188, 1350}";
},
{
name = topleft;
position = "{148, 1350}";
}
);
layerId = "4F53612F-C4F8-4368-83AD-8913BEEF8F1D";
paths = (
{
closed = 1;
nodes = (
"-44 0 LINE",
"194 1350 LINE",
"172 1350 LINE",
"-66 0 LINE"
);
}
);
width = 100;
},
{
anchors = (
{
name = bottom;
position = "{402, 0}";
},
{
name = ogonek;
position = "{387, 0}";
},
{
name = top;
position = "{647, 1350}";
},
{
name = topleft;
position = "{164, 1350}";
}
);
layerId = "E5A4176B-9C10-4B01-BBC9-D7999ECBFAF8";
paths = (
{
closed = 1;
nodes = (
"660 0 LINE",
"898 1350 LINE",
"338 1350 LINE",
"100 0 LINE"
);
}
);
width = 1026;
}
);
leftKerningGroup = H;
note = I;
rightKerningGroup = H;
unicode = 0049;
},
{
glyphname = J;
layers = (
{
anchors = (
{
name = bottom;
position = "{93, 0}";
},
{
name = top;
position = "{136, 1350}";
}
);
layerId = "A1A0948C-E637-4A65-8CCC-05505AD98C44";
paths = (
{
closed = 1;
nodes = (
"120 -8 OFFCURVE",
"148 72 OFFCURVE",
"148 164 QCURVE SMOOTH",
"148 1350 LINE",
"126 1350 LINE",
"126 164 LINE SMOOTH",
"126 82 OFFCURVE",
"108 14 OFFCURVE",
"88 14 QCURVE SMOOTH",
"68 14 OFFCURVE",
"50 82 OFFCURVE",
"50 164 QCURVE SMOOTH",
"50 614 LINE",
"28 614 LINE",
"28 164 LINE SMOOTH",
"28 72 OFFCURVE",
"56 -8 OFFCURVE",
"88 -8 QCURVE SMOOTH"
);
}
);
width = 186;
},
{
anchors = (
{
name = bottom;
position = "{368, 0}";
},
{
name = top;
position = "{560, 1350}";
}
);
layerId = "BA0CA162-2A9B-49EE-921D-3B4346C7D39F";
paths = (
{
closed = 1;
nodes = (
"552 -8 OFFCURVE",
"724 100 OFFCURVE",
"724 240 QCURVE SMOOTH",
"724 1350 LINE",
"380 1350 LINE",
"380 324 LINE SMOOTH",
"380 282 OFFCURVE",
"380 238 OFFCURVE",
"368 238 QCURVE SMOOTH",
"356 238 OFFCURVE",
"356 282 OFFCURVE",
"356 324 QCURVE SMOOTH",
"356 572 LINE",
"12 572 LINE",
"12 240 LINE SMOOTH",
"12 104 OFFCURVE",
"194 -8 OFFCURVE",
"370 -8 QCURVE SMOOTH"
);
}
);
width = 736;
},
{
anchors = (
{
name = bottom;
position = "{1087, 0}";
},
{
name = top;
position = "{1728, 1350}";
}
);
layerId = "C75D3228-2D13-4E9D-9829-45195F4951D0";
paths = (
{
closed = 1;
nodes = (
"1512 -16 OFFCURVE",
"1994 290 OFFCURVE",
"1994 544 QCURVE SMOOTH",
"1994 1350 LINE",
"1428 1350 LINE",
"1428 592 LINE SMOOTH",
"1428 469 OFFCURVE",
"1260 346 OFFCURVE",
"1036 346 QCURVE SMOOTH",
"812 346 OFFCURVE",
"654 488 OFFCURVE",
"654 618 QCURVE SMOOTH",
"654 636 LINE",
"86 636 LINE",
"86 596 LINE SMOOTH",
"86 296 OFFCURVE",
"564 -16 OFFCURVE",
"1036 -16 QCURVE SMOOTH"
);
}
);
width = 2173;
},
{
anchors = (
{
name = bottom;
position = "{908, 0}";
},
{
name = top;
position = "{1486, 1350}";
}
);
layerId = "71977205-6510-4B11-BB00-17BACA883C8F";
paths = (
{
closed = 1;
nodes = (
"1160 -17 OFFCURVE",
"1496 291 OFFCURVE",
"1496 629 QCURVE SMOOTH",
"1496 1350 LINE",
"1474 1350 LINE",
"1474 631 LINE SMOOTH",
"1474 301 OFFCURVE",
"1152 5 OFFCURVE",
"813 5 QCURVE SMOOTH",
"473 5 OFFCURVE",
"151 282 OFFCURVE",
"151 590 QCURVE SMOOTH",
"151 609 LINE",
"129 609 LINE",
"129 583 LINE SMOOTH",
"129 268 OFFCURVE",
"463 -17 OFFCURVE",
"813 -17 QCURVE SMOOTH"
);
}
);
width = 1817;
},
{
anchors = (
{
name = bottom;
position = "{707, 0}";
},
{
name = top;
position = "{1608, 1350}";
}
);
layerId = "5997A0D0-E78E-41EC-9011-DECBEAD8517D";
paths = (
{
closed = 1;
nodes = (
"1044 -17 OFFCURVE",
"1429 291 OFFCURVE",
"1489 629 QCURVE SMOOTH",
"1617 1350 LINE",
"1595 1350 LINE",
"1468 631 LINE SMOOTH",
"1410 301 OFFCURVE",
"1035 5 OFFCURVE",
"696 5 QCURVE SMOOTH",
"356 5 OFFCURVE",
"89 281 OFFCURVE",
"138 590 QCURVE SMOOTH",
"141 609 LINE",
"119 609 LINE",
"115 583 LINE SMOOTH",
"66 267 OFFCURVE",
"347 -17 OFFCURVE",
"697 -17 QCURVE SMOOTH"
);
}
);
width = 1817;
},
{
anchors = (
{
name = bottom;
position = "{271, 0}";
},
{
name = top;
position = "{689, 1350}";
}
);
layerId = "55C4185A-9C39-4468-B19C-DE0A3E571700";
paths = (
{
closed = 1;
nodes = (
"449 -8 OFFCURVE",
"640 100 OFFCURVE",
"665 240 QCURVE SMOOTH",
"861 1350 LINE",
"517 1350 LINE",
"336 324 LINE SMOOTH",
"329 282 OFFCURVE",
"321 238 OFFCURVE",
"309 238 QCURVE SMOOTH",
"297 238 OFFCURVE",
"305 282 OFFCURVE",
"312 324 QCURVE SMOOTH",
"356 572 LINE",
"12 572 LINE",
"-47 240 LINE SMOOTH",
"-71 104 OFFCURVE",
"91 -8 OFFCURVE",
"267 -8 QCURVE SMOOTH"
);
}
);
width = 736;
},
{
anchors = (
{
name = bottom;
position = "{-1, 0}";
},
{
name = top;
position = "{281, 1350}";
}
);
layerId = "4F53612F-C4F8-4368-83AD-8913BEEF8F1D";
paths = (
{
closed = 1;
nodes = (
"23 -8 OFFCURVE",
"68 72 OFFCURVE",
"84 164 QCURVE SMOOTH",
"292 1350 LINE",
"270 1350 LINE",
"62 164 LINE SMOOTH",
"48 84 OFFCURVE",
"17 14 OFFCURVE",
"-4 14 QCURVE SMOOTH",
"-24 14 OFFCURVE",
"-31 82 OFFCURVE",
"-16 164 QCURVE SMOOTH",
"64 614 LINE",
"42 614 LINE",
"-38 164 LINE SMOOTH",
"-54 72 OFFCURVE",
"-40 -8 OFFCURVE",
"-6 -8 QCURVE SMOOTH"
);
}
);
width = 186;
},
{
anchors = (
{
name = bottom;
position = "{992, 0}";
},
{
name = top;
position = "{1828, 1350}";
}
);
layerId = "E5A4176B-9C10-4B01-BBC9-D7999ECBFAF8";
paths = (
{
closed = 1;
nodes = (
"1382 -16 OFFCURVE",
"1917 290 OFFCURVE",
"1962 544 QCURVE SMOOTH",
"2104 1350 LINE",
"1538 1350 LINE",
"1405 592 LINE SMOOTH",
"1383 469 OFFCURVE",
"1193 346 OFFCURVE",
"969 346 QCURVE SMOOTH",
"745 346 OFFCURVE",
"606 489 OFFCURVE",
"635 618 QCURVE SMOOTH",
"639 636 LINE",
"71 636 LINE",
"63 596 LINE SMOOTH",
"3 297 OFFCURVE",
"434 -16 OFFCURVE",
"906 -16 QCURVE SMOOTH"
);
}
);
width = 2173;
}
);
leftKerningGroup = J;
note = J;
rightKerningGroup = J;
unicode = 004A;
},
{
glyphname = J.ss01;
lastChange = "2020-04-16 18:03:22 +0000";
layers = (
{
components = (
{
name = J;
}
);
layerId = "A1A0948C-E637-4A65-8CCC-05505AD98C44";
paths = (
{
closed = 1;
nodes = (
"30 1328 LINE",
"148 1328 LINE",
"148 1350 LINE",
"30 1350 LINE"
);
}
);
width = 186;
},
{
components = (
{
name = J;
}
);
layerId = "BA0CA162-2A9B-49EE-921D-3B4346C7D39F";
paths = (
{
closed = 1;
nodes = (
"32 1096 LINE",
"714 1096 LINE",
"724 1350 LINE",
"32 1350 LINE"
);
}
);
width = 736;
},
{
components = (
{
name = J;
}
);
layerId = "71977205-6510-4B11-BB00-17BACA883C8F";
paths = (
{
closed = 1;
nodes = (
"135 1328 LINE",
"1496 1328 LINE",
"1496 1350 LINE",
"135 1350 LINE"
);
}
);
width = 1817;
},
{
components = (
{
name = J;
}
);
layerId = "C75D3228-2D13-4E9D-9829-45195F4951D0";
paths = (
{
closed = 1;
nodes = (
"91 988 LINE",
"1965 988 LINE",
"1994 1350 LINE",
"91 1350 LINE"
);
}
);
width = 2173;
},
{
components = (
{
name = J;
}
);
layerId = "4F53612F-C4F8-4368-83AD-8913BEEF8F1D";
paths = (
{
closed = 1;
nodes = (
"170 1328 LINE",
"286 1328 LINE",
"292 1350 LINE",
"174 1350 LINE"
);
}
);
width = 186;
},
{
components = (
{
name = J;
}
);
layerId = "55C4185A-9C39-4468-B19C-DE0A3E571700";
paths = (
{
closed = 1;
nodes = (
"125 1096 LINE",
"807 1096 LINE",
"861 1350 LINE",
"169 1350 LINE"
);
}
);
width = 736;
},
{
components = (
{
name = J;
}
);
layerId = "5997A0D0-E78E-41EC-9011-DECBEAD8517D";
paths = (
{
closed = 1;
nodes = (
"252 1328 LINE",
"1611 1328 LINE",
"1617 1350 LINE",
"256 1350 LINE"
);
}
);
width = 1817;
},
{
components = (
{
name = J;
}
);
layerId = "E5A4176B-9C10-4B01-BBC9-D7999ECBFAF8";
paths = (
{
closed = 1;
nodes = (
"137 988 LINE",
"2011 988 LINE",
"2104 1350 LINE",
"201 1350 LINE"
);
}
);
width = 2173;
}
);
leftKerningGroup = U;
rightKerningGroup = U;
},
{
glyphname = K;
lastChange = "2020-04-16 21:11:17 +0000";
layers = (
{
anchors = (
{
name = bottom;
position = "{99, 0}";
},
{
name = top;
position = "{99, 1350}";
}
);
layerId = "A1A0948C-E637-4A65-8CCC-05505AD98C44";
paths = (
{
closed = 1;
nodes = (
"50 0 LINE",
"50 670 LINE",
"140 0 LINE",
"162 0 LINE",
"72 674 LINE",
"162 1350 LINE",
"140 1350 LINE",
"50 678 LINE",
"50 1350 LINE",
"28 1350 LINE",
"28 0 LINE"
);
}
);
width = 188;
},
{
anchors = (
{
name = bottom;
position = "{384, 0}";
},
{
name = top;
position = "{384, 1350}";
}
);
layerId = "BA0CA162-2A9B-49EE-921D-3B4346C7D39F";
paths = (
{
closed = 1;
nodes = (
"356 0 LINE",
"356 556 LINE",
"408 0 LINE",
"756 0 LINE",
"662 674 LINE",
"756 1350 LINE",
"408 1350 LINE",
"356 792 LINE",
"356 1350 LINE",
"12 1350 LINE",
"12 0 LINE"
);
}
);
width = 764;
},
{
anchors = (
{
name = bottom;
position = "{998, 0}";
},
{
name = top;
position = "{998, 1350}";
}
);
layerId = "C75D3228-2D13-4E9D-9829-45195F4951D0";
paths = (
{
closed = 1;
nodes = (
"704 0 LINE",
"704 550 LINE",
"1356 0 LINE",
"2024 0 LINE",
"1219 674 LINE",
"2024 1350 LINE",
"1356 1350 LINE",
"704 799 LINE",
"704 1350 LINE",
"140 1350 LINE",
"140 0 LINE"
);
}
);
width = 2048;
},
{
anchors = (
{
name = bottom;
position = "{788, 0}";
},
{
name = top;
position = "{788, 1350}";
}
);
layerId = "71977205-6510-4B11-BB00-17BACA883C8F";
paths = (
{
closed = 1;
nodes = (
"172 0 LINE",
"172 664 LINE",
"1437 0 LINE",
"1485 0 LINE",
"201 674 LINE",
"1476 1350 LINE",
"1428 1350 LINE",
"172 684 LINE",
"172 1350 LINE",
"150 1350 LINE",
"150 0 LINE"
);
}
);
width = 1631;
},
{
anchors = (
{
name = bottom;
position = "{596, 0}";
},
{
name = top;
position = "{835, 1350}";
}
);
layerId = "5997A0D0-E78E-41EC-9011-DECBEAD8517D";
paths = (
{
closed = 1;
nodes = (
"53 0 LINE",
"170 664 LINE",
"1320 0 LINE",
"1366 0 LINE",
"201 674 LINE",
"1595 1350 LINE",
"1545 1350 LINE",
"174 685 LINE",
"291 1350 LINE",
"269 1350 LINE",
"31 0 LINE"
);
}
);
width = 1631;
},
{
anchors = (
{
name = bottom;
position = "{287, 0}";
},
{
name = top;
position = "{526, 1350}";
}
);
layerId = "55C4185A-9C39-4468-B19C-DE0A3E571700";
paths = (
{
closed = 1;
nodes = (
"254 0 LINE",
"352 556 LINE",
"306 0 LINE",
"649 0 LINE",
"679 674 LINE",
"897 1350 LINE",
"544 1350 LINE",
"394 792 LINE",
"492 1350 LINE",
"148 1350 LINE",
"-90 0 LINE"
);
}
);
width = 764;
},
{
anchors = (
{
name = bottom;
position = "{2, 0}";
},
{
name = top;
position = "{241, 1350}";
}
);
layerId = "4F53612F-C4F8-4368-83AD-8913BEEF8F1D";
paths = (
{
closed = 1;
nodes = (
"-46 0 LINE",
"73 672 LINE",
"44 0 LINE",
"66 0 LINE",
"95 676 LINE",
"304 1350 LINE",
"281 1350 LINE",
"75 686 LINE",
"192 1350 LINE",
"170 1350 LINE",
"-68 0 LINE"
);
}
);
width = 185;
},
{
anchors = (
{
name = bottom;
position = "{957, 0}";
},
{
name = top;
position = "{1196, 1350}";
}
);
layerId = "E5A4176B-9C10-4B01-BBC9-D7999ECBFAF8";
paths = (
{
closed = 1;
nodes = (
"606 0 LINE",
"703 550 LINE",
"1258 0 LINE",
"1926 0 LINE",
"1240 664 LINE",
"2164 1350 LINE",
"1486 1350 LINE",
"747 799 LINE",
"844 1350 LINE",
"280 1350 LINE",
"42 0 LINE"
);
}
);
width = 2082;
}
);
leftKerningGroup = H;
leftMetricsKey = H;
note = K;
rightKerningGroup = K;
unicode = 004B;
},
{
glyphname = L;
lastChange = "2020-04-16 14:44:36 +0000";
layers = (
{
anchors = (
{
name = bottom;
position = "{82, 0}";
},
{
name = center;
position = "{82, 675}";
},
{
name = top;
position = "{82, 1350}";
},
{
name = topright;
position = "{144, 1350}";
}
);
layerId = "A1A0948C-E637-4A65-8CCC-05505AD98C44";
paths = (
{
closed = 1;
nodes = (
"126 0 LINE",
"126 22 LINE",
"50 22 LINE",
"50 1350 LINE",
"28 1350 LINE",
"28 0 LINE"
);
}
);
width = 140;
},
{
anchors = (
{
name = bottom;
position = "{248, 0}";
},
{
name = center;
position = "{248, 675}";
},
{
name = top;
position = "{248, 1350}";
},
{
name = topright;
position = "{476, 1350}";
}
);
layerId = "BA0CA162-2A9B-49EE-921D-3B4346C7D39F";
paths = (
{
closed = 1;
nodes = (
"494 0 LINE",
"494 250 LINE",
"360 250 LINE",
"360 1350 LINE",
"12 1350 LINE",
"12 0 LINE"
);
}
);
width = 506;
},
{
anchors = (
{
name = bottom;
position = "{861, 0}";
},
{
name = center;
position = "{861, 675}";
},
{
name = top;
position = "{861, 1350}";
},
{
name = topright;
position = "{1684, 1350}";
}
);
layerId = "C75D3228-2D13-4E9D-9829-45195F4951D0";
paths = (
{
closed = 1;
nodes = (
"1594 0 LINE",
"1594 362 LINE",
"706 362 LINE",
"706 1350 LINE",
"140 1350 LINE",
"140 0 LINE"
);
}
);
width = 1704;
},
{
anchors = (
{
name = bottom;
position = "{787, 0}";
},
{
name = center;
position = "{787, 675}";
},
{
name = top;
position = "{787, 1350}";
},
{
name = topright;
position = "{1577, 1350}";
}
);
layerId = "71977205-6510-4B11-BB00-17BACA883C8F";
paths = (
{
closed = 1;
nodes = (
"1396 0 LINE",
"1396 22 LINE",
"172 22 LINE",
"172 1350 LINE",
"150 1350 LINE",
"150 0 LINE"
);
}
);
width = 1597;
},
{
anchors = (
{
name = bottom;
position = "{637, 0}";
},
{
name = center;
position = "{757, 675}";
},
{
name = top;
position = "{876, 1350}";
},
{
name = topright;
position = "{1571, 1350}";
}
);
layerId = "5997A0D0-E78E-41EC-9011-DECBEAD8517D";
paths = (
{
closed = 1;
nodes = (
"1277 0 LINE",
"1281 22 LINE",
"57 22 LINE",
"291 1350 LINE",
"269 1350 LINE",
"31 0 LINE"
);
}
);
width = 1587;
},
{
anchors = (
{
name = bottom;
position = "{153, 0}";
},
{
name = center;
position = "{273, 675}";
},
{
name = top;
position = "{392, 1350}";
},
{
name = topright;
position = "{621, 1350}";
}
);
layerId = "55C4185A-9C39-4468-B19C-DE0A3E571700";
paths = (
{
closed = 1;
nodes = (
"392 0 LINE",
"436 250 LINE",
"302 250 LINE",
"496 1350 LINE",
"148 1350 LINE",
"-90 0 LINE"
);
}
);
width = 505;
},
{
anchors = (
{
name = bottom;
position = "{-15, 0}";
},
{
name = center;
position = "{105, 675}";
},
{
name = top;
position = "{224, 1350}";
},
{
name = topright;
position = "{286, 1350}";
}
);
layerId = "4F53612F-C4F8-4368-83AD-8913BEEF8F1D";
paths = (
{
closed = 1;
nodes = (
"30 0 LINE",
"34 22 LINE",
"-42 22 LINE",
"194 1350 LINE",
"172 1350 LINE",
"-68 0 LINE"
);
}
);
width = 138;
},
{
anchors = (
{
name = bottom;
position = "{806, 0}";
},
{
name = center;
position = "{926, 675}";
},
{
name = top;
position = "{1045, 1350}";
},
{
name = topright;
position = "{1868, 1350}";
}
);
layerId = "E5A4176B-9C10-4B01-BBC9-D7999ECBFAF8";
paths = (
{
closed = 1;
nodes = (
"1494 0 LINE",
"1558 362 LINE",
"670 362 LINE",
"846 1350 LINE",
"280 1350 LINE",
"42 0 LINE"
);
}
);
width = 1744;
}
);
leftKerningGroup = H;
leftMetricsKey = H;
note = L;
rightKerningGroup = L;
unicode = 004C;
},
{
glyphname = Lcaron;
layers = (
{
components = (
{
name = L;
}
);
layerId = "A1A0948C-E637-4A65-8CCC-05505AD98C44";
paths = (
{
closed = 1;
nodes = (
"144 1148 LINE",
"174 1348 LINE",
"150 1348 LINE",
"124 1148 LINE"
);
}
);
width = 212;
},
{
components = (
{
name = L;
}
);
layerId = "BA0CA162-2A9B-49EE-921D-3B4346C7D39F";
paths = (
{
closed = 1;
nodes = (
"642 1008 LINE",
"722 1348 LINE",
"498 1348 LINE",
"422 1008 LINE"
);
}
);
width = 734;
},
{
components = (
{
name = L;
}
);
layerId = "C75D3228-2D13-4E9D-9829-45195F4951D0";
paths = (
{
closed = 1;
nodes = (
"1684 890 LINE",
"1854 1348 LINE",
"1498 1348 LINE",
"1368 890 LINE"
);
}
);
width = 1664;
},
{
components = (
{
name = L;
}
);
layerId = "71977205-6510-4B11-BB00-17BACA883C8F";
paths = (
{
closed = 1;
nodes = (
"1398 1123 LINE",
"1490 1348 LINE",
"1463 1348 LINE",
"1372 1123 LINE"
);
}
);
width = 1370;
},
{
components = (
{
name = L;
}
);
layerId = "5997A0D0-E78E-41EC-9011-DECBEAD8517D";
paths = (
{
closed = 1;
nodes = (
"1294 1126 LINE",
"1530 1348 LINE",
"1502 1348 LINE",
"1268 1126 LINE"
);
}
);
width = 1370;
},
{
components = (
{
name = L;
}
);
layerId = "55C4185A-9C39-4468-B19C-DE0A3E571700";
paths = (
{
closed = 1;
nodes = (
"722 1008 LINE",
"864 1348 LINE",
"638 1348 LINE",
"498 1008 LINE"
);
}
);
width = 736;
},
{
components = (
{
name = L;
}
);
layerId = "4F53612F-C4F8-4368-83AD-8913BEEF8F1D";
paths = (
{
closed = 1;
nodes = (
"242 1148 LINE",
"306 1348 LINE",
"282 1348 LINE",
"222 1148 LINE"
);
}
);
width = 200;
},
{
components = (
{
name = L;
}
);
layerId = "E5A4176B-9C10-4B01-BBC9-D7999ECBFAF8";
paths = (
{
closed = 1;
nodes = (
"1708 890 LINE",
"1956 1348 LINE",
"1592 1348 LINE",
"1382 890 LINE"
);
}
);
width = 1664;
}
);
leftKerningGroup = H;
rightKerningGroup = L;
unicode = 013D;
},
{
glyphname = Lslash;
lastChange = "2020-04-16 14:36:36 +0000";
layers = (
{
components = (
{
alignment = -1;
name = L;
transform = "{1, 0, 0, 1, 56, 0}";
}
);
layerId = "A1A0948C-E637-4A65-8CCC-05505AD98C44";
paths = (
{
closed = 1;
nodes = (
"177 856 LINE",
"159 869 LINE",
"7 475 LINE",
"25 462 LINE"
);
}
);
width = 220;
},
{
components = (
{
alignment = -1;
name = L;
transform = "{1, 0, 0, 1, 76, 0}";
}
);
layerId = "BA0CA162-2A9B-49EE-921D-3B4346C7D39F";
paths = (
{
closed = 1;
nodes = (
"593 795 LINE",
"498 953 LINE",
"-46 590 LINE",
"49 430 LINE"
);
}
);
width = 572;
},
{
components = (
{
alignment = -1;
name = L;
transform = "{1, 0, 0, 1, 106, 0}";
}
);
layerId = "C75D3228-2D13-4E9D-9829-45195F4951D0";
paths = (
{
closed = 1;
nodes = (
"1121 747 LINE",
"1008 1038 LINE",
"-8 608 LINE",
"105 317 LINE"
);
}
);
width = 1836;
},
{
components = (
{
alignment = -1;
name = L;
transform = "{1, 0, 0, 1, 99, 0}";
}
);
layerId = "71977205-6510-4B11-BB00-17BACA883C8F";
paths = (
{
closed = 1;
nodes = (
"783 933 LINE",
"770 951 LINE",
"6 413 LINE",
"19 395 LINE"
);
}
);
width = 1747;
},
{
components = (
{
alignment = -1;
name = L;
transform = "{1, 0, 0, 1, 94, 0}";
}
);
layerId = "5997A0D0-E78E-41EC-9011-DECBEAD8517D";
paths = (
{
closed = 1;
nodes = (
"829 933 LINE",
"819 951 LINE",
"-40 413 LINE",
"-30 395 LINE"
);
}
);
width = 1548;
},
{
components = (
{
alignment = -1;
name = L;
transform = "{1, 0, 0, 1, 68, 0}";
}
);
layerId = "55C4185A-9C39-4468-B19C-DE0A3E571700";
paths = (
{
closed = 1;
nodes = (
"611 795 LINE",
"544 953 LINE",
"-64 590 LINE",
"3 430 LINE"
);
}
);
width = 568;
},
{
components = (
{
alignment = -1;
name = L;
transform = "{1, 0, 0, 1, 70, 0}";
}
);
layerId = "4F53612F-C4F8-4368-83AD-8913BEEF8F1D";
paths = (
{
closed = 1;
nodes = (
"248 856 LINE",
"232 869 LINE",
"10 475 LINE",
"26 462 LINE"
);
}
);
width = 234;
},
{
components = (
{
alignment = -1;
name = L;
transform = "{1, 0, 0, 1, 106, 0}";
}
);
layerId = "E5A4176B-9C10-4B01-BBC9-D7999ECBFAF8";
paths = (
{
closed = 1;
nodes = (
"1133 747 LINE",
"1072 1038 LINE",
"-20 608 LINE",
"41 317 LINE"
);
}
);
width = 1836;
}
);
leftKerningGroup = H;
rightKerningGroup = L;
unicode = 0141;
},
{
glyphname = M;
lastChange = "2020-04-15 20:28:29 +0000";
layers = (
{
anchors = (
{
name = bottom;
position = "{140, 0}";
},
{
name = top;
position = "{140, 1350}";
}
);
layerId = "A1A0948C-E637-4A65-8CCC-05505AD98C44";
paths = (
{
closed = 1;
nodes = (
"50 0 LINE",
"50 1328 LINE",
"58 1328 LINE",
"112 124 LINE",
"158 124 LINE",
"212 1328 LINE",
"220 1328 LINE",
"220 0 LINE",
"242 0 LINE",
"242 1350 LINE",
"192 1350 LINE",
"138 142 LINE",
"132 142 LINE",
"78 1350 LINE",
"28 1350 LINE",
"28 0 LINE"
);
}
);
width = 282;
},
{
anchors = (
{
name = bottom;
position = "{604, 0}";
},
{
name = top;
position = "{604, 1350}";
}
);
layerId = "BA0CA162-2A9B-49EE-921D-3B4346C7D39F";
paths = (
{
closed = 1;
nodes = (
"354 0 LINE",
"354 1098 LINE",
"358 1098 LINE",
"418 0 LINE",
"790 0 LINE",
"850 1098 LINE",
"854 1098 LINE",
"854 0 LINE",
"1196 0 LINE",
"1196 1350 LINE",
"646 1350 LINE",
"606 268 LINE",
"602 268 LINE",
"562 1350 LINE",
"12 1350 LINE",
"12 0 LINE"
);
}
);
width = 1208;
},
{
anchors = (
{
name = bottom;
position = "{1386, 0}";
},
{
name = top;
position = "{1386, 1350}";
}
);
layerId = "C75D3228-2D13-4E9D-9829-45195F4951D0";
paths = (
{
closed = 1;
nodes = (
"700 0 LINE",
"700 974 LINE",
"702 974 LINE",
"1040 10 LINE",
"1720 10 LINE",
"2058 974 LINE",
"2060 974 LINE",
"2060 0 LINE",
"2620 0 LINE",
"2620 1350 LINE",
"1704 1350 LINE",
"1372 364 LINE",
"1388 364 LINE",
"1056 1350 LINE",
"140 1350 LINE",
"140 0 LINE"
);
}
);
width = 2815;
},
{
anchors = (
{
name = bottom;
position = "{1095, 0}";
},
{
name = top;
position = "{1095, 1350}";
}
);
layerId = "71977205-6510-4B11-BB00-17BACA883C8F";
paths = (
{
closed = 1;
nodes = (
"172 0 LINE",
"172 1333 LINE",
"173 1333 LINE",
"1076 122 LINE",
"1111 122 LINE",
"2014 1333 LINE",
"2015 1333 LINE",
"2015 0 LINE",
"2037 0 LINE",
"2037 1350 LINE",
"1998 1350 LINE",
"1095 140 LINE",
"1092 140 LINE",
"189 1350 LINE",
"150 1350 LINE",
"150 0 LINE"
);
}
);
width = 2309;
},
{
anchors = (
{
name = bottom;
position = "{901, 0}";
},
{
name = top;
position = "{1140, 1350}";
}
);
layerId = "5997A0D0-E78E-41EC-9011-DECBEAD8517D";
paths = (
{
closed = 1;
nodes = (
"53 0 LINE",
"288 1333 LINE",
"289 1333 LINE",
"978 122 LINE",
"1013 122 LINE",
"2130 1333 LINE",
"2131 1333 LINE",
"1896 0 LINE",
"1918 0 LINE",
"2156 1350 LINE",
"2114 1350 LINE",
"998 140 LINE",
"995 140 LINE",
"305 1350 LINE",
"269 1350 LINE",
"31 0 LINE"
);
}
);
width = 2309;
},
{
anchors = (
{
name = bottom;
position = "{496, 0}";
},
{
name = top;
position = "{735, 1350}";
}
);
layerId = "55C4185A-9C39-4468-B19C-DE0A3E571700";
paths = (
{
closed = 1;
nodes = (
"252 0 LINE",
"446 1098 LINE",
"450 1098 LINE",
"316 0 LINE",
"688 0 LINE",
"942 1098 LINE",
"946 1098 LINE",
"752 0 LINE",
"1094 0 LINE",
"1332 1350 LINE",
"777 1350 LINE",
"546 268 LINE",
"542 268 LINE",
"693 1350 LINE",
"148 1350 LINE",
"-90 0 LINE"
);
}
);
width = 1208;
},
{
anchors = (
{
name = bottom;
position = "{46, 0}";
},
{
name = top;
position = "{285, 1350}";
}
);
layerId = "4F53612F-C4F8-4368-83AD-8913BEEF8F1D";
paths = (
{
closed = 1;
nodes = (
"-45 0 LINE",
"189 1328 LINE",
"197 1328 LINE",
"39 124 LINE",
"85 124 LINE",
"351 1328 LINE",
"359 1328 LINE",
"125 0 LINE",
"147 0 LINE",
"384 1350 LINE",
"334 1350 LINE",
"68 142 LINE",
"62 142 LINE",
"220 1350 LINE",
"170 1350 LINE",
"-67 0 LINE"
);
}
);
width = 281;
},
{
anchors = (
{
name = bottom;
position = "{1312, 0}";
},
{
name = top;
position = "{1551, 1350}";
}
);
layerId = "E5A4176B-9C10-4B01-BBC9-D7999ECBFAF8";
paths = (
{
closed = 1;
nodes = (
"602 0 LINE",
"774 974 LINE",
"776 974 LINE",
"944 10 LINE",
"1624 10 LINE",
"2132 974 LINE",
"2134 974 LINE",
"1962 0 LINE",
"2522 0 LINE",
"2760 1350 LINE",
"1834 1350 LINE",
"1328 364 LINE",
"1344 364 LINE",
"1186 1350 LINE",
"280 1350 LINE",
"42 0 LINE"
);
}
);
width = 2817;
}
);
leftKerningGroup = H;
leftMetricsKey = H;
note = M;
rightKerningGroup = H;
rightMetricsKey = H;
unicode = 004D;
},
{
glyphname = N;
lastChange = "2020-04-16 14:39:29 +0000";
layers = (
{
anchors = (
{
name = bottom;
position = "{105, 0}";
},
{
name = top;
position = "{105, 1350}";
}
);
layerId = "A1A0948C-E637-4A65-8CCC-05505AD98C44";
paths = (
{
closed = 1;
nodes = (
"50 0 LINE",
"50 1328 LINE",
"56 1328 LINE",
"124 0 LINE",
"172 0 LINE",
"172 1350 LINE",
"150 1350 LINE",
"150 22 LINE",
"144 22 LINE",
"76 1350 LINE",
"28 1350 LINE",
"28 0 LINE"
);
}
);
width = 212;
},
{
anchors = (
{
name = bottom;
position = "{480, 0}";
},
{
name = top;
position = "{480, 1350}";
}
);
layerId = "BA0CA162-2A9B-49EE-921D-3B4346C7D39F";
paths = (
{
closed = 1;
nodes = (
"354 0 LINE",
"354 1096 LINE",
"360 1096 LINE",
"404 0 LINE",
"948 0 LINE",
"948 1350 LINE",
"604 1350 LINE",
"596 264 LINE",
"591 264 LINE",
"546 1350 LINE",
"12 1350 LINE",
"12 0 LINE"
);
}
);
width = 960;
},
{
anchors = (
{
name = bottom;
position = "{1245, 0}";
},
{
name = top;
position = "{1245, 1350}";
}
);
layerId = "C75D3228-2D13-4E9D-9829-45195F4951D0";
paths = (
{
closed = 1;
nodes = (
"706 0 LINE",
"706 1186 LINE",
"590 1186 LINE",
"1410 0 LINE",
"2320 0 LINE",
"2320 1350 LINE",
"1754 1350 LINE",
"1754 164 LINE",
"1894 164 LINE",
"1074 1350 LINE",
"140 1350 LINE",
"140 0 LINE"
);
}
);
width = 2515;
},
{
anchors = (
{
name = bottom;
position = "{985, 0}";
},
{
name = top;
position = "{985, 1350}";
}
);
layerId = "71977205-6510-4B11-BB00-17BACA883C8F";
paths = (
{
closed = 1;
nodes = (
"172 0 LINE",
"172 1344 LINE",
"166 1344 LINE",
"1705 0 LINE",
"1746 0 LINE",
"1746 1350 LINE",
"1724 1350 LINE",
"1724 6 LINE",
"1729 6 LINE",
"190 1350 LINE",
"150 1350 LINE",
"150 0 LINE"
);
}
);
width = 2018;
},
{
anchors = (
{
name = bottom;
position = "{787, 0}";
},
{
name = top;
position = "{1026, 1350}";
}
);
layerId = "5997A0D0-E78E-41EC-9011-DECBEAD8517D";
paths = (
{
closed = 1;
nodes = (
"53 0 LINE",
"290 1344 LINE",
"284 1344 LINE",
"1584 0 LINE",
"1627 0 LINE",
"1865 1350 LINE",
"1843 1350 LINE",
"1606 6 LINE",
"1611 6 LINE",
"311 1350 LINE",
"269 1350 LINE",
"31 0 LINE"
);
}
);
width = 2018;
},
{
anchors = (
{
name = bottom;
position = "{384, 0}";
},
{
name = top;
position = "{623, 1350}";
}
);
layerId = "55C4185A-9C39-4468-B19C-DE0A3E571700";
paths = (
{
closed = 1;
nodes = (
"252 0 LINE",
"445 1096 LINE",
"451 1096 LINE",
"302 0 LINE",
"846 0 LINE",
"1084 1350 LINE",
"740 1350 LINE",
"541 264 LINE",
"536 264 LINE",
"682 1350 LINE",
"148 1350 LINE",
"-90 0 LINE"
);
}
);
width = 960;
},
{
anchors = (
{
name = bottom;
position = "{9, 0}";
},
{
name = top;
position = "{248, 1350}";
}
);
layerId = "4F53612F-C4F8-4368-83AD-8913BEEF8F1D";
paths = (
{
closed = 1;
nodes = (
"-46 0 LINE",
"188 1328 LINE",
"194 1328 LINE",
"28 0 LINE",
"76 0 LINE",
"314 1350 LINE",
"292 1350 LINE",
"58 22 LINE",
"52 22 LINE",
"218 1350 LINE",
"170 1350 LINE",
"-68 0 LINE"
);
}
);
width = 210;
},
{
anchors = (
{
name = bottom;
position = "{1192, 0}";
},
{
name = top;
position = "{1431, 1350}";
}
);
layerId = "E5A4176B-9C10-4B01-BBC9-D7999ECBFAF8";
paths = (
{
closed = 1;
nodes = (
"608 0 LINE",
"817 1186 LINE",
"711 1186 LINE",
"1332 0 LINE",
"2222 0 LINE",
"2460 1350 LINE",
"1894 1350 LINE",
"1685 164 LINE",
"1825 164 LINE",
"1194 1350 LINE",
"280 1350 LINE",
"42 0 LINE"
);
}
);
width = 2517;
}
);
leftKerningGroup = H;
leftMetricsKey = H;
note = N;
rightKerningGroup = H;
rightMetricsKey = H;
unicode = 004E;
},
{
glyphname = Eng;
lastChange = "2020-04-15 14:34:04 +0000";
layers = (
{
components = (
{
name = N;
}
);
layerId = "A1A0948C-E637-4A65-8CCC-05505AD98C44";
paths = (
{
closed = 1;
nodes = (
"170 -400 OFFCURVE",
"180 -193 OFFCURVE",
"180 0 CURVE",
"158 0 LINE",
"158 -193 OFFCURVE",
"152 -378 OFFCURVE",
"76 -378 CURVE",
"76 -400 LINE"
);
}
);
width = 220;
},
{
components = (
{
name = N;
}
);
layerId = "BA0CA162-2A9B-49EE-921D-3B4346C7D39F";
paths = (
{
closed = 1;
nodes = (
"638 -440 OFFCURVE",
"948 -388 OFFCURVE",
"948 0 CURVE",
"594 0 LINE",
"596 -158 OFFCURVE",
"530 -198 OFFCURVE",
"390 -198 CURVE",
"390 -440 LINE"
);
}
);
width = 960;
},
{
components = (
{
name = N;
}
);
layerId = "C75D3228-2D13-4E9D-9829-45195F4951D0";
paths = (
{
closed = 1;
nodes = (
"1878 -490 OFFCURVE",
"2318 -372 OFFCURVE",
"2318 0 CURVE",
"1730 0 LINE",
"1730 -76 OFFCURVE",
"1672 -142 OFFCURVE",
"1298 -142 CURVE",
"1298 -490 LINE"
);
}
);
width = 2515;
},
{
components = (
{
name = N;
}
);
layerId = "71977205-6510-4B11-BB00-17BACA883C8F";
paths = (
{
closed = 1;
nodes = (
"1603 -462 OFFCURVE",
"1746 -329 OFFCURVE",
"1746 0 CURVE",
"1724 0 LINE",
"1724 -277 OFFCURVE",
"1629 -440 OFFCURVE",
"1163 -440 CURVE",
"1163 -462 LINE"
);
}
);
width = 2018;
},
{
components = (
{
name = N;
}
);
layerId = "5997A0D0-E78E-41EC-9011-DECBEAD8517D";
paths = (
{
closed = 1;
nodes = (
"1419 -460 OFFCURVE",
"1575 -292 OFFCURVE",
"1627 0 CURVE",
"1605 0 LINE",
"1563 -244 OFFCURVE",
"1441 -438 OFFCURVE",
"1027 -438 CURVE",
"1023 -460 LINE"
);
}
);
width = 2018;
},
{
components = (
{
name = N;
}
);
layerId = "55C4185A-9C39-4468-B19C-DE0A3E571700";
paths = (
{
closed = 1;
nodes = (
"460 -440 OFFCURVE",
"776 -395 OFFCURVE",
"846 0 CURVE",
"492 0 LINE",
"466 -158 OFFCURVE",
"396 -198 OFFCURVE",
"256 -198 CURVE",
"212 -440 LINE"
);
}
);
width = 960;
},
{
components = (
{
name = N;
}
);
layerId = "4F53612F-C4F8-4368-83AD-8913BEEF8F1D";
paths = (
{
closed = 1;
nodes = (
"10 -400 OFFCURVE",
"74 -46 OFFCURVE",
"82 0 CURVE",
"60 0 LINE",
"44 -92 OFFCURVE",
"-24 -378 OFFCURVE",
"-90 -378 CURVE",
"-94 -400 LINE"
);
}
);
width = 216;
},
{
components = (
{
name = N;
}
);
layerId = "E5A4176B-9C10-4B01-BBC9-D7999ECBFAF8";
paths = (
{
closed = 1;
nodes = (
"1696 -490 OFFCURVE",
"2157 -372 OFFCURVE",
"2222 0 CURVE",
"1634 0 LINE",
"1621 -76 OFFCURVE",
"1551 -142 OFFCURVE",
"1177 -142 CURVE",
"1116 -490 LINE"
);
}
);
width = 2517;
}
);
leftKerningGroup = N;
leftMetricsKey = N;
rightKerningGroup = N;
rightMetricsKey = N;
unicode = 014A;
},
{
glyphname = O;
layers = (
{
anchors = (
{
name = bottom;
position = "{91, 0}";
},
{
name = center;
position = "{91, 675}";
},
{
name = ogonek;
position = "{92, 0}";
},
{
name = top;
position = "{91, 1350}";
},
{
name = topleft;
position = "{20, 1350}";
},
{
name = topright;
position = "{142, 1216}";
}
);
layerId = "A1A0948C-E637-4A65-8CCC-05505AD98C44";
paths = (
{
closed = 1;
nodes = (
"144 -8 OFFCURVE",
"144 240 OFFCURVE",
"144 674 QCURVE SMOOTH",
"144 1104 OFFCURVE",
"144 1356 OFFCURVE",
"86 1356 QCURVE SMOOTH",
"28 1356 OFFCURVE",
"28 1106 OFFCURVE",
"28 674 QCURVE SMOOTH",
"28 240 OFFCURVE",
"28 -8 OFFCURVE",
"86 -8 QCURVE SMOOTH"
);
},
{
closed = 1;
nodes = (
"50 14 OFFCURVE",
"50 246 OFFCURVE",
"50 674 QCURVE SMOOTH",
"50 1100 OFFCURVE",
"50 1334 OFFCURVE",
"86 1334 QCURVE SMOOTH",
"122 1334 OFFCURVE",
"122 1100 OFFCURVE",
"122 674 QCURVE SMOOTH",
"122 246 OFFCURVE",
"122 14 OFFCURVE",
"86 14 QCURVE SMOOTH"
);
}
);
width = 174;
},
{
anchors = (
{
name = bottom;
position = "{368, 0}";
},
{
name = center;
position = "{368, 675}";
},
{
name = ogonek;
position = "{389, 0}";
},
{
name = top;
position = "{368, 1350}";
},
{
name = topleft;
position = "{20, 1350}";
},
{
name = topright;
position = "{716, 1180}";
}
);
layerId = "BA0CA162-2A9B-49EE-921D-3B4346C7D39F";
paths = (
{
closed = 1;
nodes = (
"724 -8 OFFCURVE",
"724 316 OFFCURVE",
"724 676 QCURVE SMOOTH",
"724 1036 OFFCURVE",
"724 1362 OFFCURVE",
"368 1362 QCURVE SMOOTH",
"12 1362 OFFCURVE",
"12 1036 OFFCURVE",
"12 676 QCURVE SMOOTH",
"12 316 OFFCURVE",
"12 -8 OFFCURVE",
"368 -8 QCURVE SMOOTH"
);
},
{
closed = 1;
nodes = (
"356 246 OFFCURVE",
"356 294 OFFCURVE",
"356 676 QCURVE SMOOTH",
"356 1068 OFFCURVE",
"356 1108 OFFCURVE",
"368 1108 QCURVE SMOOTH",
"380 1108 OFFCURVE",
"380 1068 OFFCURVE",
"380 676 QCURVE SMOOTH",
"380 294 OFFCURVE",
"380 246 OFFCURVE",
"368 246 QCURVE SMOOTH"
);
}
);
width = 736;
},
{
anchors = (
{
name = bottom;
position = "{1130, 0}";
},
{
name = center;
position = "{1130, 675}";
},
{
name = ogonek;
position = "{1152, 0}";
},
{
name = top;
position = "{1130, 1350}";
},
{
name = topleft;
position = "{50, 1350}";
},
{
name = topright;
position = "{1746, 1232}";
}
);
layerId = "C75D3228-2D13-4E9D-9829-45195F4951D0";
paths = (
{
closed = 1;
nodes = (
"1570 -16 OFFCURVE",
"2172 314 OFFCURVE",
"2172 674 QCURVE SMOOTH",
"2172 1034 OFFCURVE",
"1570 1362 OFFCURVE",
"1126 1362 QCURVE SMOOTH",
"682 1362 OFFCURVE",
"80 1034 OFFCURVE",
"80 674 QCURVE SMOOTH",
"80 314 OFFCURVE",
"682 -16 OFFCURVE",
"1126 -16 QCURVE SMOOTH"
);
},
{
closed = 1;
nodes = (
"910 346 OFFCURVE",
"646 512 OFFCURVE",
"646 674 QCURVE SMOOTH",
"646 836 OFFCURVE",
"910 1000 OFFCURVE",
"1126 1000 QCURVE SMOOTH",
"1342 1000 OFFCURVE",
"1606 836 OFFCURVE",
"1606 674 QCURVE SMOOTH",
"1606 512 OFFCURVE",
"1342 346 OFFCURVE",
"1126 346 QCURVE SMOOTH"
);
}
);
width = 2259;
},
{
anchors = (
{
name = bottom;
position = "{1060, 0}";
},
{
name = center;
position = "{1064, 675}";
},
{
name = ogonek;
position = "{1080, 0}";
},
{
name = top;
position = "{1060, 1350}";
},
{
name = topleft;
position = "{118, 1350}";
},
{
name = topright;
position = "{1648, 1224}";
}
);
layerId = "71977205-6510-4B11-BB00-17BACA883C8F";
paths = (
{
closed = 1;
nodes = (
"1458 -8 OFFCURVE",
"1979 341 OFFCURVE",
"1979 676 QCURVE SMOOTH",
"1979 1012 OFFCURVE",
"1458 1363 OFFCURVE",
"1060 1363 QCURVE SMOOTH",
"662 1363 OFFCURVE",
"142 1011 OFFCURVE",
"142 676 QCURVE SMOOTH",
"142 341 OFFCURVE",
"663 -8 OFFCURVE",
"1060 -8 QCURVE SMOOTH"
);
},
{
closed = 1;
nodes = (
"669 14 OFFCURVE",
"166 354 OFFCURVE",
"166 676 QCURVE SMOOTH",
"166 999 OFFCURVE",
"669 1341 OFFCURVE",
"1060 1341 QCURVE SMOOTH",
"1452 1341 OFFCURVE",
"1955 999 OFFCURVE",
"1955 676 QCURVE SMOOTH",
"1955 354 OFFCURVE",
"1452 14 OFFCURVE",
"1060 14 QCURVE SMOOTH"
);
}
);
width = 2173;
},
{
anchors = (
{
name = bottom;
position = "{927, 0}";
},
{
name = center;
position = "{1047, 675}";
},
{
name = ogonek;
position = "{938, 0}";
},
{
name = top;
position = "{1166, 1350}";
},
{
name = topleft;
position = "{248, 1350}";
},
{
name = topright;
position = "{1737, 1224}";
}
);
layerId = "5997A0D0-E78E-41EC-9011-DECBEAD8517D";
paths = (
{
closed = 1;
nodes = (
"1331 -8 OFFCURVE",
"1910 341 OFFCURVE",
"1969 676 QCURVE SMOOTH",
"2028 1012 OFFCURVE",
"1565 1363 OFFCURVE",
"1167 1363 QCURVE SMOOTH",
"769 1363 OFFCURVE",
"191 1011 OFFCURVE",
"132 676 QCURVE SMOOTH",
"73 341 OFFCURVE",
"536 -8 OFFCURVE",
"933 -8 QCURVE SMOOTH"
);
},
{
closed = 1;
nodes = (
"542 14 OFFCURVE",
"99 354 OFFCURVE",
"156 676 QCURVE SMOOTH",
"213 999 OFFCURVE",
"776 1341 OFFCURVE",
"1167 1341 QCURVE SMOOTH",
"1559 1341 OFFCURVE",
"2002 999 OFFCURVE",
"1945 676 QCURVE SMOOTH",
"1888 354 OFFCURVE",
"1325 14 OFFCURVE",
"933 14 QCURVE SMOOTH"
);
}
);
width = 2173;
},
{
anchors = (
{
name = bottom;
position = "{269, 0}";
},
{
name = center;
position = "{389, 675}";
},
{
name = ogonek;
position = "{285, 0}";
},
{
name = top;
position = "{508, 1350}";
},
{
name = topleft;
position = "{162, 1350}";
},
{
name = topright;
position = "{820, 1180}";
}
);
layerId = "55C4185A-9C39-4468-B19C-DE0A3E571700";
paths = (
{
closed = 1;
nodes = (
"618 -8 OFFCURVE",
"675 316 OFFCURVE",
"739 676 QCURVE SMOOTH",
"802 1036 OFFCURVE",
"860 1362 OFFCURVE",
"504 1362 QCURVE SMOOTH",
"148 1362 OFFCURVE",
"90 1036 OFFCURVE",
"27 676 QCURVE SMOOTH",
"-37 316 OFFCURVE",
"-94 -8 OFFCURVE",
"262 -8 QCURVE SMOOTH"
);
},
{
closed = 1;
nodes = (
"295 246 OFFCURVE",
"303 294 OFFCURVE",
"371 676 QCURVE SMOOTH",
"440 1068 OFFCURVE",
"447 1108 OFFCURVE",
"459 1108 QCURVE SMOOTH",
"471 1108 OFFCURVE",
"464 1068 OFFCURVE",
"395 676 QCURVE SMOOTH",
"327 294 OFFCURVE",
"319 246 OFFCURVE",
"307 246 QCURVE SMOOTH"
);
}
);
width = 736;
},
{
anchors = (
{
name = bottom;
position = "{-6, 0}";
},
{
name = center;
position = "{114, 675}";
},
{
name = ogonek;
position = "{-9, 0}";
},
{
name = top;
position = "{233, 1350}";
},
{
name = topleft;
position = "{161, 1350}";
},
{
name = topright;
position = "{259, 1216}";
}
);
layerId = "4F53612F-C4F8-4368-83AD-8913BEEF8F1D";
paths = (
{
closed = 1;
nodes = (
"46 -8 OFFCURVE",
"89 240 OFFCURVE",
"166 674 QCURVE SMOOTH",
"242 1104 OFFCURVE",
"286 1356 OFFCURVE",
"228 1356 QCURVE SMOOTH",
"170 1356 OFFCURVE",
"126 1106 OFFCURVE",
"50 674 QCURVE SMOOTH",
"-27 240 OFFCURVE",
"-70 -8 OFFCURVE",
"-12 -8 QCURVE SMOOTH"
);
},
{
closed = 1;
nodes = (
"-44 14 OFFCURVE",
"-3 246 OFFCURVE",
"72 674 QCURVE SMOOTH",
"147 1100 OFFCURVE",
"188 1334 OFFCURVE",
"224 1334 QCURVE SMOOTH",
"260 1334 OFFCURVE",
"219 1100 OFFCURVE",
"144 674 QCURVE SMOOTH",
"69 246 OFFCURVE",
"28 14 OFFCURVE",
"-8 14 QCURVE SMOOTH"
);
}
);
width = 174;
},
{
anchors = (
{
name = bottom;
position = "{995, 0}";
},
{
name = center;
position = "{1115, 675}";
},
{
name = ogonek;
position = "{1021, 0}";
},
{
name = top;
position = "{1234, 1350}";
},
{
name = topleft;
position = "{164, 1350}";
},
{
name = topright;
position = "{1853, 1232}";
}
);
layerId = "E5A4176B-9C10-4B01-BBC9-D7999ECBFAF8";
paths = (
{
closed = 1;
nodes = (
"1459 -16 OFFCURVE",
"2116 303 OFFCURVE",
"2172 674 QCURVE SMOOTH",
"2225 1024 OFFCURVE",
"1681 1362 OFFCURVE",
"1237 1362 QCURVE SMOOTH",
"793 1362 OFFCURVE",
"135 1046 OFFCURVE",
"80 674 QCURVE SMOOTH",
"28 324 OFFCURVE",
"571 -16 OFFCURVE",
"1015 -16 QCURVE SMOOTH"
);
},
{
closed = 1;
nodes = (
"852 346 OFFCURVE",
"628 512 OFFCURVE",
"646 674 QCURVE SMOOTH",
"664 838 OFFCURVE",
"968 1000 OFFCURVE",
"1184 1000 QCURVE SMOOTH",
"1400 1000 OFFCURVE",
"1624 838 OFFCURVE",
"1606 674 QCURVE SMOOTH",
"1588 512 OFFCURVE",
"1284 346 OFFCURVE",
"1068 346 QCURVE SMOOTH"
);
}
);
width = 2259;
}
);
leftKerningGroup = O;
note = O;
rightKerningGroup = O;
unicode = 004F;
},
{
glyphname = Oslash;
layers = (
{
anchors = (
{
name = bottom;
position = "{91, 0}";
},
{
name = top;
position = "{91, 1350}";
}
);
components = (
{
name = O;
}
);
layerId = "A1A0948C-E637-4A65-8CCC-05505AD98C44";
paths = (
{
closed = 1;
nodes = (
"36 0 LINE",
"158 1348 LINE",
"136 1348 LINE",
"14 0 LINE"
);
}
);
width = 182;
},
{
anchors = (
{
name = bottom;
position = "{368, 0}";
},
{
name = top;
position = "{368, 1350}";
}
);
components = (
{
name = O;
}
);
layerId = "BA0CA162-2A9B-49EE-921D-3B4346C7D39F";
paths = (
{
closed = 1;
nodes = (
"72 0 LINE",
"744 1348 LINE",
"666 1348 LINE",
"-8 0 LINE"
);
}
);
width = 736;
},
{
anchors = (
{
name = bottom;
position = "{1099, 0}";
},
{
name = top;
position = "{1099, 1350}";
}
);
components = (
{
name = O;
}
);
layerId = "C75D3228-2D13-4E9D-9829-45195F4951D0";
paths = (
{
closed = 1;
nodes = (
"418 0 LINE",
"2158 1348 LINE",
"1780 1348 LINE",
"38 0 LINE"
);
}
);
width = 2198;
},
{
anchors = (
{
name = bottom;
position = "{1028, 0}";
},
{
name = top;
position = "{1028, 1350}";
}
);
components = (
{
name = O;
}
);
layerId = "71977205-6510-4B11-BB00-17BACA883C8F";
paths = (
{
closed = 1;
nodes = (
"216 0 LINE",
"1764 1348 LINE",
"1735 1348 LINE",
"180 0 LINE"
);
}
);
width = 1810;
},
{
anchors = (
{
name = bottom;
position = "{790, 0}";
},
{
name = top;
position = "{1029, 1350}";
}
);
components = (
{
name = O;
}
);
layerId = "5997A0D0-E78E-41EC-9011-DECBEAD8517D";
paths = (
{
closed = 1;
nodes = (
"58 0 LINE",
"1652 1348 LINE",
"1620 1348 LINE",
"18 0 LINE"
);
}
);
width = 1770;
},
{
anchors = (
{
name = bottom;
position = "{271, 0}";
},
{
name = top;
position = "{510, 1350}";
}
);
components = (
{
name = O;
}
);
layerId = "55C4185A-9C39-4468-B19C-DE0A3E571700";
paths = (
{
closed = 1;
nodes = (
"-24 0 LINE",
"884 1348 LINE",
"806 1348 LINE",
"-104 0 LINE"
);
}
);
width = 732;
},
{
anchors = (
{
name = bottom;
position = "{-3, 0}";
},
{
name = top;
position = "{236, 1350}";
}
);
components = (
{
name = O;
}
);
layerId = "4F53612F-C4F8-4368-83AD-8913BEEF8F1D";
paths = (
{
closed = 1;
nodes = (
"-62 0 LINE",
"296 1348 LINE",
"274 1348 LINE",
"-84 0 LINE"
);
}
);
width = 184;
},
{
anchors = (
{
name = bottom;
position = "{1004, 0}";
},
{
name = top;
position = "{1243, 1350}";
}
);
components = (
{
name = O;
}
);
layerId = "E5A4176B-9C10-4B01-BBC9-D7999ECBFAF8";
paths = (
{
closed = 1;
nodes = (
"300 0 LINE",
"2276 1348 LINE",
"1898 1348 LINE",
"-80 0 LINE"
);
}
);
width = 2198;
}
);
leftKerningGroup = O;
rightKerningGroup = O;
unicode = 00D8;
},
{
glyphname = P;
lastChange = "2020-04-15 20:28:29 +0000";
layers = (
{
anchors = (
{
name = bottom;
position = "{85, 0}";
},
{
name = top;
position = "{85, 1350}";
}
);
layerId = "A1A0948C-E637-4A65-8CCC-05505AD98C44";
paths = (
{
closed = 1;
nodes = (
"50 0 LINE",
"50 388 LINE",
"72 388 LINE SMOOTH",
"132 388 OFFCURVE",
"132 680 OFFCURVE",
"132 868 QCURVE SMOOTH",
"132 1056 OFFCURVE",
"132 1350 OFFCURVE",
"72 1350 QCURVE SMOOTH",
"28 1350 LINE",
"28 0 LINE"
);
},
{
closed = 1;
nodes = (
"50 1328 LINE",
"68 1328 LINE SMOOTH",
"110 1328 OFFCURVE",
"110 1056 OFFCURVE",
"110 868 QCURVE SMOOTH",
"110 680 OFFCURVE",
"110 410 OFFCURVE",
"68 410 QCURVE SMOOTH",
"50 410 LINE"
);
}
);
width = 170;
},
{
anchors = (
{
name = bottom;
position = "{372, 0}";
},
{
name = top;
position = "{372, 1350}";
}
);
layerId = "BA0CA162-2A9B-49EE-921D-3B4346C7D39F";
paths = (
{
closed = 1;
nodes = (
"360 0 LINE",
"360 352 LINE",
"500 352 LINE SMOOTH",
"732 352 OFFCURVE",
"732 692 OFFCURVE",
"732 852 QCURVE SMOOTH",
"732 1010 OFFCURVE",
"732 1350 OFFCURVE",
"500 1350 QCURVE SMOOTH",
"12 1350 LINE",
"12 0 LINE"
);
},
{
closed = 1;
nodes = (
"360 1096 LINE",
"366 1096 LINE SMOOTH",
"384 1096 OFFCURVE",
"384 1006 OFFCURVE",
"384 852 QCURVE SMOOTH",
"384 696 OFFCURVE",
"384 606 OFFCURVE",
"366 606 QCURVE SMOOTH",
"360 606 LINE"
);
}
);
width = 744;
},
{
anchors = (
{
name = bottom;
position = "{1044, 0}";
},
{
name = top;
position = "{1044, 1350}";
}
);
layerId = "C75D3228-2D13-4E9D-9829-45195F4951D0";
paths = (
{
closed = 1;
nodes = (
"706 0 LINE",
"706 310 LINE",
"1326 310 LINE SMOOTH",
"1652 310 OFFCURVE",
"1978 564 OFFCURVE",
"1978 830 QCURVE SMOOTH",
"1978 1094 OFFCURVE",
"1652 1350 OFFCURVE",
"1326 1350 QCURVE SMOOTH",
"140 1350 LINE",
"140 0 LINE"
);
},
{
closed = 1;
nodes = (
"706 988 LINE",
"1188 988 LINE SMOOTH",
"1302 988 OFFCURVE",
"1420 918 OFFCURVE",
"1420 830 QCURVE SMOOTH",
"1420 740 OFFCURVE",
"1302 672 OFFCURVE",
"1188 672 QCURVE SMOOTH",
"706 672 LINE"
);
}
);
width = 2065;
},
{
anchors = (
{
name = bottom;
position = "{877, 0}";
},
{
name = top;
position = "{877, 1350}";
}
);
layerId = "71977205-6510-4B11-BB00-17BACA883C8F";
paths = (
{
closed = 1;
nodes = (
"172 0 LINE",
"172 492 LINE",
"961 492 LINE SMOOTH",
"1270 492 OFFCURVE",
"1570 707 OFFCURVE",
"1570 921 QCURVE SMOOTH",
"1570 1135 OFFCURVE",
"1269 1350 OFFCURVE",
"961 1350 QCURVE SMOOTH",
"150 1350 LINE",
"150 0 LINE"
);
},
{
closed = 1;
nodes = (
"172 1328 LINE",
"950 1328 LINE SMOOTH",
"1266 1328 OFFCURVE",
"1546 1120 OFFCURVE",
"1546 921 QCURVE SMOOTH",
"1546 721 OFFCURVE",
"1265 514 OFFCURVE",
"950 514 QCURVE SMOOTH",
"172 514 LINE"
);
}
);
width = 1770;
},
{
anchors = (
{
name = bottom;
position = "{657, 0}";
},
{
name = top;
position = "{896, 1350}";
}
);
layerId = "5997A0D0-E78E-41EC-9011-DECBEAD8517D";
paths = (
{
closed = 1;
nodes = (
"53 0 LINE",
"140 492 LINE",
"934 492 LINE SMOOTH",
"1243 492 OFFCURVE",
"1576 707 OFFCURVE",
"1613 921 QCURVE SMOOTH",
"1651 1135 OFFCURVE",
"1383 1350 OFFCURVE",
"1075 1350 QCURVE SMOOTH",
"269 1350 LINE",
"31 0 LINE"
);
},
{
closed = 1;
nodes = (
"287 1328 LINE",
"1065 1328 LINE SMOOTH",
"1381 1328 OFFCURVE",
"1624 1120 OFFCURVE",
"1589 921 QCURVE SMOOTH",
"1554 721 OFFCURVE",
"1237 514 OFFCURVE",
"922 514 QCURVE SMOOTH",
"144 514 LINE"
);
}
);
width = 1750;
},
{
anchors = (
{
name = bottom;
position = "{275, 0}";
},
{
name = top;
position = "{514, 1350}";
}
);
layerId = "55C4185A-9C39-4468-B19C-DE0A3E571700";
paths = (
{
closed = 1;
nodes = (
"258 0 LINE",
"320 352 LINE",
"460 352 LINE SMOOTH",
"692 352 OFFCURVE",
"757 722 OFFCURVE",
"780 852 QCURVE SMOOTH",
"803 980 OFFCURVE",
"868 1350 OFFCURVE",
"636 1350 QCURVE SMOOTH",
"148 1350 LINE",
"-90 0 LINE"
);
},
{
closed = 1;
nodes = (
"451 1096 LINE",
"457 1096 LINE SMOOTH",
"475 1096 OFFCURVE",
"459 1006 OFFCURVE",
"432 852 QCURVE SMOOTH",
"405 696 OFFCURVE",
"389 606 OFFCURVE",
"371 606 QCURVE SMOOTH",
"365 606 LINE"
);
}
);
width = 743;
},
{
anchors = (
{
name = bottom;
position = "{-12, 0}";
},
{
name = top;
position = "{227, 1350}";
}
);
layerId = "4F53612F-C4F8-4368-83AD-8913BEEF8F1D";
paths = (
{
closed = 1;
nodes = (
"-46 0 LINE",
"22 388 LINE",
"46 388 LINE SMOOTH",
"104 388 OFFCURVE",
"156 680 OFFCURVE",
"189 868 QCURVE SMOOTH",
"222 1056 OFFCURVE",
"274 1350 OFFCURVE",
"212 1350 QCURVE SMOOTH",
"170 1350 LINE",
"-68 0 LINE"
);
},
{
closed = 1;
nodes = (
"188 1328 LINE",
"206 1328 LINE SMOOTH",
"248 1328 OFFCURVE",
"200 1056 OFFCURVE",
"167 868 QCURVE SMOOTH",
"134 680 OFFCURVE",
"86 410 OFFCURVE",
"44 410 QCURVE SMOOTH",
"26 410 LINE"
);
}
);
width = 166;
},
{
anchors = (
{
name = bottom;
position = "{963, 0}";
},
{
name = top;
position = "{1202, 1350}";
}
);
layerId = "E5A4176B-9C10-4B01-BBC9-D7999ECBFAF8";
paths = (
{
closed = 1;
nodes = (
"608 0 LINE",
"664 310 LINE",
"1304 310 LINE SMOOTH",
"1630 310 OFFCURVE",
"2028 636 OFFCURVE",
"2028 906 QCURVE SMOOTH",
"2028 1096 OFFCURVE",
"1776 1350 OFFCURVE",
"1450 1350 QCURVE SMOOTH",
"282 1350 LINE",
"42 0 LINE"
);
},
{
closed = 1;
nodes = (
"784 988 LINE",
"1266 988 LINE SMOOTH",
"1380 988 OFFCURVE",
"1470 918 OFFCURVE",
"1470 850 QCURVE SMOOTH",
"1470 758 OFFCURVE",
"1324 672 OFFCURVE",
"1210 672 QCURVE SMOOTH",
"728 672 LINE"
);
}
);
width = 2069;
}
);
leftKerningGroup = H;
leftMetricsKey = H;
note = P;
rightKerningGroup = P;
unicode = 0050;
},
{
glyphname = Thorn;
layers = (
{
anchors = (
{
name = bottom;
position = "{105, 0}";
},
{
name = top;
position = "{105, 1350}";
}
);
layerId = "A1A0948C-E637-4A65-8CCC-05505AD98C44";
paths = (
{
closed = 1;
nodes = (
"50 0 LINE",
"50 228 LINE",
"94 228 LINE",
"146 228 OFFCURVE",
"172 310 OFFCURVE",
"172 478 CURVE SMOOTH",
"172 882 LINE SMOOTH",
"172 1042 OFFCURVE",
"144 1132 OFFCURVE",
"94 1132 CURVE",
"50 1132 LINE",
"50 1350 LINE",
"28 1350 LINE",
"28 0 LINE"
);
},
{
closed = 1;
nodes = (
"50 1108 LINE",
"80 1108 LINE",
"130 1108 OFFCURVE",
"150 1038 OFFCURVE",
"150 862 CURVE SMOOTH",
"150 498 LINE SMOOTH",
"150 314 OFFCURVE",
"132 250 OFFCURVE",
"80 250 CURVE",
"50 250 LINE"
);
}
);
width = 210;
},
{
anchors = (
{
name = bottom;
position = "{373, 0}";
},
{
name = top;
position = "{373, 1350}";
}
);
layerId = "BA0CA162-2A9B-49EE-921D-3B4346C7D39F";
paths = (
{
closed = 1;
nodes = (
"358 0 LINE",
"358 228 LINE",
"514 228 LINE",
"672 228 OFFCURVE",
"734 304 OFFCURVE",
"734 498 CURVE SMOOTH",
"734 862 LINE SMOOTH",
"734 1050 OFFCURVE",
"666 1132 OFFCURVE",
"514 1132 CURVE",
"358 1132 LINE",
"358 1350 LINE",
"12 1350 LINE",
"12 0 LINE"
);
},
{
closed = 1;
nodes = (
"358 908 LINE",
"368 908 LINE",
"388 908 OFFCURVE",
"388 892 OFFCURVE",
"388 838 CURVE SMOOTH",
"388 538 LINE SMOOTH",
"388 468 OFFCURVE",
"386 450 OFFCURVE",
"368 450 CURVE",
"358 450 LINE"
);
}
);
width = 746;
},
{
anchors = (
{
name = bottom;
position = "{1023, 0}";
},
{
name = top;
position = "{1023, 1350}";
}
);
layerId = "C75D3228-2D13-4E9D-9829-45195F4951D0";
paths = (
{
closed = 1;
nodes = (
"666 0 LINE",
"666 228 LINE",
"1498 228 LINE SMOOTH",
"1804 228 OFFCURVE",
"1920 322 OFFCURVE",
"1920 578 CURVE SMOOTH",
"1920 786 LINE SMOOTH",
"1920 1012 OFFCURVE",
"1782 1132 OFFCURVE",
"1498 1132 CURVE",
"666 1132 LINE",
"666 1350 LINE",
"108 1350 LINE",
"108 0 LINE"
);
},
{
closed = 1;
nodes = (
"666 772 LINE",
"1296 772 LINE",
"1348 772 OFFCURVE",
"1360 736 OFFCURVE",
"1360 712 CURVE SMOOTH",
"1360 646 LINE SMOOTH",
"1360 624 OFFCURVE",
"1350 588 OFFCURVE",
"1296 588 CURVE",
"666 588 LINE"
);
}
);
width = 2045;
},
{
anchors = (
{
name = bottom;
position = "{836, 0}";
},
{
name = top;
position = "{836, 1350}";
}
);
layerId = "71977205-6510-4B11-BB00-17BACA883C8F";
paths = (
{
closed = 1;
nodes = (
"216 0 LINE",
"216 228 LINE",
"1012 228 LINE",
"1359 228 OFFCURVE",
"1461 412 OFFCURVE",
"1461 607 CURVE SMOOTH",
"1461 746 LINE SMOOTH",
"1461 950 OFFCURVE",
"1363 1132 OFFCURVE",
"1012 1132 CURVE",
"216 1132 LINE",
"216 1350 LINE",
"194 1350 LINE",
"194 0 LINE"
);
},
{
closed = 1;
nodes = (
"216 1108 LINE",
"1014 1108 LINE",
"1343 1108 OFFCURVE",
"1439 941 OFFCURVE",
"1439 738 CURVE SMOOTH",
"1439 615 LINE SMOOTH",
"1439 422 OFFCURVE",
"1333 250 OFFCURVE",
"1014 250 CURVE",
"216 250 LINE"
);
}
);
width = 1672;
},
{
anchors = (
{
name = bottom;
position = "{645, 0}";
},
{
name = top;
position = "{884, 1350}";
}
);
layerId = "5997A0D0-E78E-41EC-9011-DECBEAD8517D";
paths = (
{
closed = 1;
nodes = (
"56 0 LINE",
"96 228 LINE",
"898 228 LINE",
"1245 228 OFFCURVE",
"1373 412 OFFCURVE",
"1408 607 CURVE SMOOTH",
"1433 746 LINE SMOOTH",
"1470 950 OFFCURVE",
"1399 1132 OFFCURVE",
"1048 1132 CURVE",
"256 1132 LINE",
"294 1350 LINE",
"272 1350 LINE",
"34 0 LINE"
);
},
{
closed = 1;
nodes = (
"251 1108 LINE",
"1049 1108 LINE",
"1378 1108 OFFCURVE",
"1445 941 OFFCURVE",
"1409 738 CURVE SMOOTH",
"1387 615 LINE SMOOTH",
"1352 422 OFFCURVE",
"1217 250 OFFCURVE",
"898 250 CURVE",
"100 250 LINE"
);
}
);
width = 1672;
},
{
anchors = (
{
name = bottom;
position = "{276, 0}";
},
{
name = top;
position = "{515, 1350}";
}
);
layerId = "55C4185A-9C39-4468-B19C-DE0A3E571700";
paths = (
{
closed = 1;
nodes = (
"256 0 LINE",
"296 228 LINE",
"452 228 LINE",
"610 228 OFFCURVE",
"686 304 OFFCURVE",
"720 498 CURVE SMOOTH",
"784 862 LINE SMOOTH",
"817 1050 OFFCURVE",
"764 1132 OFFCURVE",
"612 1132 CURVE",
"456 1132 LINE",
"494 1350 LINE",
"148 1350 LINE",
"-90 0 LINE"
);
},
{
closed = 1;
nodes = (
"416 908 LINE",
"425 908 LINE",
"445 908 OFFCURVE",
"444 892 OFFCURVE",
"434 838 CURVE SMOOTH",
"381 538 LINE SMOOTH",
"369 468 OFFCURVE",
"365 450 OFFCURVE",
"345 450 CURVE",
"335 450 LINE"
);
}
);
width = 746;
},
{
anchors = (
{
name = bottom;
position = "{11, 0}";
},
{
name = top;
position = "{250, 1350}";
}
);
layerId = "4F53612F-C4F8-4368-83AD-8913BEEF8F1D";
paths = (
{
closed = 1;
nodes = (
"-44 0 LINE",
"-4 228 LINE",
"41 228 LINE",
"93 228 OFFCURVE",
"132 310 OFFCURVE",
"162 478 CURVE SMOOTH",
"233 882 LINE SMOOTH",
"261 1042 OFFCURVE",
"248 1132 OFFCURVE",
"198 1132 CURVE",
"156 1132 LINE",
"194 1350 LINE",
"172 1350 LINE",
"-66 0 LINE"
);
},
{
closed = 1;
nodes = (
"151 1108 LINE",
"181 1108 LINE",
"231 1108 OFFCURVE",
"239 1038 OFFCURVE",
"208 862 CURVE SMOOTH",
"144 498 LINE SMOOTH",
"112 314 OFFCURVE",
"82 250 OFFCURVE",
"30 250 CURVE",
"0 250 LINE"
);
}
);
width = 210;
},
{
anchors = (
{
name = bottom;
position = "{928, 0}";
},
{
name = top;
position = "{1167, 1350}";
}
);
layerId = "E5A4176B-9C10-4B01-BBC9-D7999ECBFAF8";
paths = (
{
closed = 1;
nodes = (
"537 0 LINE",
"577 228 LINE",
"1409 228 LINE SMOOTH",
"1715 228 OFFCURVE",
"1848 322 OFFCURVE",
"1893 578 CURVE SMOOTH",
"1930 786 LINE SMOOTH",
"1969 1012 OFFCURVE",
"1853 1132 OFFCURVE",
"1569 1132 CURVE",
"737 1132 LINE",
"775 1350 LINE",
"217 1350 LINE",
"-21 0 LINE"
);
},
{
closed = 1;
nodes = (
"673 772 LINE",
"1303 772 LINE",
"1355 772 OFFCURVE",
"1361 736 OFFCURVE",
"1357 712 CURVE SMOOTH",
"1345 646 LINE SMOOTH",
"1341 624 OFFCURVE",
"1325 588 OFFCURVE",
"1271 588 CURVE",
"641 588 LINE"
);
}
);
width = 2045;
}
);
leftKerningGroup = H;
note = Thorn;
rightKerningGroup = Thorn;
unicode = 00DE;
},
{
glyphname = Q;
layers = (
{
anchors = (
{
name = bottom;
position = "{97, 0}";
},
{
name = top;
position = "{97, 1350}";
}
);
components = (
{
name = O;
}
);
layerId = "A1A0948C-E637-4A65-8CCC-05505AD98C44";
paths = (
{
closed = 1;
nodes = (
"180 -84 LINE",
"104 22 LINE",
"88 8 LINE",
"164 -96 LINE"
);
}
);
width = 210;
},
{
anchors = (
{
name = bottom;
position = "{373, 0}";
},
{
name = top;
position = "{373, 1350}";
}
);
components = (
{
name = O;
}
);
layerId = "BA0CA162-2A9B-49EE-921D-3B4346C7D39F";
paths = (
{
closed = 1;
nodes = (
"716 -114 LINE",
"570 232 LINE",
"324 132 LINE",
"474 -218 LINE"
);
}
);
width = 736;
},
{
anchors = (
{
name = bottom;
position = "{1109, 0}";
},
{
name = top;
position = "{1109, 1350}";
}
);
components = (
{
name = O;
}
);
layerId = "C75D3228-2D13-4E9D-9829-45195F4951D0";
paths = (
{
closed = 1;
nodes = (
"2130 -150 LINE",
"1720 322 LINE",
"1294 114 LINE",
"1730 -390 LINE"
);
}
);
width = 2259;
},
{
anchors = (
{
name = bottom;
position = "{1026, 0}";
},
{
name = top;
position = "{1026, 1350}";
}
);
components = (
{
name = O;
}
);
layerId = "71977205-6510-4B11-BB00-17BACA883C8F";
paths = (
{
closed = 1;
nodes = (
"1925 -192 LINE",
"1645 158 LINE",
"1627 141 LINE",
"1904 -209 LINE"
);
}
);
width = 2173;
},
{
anchors = (
{
name = bottom;
position = "{810, 0}";
},
{
name = top;
position = "{1049, 1350}";
}
);
components = (
{
name = O;
}
);
layerId = "5997A0D0-E78E-41EC-9011-DECBEAD8517D";
paths = (
{
closed = 1;
nodes = (
"1695 -140 LINE",
"1519 140 LINE",
"1499 124 LINE",
"1673 -156 LINE"
);
}
);
width = 2173;
},
{
anchors = (
{
name = bottom;
position = "{276, 0}";
},
{
name = top;
position = "{515, 1350}";
}
);
components = (
{
name = O;
}
);
layerId = "55C4185A-9C39-4468-B19C-DE0A3E571700";
paths = (
{
closed = 1;
nodes = (
"598 -124 LINE",
"513 222 LINE",
"249 142 LINE",
"337 -208 LINE"
);
}
);
width = 736;
},
{
anchors = (
{
name = bottom;
position = "{2, 0}";
},
{
name = top;
position = "{241, 1350}";
}
);
components = (
{
name = O;
}
);
layerId = "4F53612F-C4F8-4368-83AD-8913BEEF8F1D";
paths = (
{
closed = 1;
nodes = (
"72 -84 LINE",
"14 22 LINE",
"-6 8 LINE",
"54 -96 LINE"
);
}
);
width = 214;
},
{
anchors = (
{
name = bottom;
position = "{1014, 0}";
},
{
name = top;
position = "{1253, 1350}";
}
);
components = (
{
name = O;
}
);
layerId = "E5A4176B-9C10-4B01-BBC9-D7999ECBFAF8";
paths = (
{
closed = 1;
nodes = (
"1960 -150 LINE",
"1632 322 LINE",
"1170 114 LINE",
"1518 -390 LINE"
);
}
);
width = 2259;
}
);
leftKerningGroup = O;
leftMetricsKey = O;
note = Q;
rightKerningGroup = O;
rightMetricsKey = O;
unicode = 0051;
},
{
glyphname = R;
lastChange = "2020-04-15 20:28:29 +0000";
layers = (
{
anchors = (
{
name = bottom;
position = "{89, 0}";
},
{
name = top;
position = "{89, 1350}";
}
);
layerId = "A1A0948C-E637-4A65-8CCC-05505AD98C44";
paths = (
{
closed = 1;
nodes = (
"50 0 LINE",
"50 632 LINE",
"68 632 LINE SMOOTH",
"134 632 OFFCURVE",
"134 856 OFFCURVE",
"134 990 QCURVE SMOOTH",
"134 1124 OFFCURVE",
"134 1350 OFFCURVE",
"68 1350 QCURVE SMOOTH",
"28 1350 LINE",
"28 0 LINE"
);
},
{
closed = 1;
nodes = (
"140 0 LINE",
"108 660 LINE",
"86 638 LINE",
"118 0 LINE"
);
},
{
closed = 1;
nodes = (
"50 1328 LINE",
"68 1328 LINE SMOOTH",
"112 1328 OFFCURVE",
"112 1124 OFFCURVE",
"112 990 QCURVE SMOOTH",
"112 856 OFFCURVE",
"112 654 OFFCURVE",
"68 654 QCURVE SMOOTH",
"50 654 LINE"
);
}
);
width = 172;
},
{
anchors = (
{
name = bottom;
position = "{375, 0}";
},
{
name = top;
position = "{375, 1350}";
}
);
layerId = "BA0CA162-2A9B-49EE-921D-3B4346C7D39F";
paths = (
{
closed = 1;
nodes = (
"362 0 LINE",
"362 580 LINE",
"522 580 LINE SMOOTH",
"736 580 OFFCURVE",
"736 836 OFFCURVE",
"736 944 QCURVE SMOOTH",
"736 1056 OFFCURVE",
"736 1350 OFFCURVE",
"520 1350 QCURVE SMOOTH",
"12 1350 LINE",
"12 0 LINE"
);
},
{
closed = 1;
nodes = (
"751 0 LINE",
"697 642 LINE",
"369 612 LINE",
"401 0 LINE"
);
},
{
closed = 1;
nodes = (
"362 1096 LINE",
"366 1096 LINE SMOOTH",
"386 1096 OFFCURVE",
"386 1020 OFFCURVE",
"386 944 QCURVE SMOOTH",
"386 868 OFFCURVE",
"386 794 OFFCURVE",
"366 794 QCURVE SMOOTH",
"362 794 LINE"
);
}
);
width = 751;
},
{
anchors = (
{
name = bottom;
position = "{1050, 0}";
},
{
name = top;
position = "{1050, 1350}";
}
);
layerId = "C75D3228-2D13-4E9D-9829-45195F4951D0";
paths = (
{
closed = 1;
nodes = (
"706 0 LINE",
"706 424 LINE",
"1372 424 LINE SMOOTH",
"1664 424 OFFCURVE",
"1994 646 OFFCURVE",
"1994 888 QCURVE SMOOTH",
"1994 1132 OFFCURVE",
"1684 1350 OFFCURVE",
"1412 1350 QCURVE SMOOTH",
"140 1350 LINE",
"140 0 LINE"
);
},
{
closed = 1;
nodes = (
"2046 0 LINE",
"1410 630 LINE",
"834 630 LINE",
"1406 0 LINE"
);
},
{
closed = 1;
nodes = (
"706 988 LINE",
"1230 988 LINE SMOOTH",
"1334 988 OFFCURVE",
"1428 934 OFFCURVE",
"1428 876 QCURVE SMOOTH",
"1428 816 OFFCURVE",
"1334 764 OFFCURVE",
"1230 764 QCURVE SMOOTH",
"706 764 LINE"
);
}
);
width = 2146;
},
{
anchors = (
{
name = bottom;
position = "{863, 0}";
},
{
name = top;
position = "{863, 1350}";
}
);
layerId = "71977205-6510-4B11-BB00-17BACA883C8F";
paths = (
{
closed = 1;
nodes = (
"172 0 LINE",
"172 687 LINE",
"1117 687 LINE SMOOTH",
"1349 687 OFFCURVE",
"1604 854 OFFCURVE",
"1604 1020 QCURVE SMOOTH",
"1604 1186 OFFCURVE",
"1349 1350 OFFCURVE",
"1117 1350 QCURVE SMOOTH",
"150 1350 LINE",
"150 0 LINE"
);
},
{
closed = 1;
nodes = (
"1539 0 LINE",
"1143 697 LINE",
"1117 697 LINE",
"1513 0 LINE"
);
},
{
closed = 1;
nodes = (
"172 1328 LINE",
"1115 1328 LINE SMOOTH",
"1342 1328 OFFCURVE",
"1580 1177 OFFCURVE",
"1580 1020 QCURVE SMOOTH",
"1580 863 OFFCURVE",
"1343 709 OFFCURVE",
"1115 709 QCURVE SMOOTH",
"172 709 LINE"
);
}
);
width = 1804;
},
{
anchors = (
{
name = bottom;
position = "{636, 0}";
},
{
name = top;
position = "{875, 1350}";
}
);
layerId = "5997A0D0-E78E-41EC-9011-DECBEAD8517D";
paths = (
{
closed = 1;
nodes = (
"53 0 LINE",
"174 687 LINE",
"1124 687 LINE SMOOTH",
"1356 687 OFFCURVE",
"1636 854 OFFCURVE",
"1665 1020 QCURVE SMOOTH",
"1694 1186 OFFCURVE",
"1460 1350 OFFCURVE",
"1228 1350 QCURVE SMOOTH",
"269 1350 LINE",
"31 0 LINE"
);
},
{
closed = 1;
nodes = (
"1420 0 LINE",
"1147 697 LINE",
"1121 697 LINE",
"1394 0 LINE"
);
},
{
closed = 1;
nodes = (
"287 1328 LINE",
"1230 1328 LINE SMOOTH",
"1457 1328 OFFCURVE",
"1669 1177 OFFCURVE",
"1641 1020 QCURVE SMOOTH",
"1613 863 OFFCURVE",
"1349 709 OFFCURVE",
"1121 709 QCURVE SMOOTH",
"178 709 LINE"
);
}
);
width = 1804;
},
{
anchors = (
{
name = bottom;
position = "{265, 0}";
},
{
name = top;
position = "{504, 1350}";
}
);
layerId = "55C4185A-9C39-4468-B19C-DE0A3E571700";
paths = (
{
closed = 1;
nodes = (
"260 0 LINE",
"362 580 LINE",
"522 580 LINE SMOOTH",
"736 580 OFFCURVE",
"781 836 OFFCURVE",
"800 944 QCURVE SMOOTH",
"820 1056 OFFCURVE",
"872 1350 OFFCURVE",
"656 1350 QCURVE SMOOTH",
"148 1350 LINE",
"-90 0 LINE"
);
},
{
closed = 1;
nodes = (
"649 0 LINE",
"708 642 LINE",
"375 612 LINE",
"299 0 LINE"
);
},
{
closed = 1;
nodes = (
"453 1096 LINE",
"457 1096 LINE SMOOTH",
"477 1096 OFFCURVE",
"464 1020 OFFCURVE",
"450 944 QCURVE SMOOTH",
"437 868 OFFCURVE",
"424 794 OFFCURVE",
"404 794 QCURVE SMOOTH",
"400 794 LINE"
);
}
);
width = 751;
},
{
anchors = (
{
name = bottom;
position = "{-10, 0}";
},
{
name = top;
position = "{229, 1350}";
}
);
layerId = "4F53612F-C4F8-4368-83AD-8913BEEF8F1D";
paths = (
{
closed = 1;
nodes = (
"-46 0 LINE",
"65 632 LINE",
"83 632 LINE SMOOTH",
"149 632 OFFCURVE",
"189 856 OFFCURVE",
"213 990 QCURVE SMOOTH",
"236 1124 OFFCURVE",
"276 1350 OFFCURVE",
"210 1350 QCURVE SMOOTH",
"170 1350 LINE",
"-68 0 LINE"
);
},
{
closed = 1;
nodes = (
"44 0 LINE",
"128 660 LINE",
"102 638 LINE",
"22 0 LINE"
);
},
{
closed = 1;
nodes = (
"188 1328 LINE",
"206 1328 LINE SMOOTH",
"250 1328 OFFCURVE",
"214 1124 OFFCURVE",
"191 990 QCURVE SMOOTH",
"167 856 OFFCURVE",
"131 654 OFFCURVE",
"87 654 QCURVE SMOOTH",
"69 654 LINE"
);
}
);
width = 167;
},
{
anchors = (
{
name = bottom;
position = "{946, 0}";
},
{
name = top;
position = "{1185, 1350}";
}
);
layerId = "E5A4176B-9C10-4B01-BBC9-D7999ECBFAF8";
paths = (
{
closed = 1;
nodes = (
"608 0 LINE",
"683 424 LINE",
"1349 424 LINE SMOOTH",
"1641 424 OFFCURVE",
"2019 644 OFFCURVE",
"2053 888 QCURVE SMOOTH",
"2086 1122 OFFCURVE",
"1824 1350 OFFCURVE",
"1552 1350 QCURVE SMOOTH",
"280 1350 LINE",
"42 0 LINE"
);
},
{
closed = 1;
nodes = (
"1948 0 LINE",
"1423 630 LINE",
"847 630 LINE",
"1308 0 LINE"
);
},
{
closed = 1;
nodes = (
"782 988 LINE",
"1306 988 LINE SMOOTH",
"1410 988 OFFCURVE",
"1495 934 OFFCURVE",
"1484 876 QCURVE SMOOTH",
"1474 816 OFFCURVE",
"1371 764 OFFCURVE",
"1267 764 QCURVE SMOOTH",
"743 764 LINE"
);
}
);
width = 2147;
}
);
leftKerningGroup = H;
leftMetricsKey = H;
note = R;
rightKerningGroup = R;
unicode = 0052;
},
{
glyphname = S;
layers = (
{
anchors = (
{
name = bottom;
position = "{88, 0}";
},
{
name = top;
position = "{88, 1350}";
}
);
layerId = "A1A0948C-E637-4A65-8CCC-05505AD98C44";
paths = (
{
closed = 1;
nodes = (
"142 -12 OFFCURVE",
"142 194 OFFCURVE",
"142 300 QCURVE SMOOTH",
"142 480 OFFCURVE",
"142 638 OFFCURVE",
"88 692 QCURVE SMOOTH",
"48 732 OFFCURVE",
"48 892 OFFCURVE",
"48 1040 QCURVE SMOOTH",
"48 1136 OFFCURVE",
"48 1334 OFFCURVE",
"84 1334 QCURVE SMOOTH",
"120 1334 OFFCURVE",
"120 1136 OFFCURVE",
"120 796 QCURVE",
"142 796 LINE",
"142 1136 OFFCURVE",
"142 1356 OFFCURVE",
"84 1356 QCURVE SMOOTH",
"26 1356 OFFCURVE",
"26 1138 OFFCURVE",
"26 1040 QCURVE SMOOTH",
"26 880 OFFCURVE",
"26 720 OFFCURVE",
"78 670 QCURVE SMOOTH",
"120 629 OFFCURVE",
"120 474 OFFCURVE",
"120 300 QCURVE SMOOTH",
"120 194 OFFCURVE",
"120 10 OFFCURVE",
"82 10 QCURVE SMOOTH",
"46 10 OFFCURVE",
"46 194 OFFCURVE",
"46 554 QCURVE",
"24 554 LINE",
"24 194 OFFCURVE",
"24 -12 OFFCURVE",
"82 -12 QCURVE SMOOTH"
);
}
);
width = 176;
},
{
anchors = (
{
name = bottom;
position = "{374, 0}";
},
{
name = top;
position = "{374, 1350}";
}
);
layerId = "BA0CA162-2A9B-49EE-921D-3B4346C7D39F";
paths = (
{
closed = 1;
nodes = (
"736 -8 OFFCURVE",
"736 320 OFFCURVE",
"736 442 QCURVE SMOOTH",
"736 604 OFFCURVE",
"652 724 OFFCURVE",
"472 810 QCURVE SMOOTH",
"384 852 OFFCURVE",
"360 896 OFFCURVE",
"360 1006 QCURVE SMOOTH",
"360 1074 OFFCURVE",
"360 1110 OFFCURVE",
"372 1110 QCURVE SMOOTH",
"384 1110 OFFCURVE",
"384 1074 OFFCURVE",
"384 890 QCURVE",
"732 890 LINE",
"732 1030 OFFCURVE",
"732 1362 OFFCURVE",
"374 1362 QCURVE",
"12 1362 OFFCURVE",
"12 1046 OFFCURVE",
"12 924 QCURVE SMOOTH",
"12 762 OFFCURVE",
"94 624 OFFCURVE",
"288 532 QCURVE SMOOTH",
"364 496 OFFCURVE",
"384 440 OFFCURVE",
"384 356 QCURVE SMOOTH",
"384 280 OFFCURVE",
"384 244 OFFCURVE",
"372 244 QCURVE SMOOTH",
"360 244 OFFCURVE",
"360 280 OFFCURVE",
"360 468 QCURVE",
"12 468 LINE",
"12 308 OFFCURVE",
"12 -8 OFFCURVE",
"372 -8 QCURVE SMOOTH"
);
}
);
width = 748;
},
{
anchors = (
{
name = bottom;
position = "{1099, 0}";
},
{
name = top;
position = "{1099, 1350}";
}
);
layerId = "C75D3228-2D13-4E9D-9829-45195F4951D0";
paths = (
{
closed = 1;
nodes = (
"1526 -8 OFFCURVE",
"2060 208 OFFCURVE",
"2060 470 QCURVE SMOOTH",
"2060 652 OFFCURVE",
"1716 812 OFFCURVE",
"1260 840 QCURVE SMOOTH",
"1016 855 OFFCURVE",
"630 884 OFFCURVE",
"630 920 QCURVE SMOOTH",
"630 955 OFFCURVE",
"890 1002 OFFCURVE",
"1066 1002 QCURVE SMOOTH",
"1220 1002 OFFCURVE",
"1494 934 OFFCURVE",
"1494 874 QCURVE",
"2060 874 LINE",
"2060 1126 OFFCURVE",
"1504 1362 OFFCURVE",
"1074 1362 QCURVE SMOOTH",
"646 1362 OFFCURVE",
"96 1144 OFFCURVE",
"96 896 QCURVE SMOOTH",
"96 703 OFFCURVE",
"456 534 OFFCURVE",
"876 508 QCURVE SMOOTH",
"1138 492 OFFCURVE",
"1514 468 OFFCURVE",
"1514 426 QCURVE SMOOTH",
"1514 390 OFFCURVE",
"1254 352 OFFCURVE",
"1088 352 QCURVE SMOOTH",
"920 352 OFFCURVE",
"660 422 OFFCURVE",
"660 482 QCURVE",
"94 482 LINE",
"94 226 OFFCURVE",
"638 -8 OFFCURVE",
"1094 -8 QCURVE SMOOTH"
);
}
);
width = 2198;
},
{
anchors = (
{
name = bottom;
position = "{897, 0}";
},
{
name = top;
position = "{897, 1350}";
}
);
layerId = "71977205-6510-4B11-BB00-17BACA883C8F";
paths = (
{
closed = 1;
nodes = (
"1269 -7 OFFCURVE",
"1676 159 OFFCURVE",
"1676 332 QCURVE SMOOTH",
"1676 495 OFFCURVE",
"1255 620 OFFCURVE",
"898 695 QCURVE SMOOTH",
"550 768 OFFCURVE",
"139 899 OFFCURVE",
"139 1049 QCURVE SMOOTH",
"139 1197 OFFCURVE",
"530 1341 OFFCURVE",
"895 1341 QCURVE SMOOTH",
"1267 1341 OFFCURVE",
"1652 1145 OFFCURVE",
"1652 893 QCURVE",
"1676 893 LINE",
"1676 1152 OFFCURVE",
"1287 1363 OFFCURVE",
"895 1363 QCURVE",
"526 1363 OFFCURVE",
"115 1215 OFFCURVE",
"115 1049 QCURVE SMOOTH",
"115 885 OFFCURVE",
"529 750 OFFCURVE",
"883 675 QCURVE SMOOTH",
"1235 600 OFFCURVE",
"1652 481 OFFCURVE",
"1652 332 QCURVE SMOOTH",
"1652 176 OFFCURVE",
"1263 15 OFFCURVE",
"893 15 QCURVE SMOOTH",
"517 15 OFFCURVE",
"140 231 OFFCURVE",
"140 483 QCURVE",
"115 483 LINE",
"115 215 OFFCURVE",
"504 -7 OFFCURVE",
"893 -7 QCURVE SMOOTH"
);
}
);
width = 1891;
},
{
anchors = (
{
name = bottom;
position = "{782, 0}";
},
{
name = top;
position = "{1012, 1341}";
}
);
layerId = "5997A0D0-E78E-41EC-9011-DECBEAD8517D";
paths = (
{
closed = 1;
nodes = (
"1153 -7 OFFCURVE",
"1599 157 OFFCURVE",
"1615 332 QCURVE SMOOTH",
"1630 495 OFFCURVE",
"1246 620 OFFCURVE",
"902 695 QCURVE SMOOTH",
"567 768 OFFCURVE",
"188 899 OFFCURVE",
"204 1049 QCURVE SMOOTH",
"220 1199 OFFCURVE",
"647 1341 OFFCURVE",
"1012 1341 QCURVE SMOOTH",
"1384 1341 OFFCURVE",
"1724 1145 OFFCURVE",
"1690 893 QCURVE",
"1714 893 LINE",
"1750 1152 OFFCURVE",
"1404 1363 OFFCURVE",
"1012 1363 QCURVE",
"643 1363 OFFCURVE",
"197 1217 OFFCURVE",
"180 1049 QCURVE SMOOTH",
"163 885 OFFCURVE",
"543 750 OFFCURVE",
"883 675 QCURVE SMOOTH",
"1222 600 OFFCURVE",
"1607 481 OFFCURVE",
"1591 332 QCURVE SMOOTH",
"1574 174 OFFCURVE",
"1146 15 OFFCURVE",
"776 15 QCURVE SMOOTH",
"400 15 OFFCURVE",
"71 229 OFFCURVE",
"106 483 QCURVE",
"81 483 LINE",
"43 215 OFFCURVE",
"388 -7 OFFCURVE",
"777 -7 QCURVE SMOOTH"
);
}
);
width = 1891;
},
{
anchors = (
{
name = bottom;
position = "{273, 0}";
},
{
name = top;
position = "{512, 1350}";
}
);
layerId = "55C4185A-9C39-4468-B19C-DE0A3E571700";
paths = (
{
closed = 1;
nodes = (
"635 -8 OFFCURVE",
"693 320 OFFCURVE",
"715 442 QCURVE SMOOTH",
"743 604 OFFCURVE",
"680 724 OFFCURVE",
"515 810 QCURVE SMOOTH",
"435 852 OFFCURVE",
"419 896 OFFCURVE",
"438 1006 QCURVE SMOOTH",
"450 1074 OFFCURVE",
"456 1110 OFFCURVE",
"468 1110 QCURVE SMOOTH",
"480 1110 OFFCURVE",
"474 1074 OFFCURVE",
"442 890 QCURVE",
"790 890 LINE",
"814 1030 OFFCURVE",
"873 1362 OFFCURVE",
"515 1362 QCURVE",
"153 1362 OFFCURVE",
"97 1046 OFFCURVE",
"76 924 QCURVE SMOOTH",
"47 762 OFFCURVE",
"105 624 OFFCURVE",
"282 532 QCURVE SMOOTH",
"352 496 OFFCURVE",
"362 440 OFFCURVE",
"347 356 QCURVE SMOOTH",
"334 280 OFFCURVE",
"328 244 OFFCURVE",
"316 244 QCURVE SMOOTH",
"304 244 OFFCURVE",
"310 280 OFFCURVE",
"343 468 QCURVE",
"-5 468 LINE",
"-33 308 OFFCURVE",
"-89 -8 OFFCURVE",
"271 -8 QCURVE SMOOTH"
);
}
);
width = 748;
},
{
anchors = (
{
name = bottom;
position = "{-9, 0}";
},
{
name = top;
position = "{230, 1350}";
}
);
layerId = "4F53612F-C4F8-4368-83AD-8913BEEF8F1D";
paths = (
{
closed = 1;
nodes = (
"44 -12 OFFCURVE",
"78 194 OFFCURVE",
"98 300 QCURVE SMOOTH",
"133 487 OFFCURVE",
"156 632 OFFCURVE",
"112 690 QCURVE SMOOTH",
"80 734 OFFCURVE",
"110 892 OFFCURVE",
"134 1040 QCURVE SMOOTH",
"150 1136 OFFCURVE",
"186 1334 OFFCURVE",
"222 1334 QCURVE SMOOTH",
"258 1334 OFFCURVE",
"224 1136 OFFCURVE",
"164 796 QCURVE",
"186 796 LINE",
"246 1136 OFFCURVE",
"284 1356 OFFCURVE",
"226 1356 QCURVE SMOOTH",
"168 1356 OFFCURVE",
"130 1138 OFFCURVE",
"112 1040 QCURVE SMOOTH",
"82 880 OFFCURVE",
"58 724 OFFCURVE",
"98 670 QCURVE SMOOTH",
"132 624 OFFCURVE",
"108 468 OFFCURVE",
"76 300 QCURVE SMOOTH",
"56 194 OFFCURVE",
"26 10 OFFCURVE",
"-14 10 QCURVE SMOOTH",
"-50 10 OFFCURVE",
"-18 194 OFFCURVE",
"48 554 QCURVE",
"26 554 LINE",
"-40 194 OFFCURVE",
"-76 -12 OFFCURVE",
"-18 -12 QCURVE SMOOTH"
);
}
);
width = 176;
},
{
anchors = (
{
name = bottom;
position = "{965, 0}";
},
{
name = top;
position = "{1204, 1350}";
}
);
layerId = "E5A4176B-9C10-4B01-BBC9-D7999ECBFAF8";
paths = (
{
closed = 1;
nodes = (
"1406 -8 OFFCURVE",
"2004 208 OFFCURVE",
"2024 470 QCURVE SMOOTH",
"2036 630 OFFCURVE",
"1760 806 OFFCURVE",
"1290 840 QCURVE SMOOTH",
"1018 860 OFFCURVE",
"668 889 OFFCURVE",
"674 926 QCURVE SMOOTH",
"680 962 OFFCURVE",
"956 994 OFFCURVE",
"1132 994 QCURVE SMOOTH",
"1286 994 OFFCURVE",
"1542 944 OFFCURVE",
"1530 874 QCURVE",
"2096 874 LINE",
"2140 1126 OFFCURVE",
"1626 1362 OFFCURVE",
"1196 1362 QCURVE SMOOTH",
"768 1362 OFFCURVE",
"134 1142 OFFCURVE",
"134 896 QCURVE SMOOTH",
"134 754 OFFCURVE",
"412 534 OFFCURVE",
"846 508 QCURVE SMOOTH",
"1106 492 OFFCURVE",
"1477 468 OFFCURVE",
"1470 426 QCURVE SMOOTH",
"1464 390 OFFCURVE",
"1198 352 OFFCURVE",
"1032 352 QCURVE SMOOTH",
"864 352 OFFCURVE",
"614 410 OFFCURVE",
"626 482 QCURVE",
"60 482 LINE",
"14 226 OFFCURVE",
"518 -8 OFFCURVE",
"974 -8 QCURVE SMOOTH"
);
}
);
width = 2198;
}
);
leftKerningGroup = S;
note = S;
rightKerningGroup = S;
unicode = 0053;
},
{
glyphname = Germandbls;
layers = (
{
anchors = (
{
name = bottom;
position = "{106, 0}";
},
{
name = top;
position = "{106, 1350}";
}
);
layerId = "A1A0948C-E637-4A65-8CCC-05505AD98C44";
paths = (
{
closed = 1;
nodes = (
"50 0 LINE",
"50 1330 LINE",
"152 1330 LINE",
"76 782 LINE",
"76 762 LINE",
"128 680 OFFCURVE",
"152 542 OFFCURVE",
"152 334 CURVE SMOOTH",
"152 106 OFFCURVE",
"124 22 OFFCURVE",
"76 22 CURVE",
"76 0 LINE",
"136 0 OFFCURVE",
"174 86 OFFCURVE",
"174 338 CURVE SMOOTH",
"174 536 OFFCURVE",
"146 698 OFFCURVE",
"96 776 CURVE",
"174 1330 LINE",
"174 1350 LINE",
"28 1350 LINE",
"28 0 LINE"
);
}
);
width = 208;
},
{
anchors = (
{
name = bottom;
position = "{399, 0}";
},
{
name = top;
position = "{399, 1350}";
}
);
layerId = "BA0CA162-2A9B-49EE-921D-3B4346C7D39F";
paths = (
{
closed = 1;
nodes = (
"362 0 LINE",
"362 1096 LINE",
"440 1096 LINE",
"386 830 LINE",
"386 576 LINE",
"404 560 OFFCURVE",
"430 506 OFFCURVE",
"430 402 CURVE SMOOTH",
"430 286 OFFCURVE",
"404 254 OFFCURVE",
"388 254 CURVE",
"388 0 LINE",
"746 0 OFFCURVE",
"786 163 OFFCURVE",
"786 418 CURVE SMOOTH",
"786 545 OFFCURVE",
"770 668 OFFCURVE",
"692 726 CURVE",
"786 1128 LINE",
"786 1350 LINE",
"12 1350 LINE",
"12 0 LINE"
);
}
);
width = 798;
},
{
anchors = (
{
name = bottom;
position = "{1023, 0}";
},
{
name = top;
position = "{1023, 1350}";
}
);
layerId = "C75D3228-2D13-4E9D-9829-45195F4951D0";
paths = (
{
closed = 1;
nodes = (
"700 0 LINE",
"700 966 LINE",
"1106 966 LINE",
"888 850 LINE",
"888 566 LINE",
"1108 566 OFFCURVE",
"1332 564 OFFCURVE",
"1332 462 CURVE SMOOTH",
"1332 356 OFFCURVE",
"1234 344 OFFCURVE",
"888 344 CURVE",
"888 0 LINE",
"1738 0 OFFCURVE",
"1906 136 OFFCURVE",
"1906 418 CURVE SMOOTH",
"1906 676 OFFCURVE",
"1712 756 OFFCURVE",
"1362 756 CURVE",
"1786 988 LINE",
"1786 1350 LINE",
"140 1350 LINE",
"140 0 LINE"
);
}
);
width = 2044;
},
{
anchors = (
{
name = bottom;
position = "{873, 0}";
},
{
name = top;
position = "{873, 1350}";
}
);
layerId = "71977205-6510-4B11-BB00-17BACA883C8F";
paths = (
{
closed = 1;
nodes = (
"172 0 LINE",
"172 1330 LINE",
"1379 1330 LINE",
"490 787 LINE",
"490 762 LINE",
"1286 774 OFFCURVE",
"1484 704 OFFCURVE",
"1484 382 CURVE SMOOTH",
"1484 102 OFFCURVE",
"1265 -24 OFFCURVE",
"490 22 CURVE",
"490 0 LINE",
"1277 -46 OFFCURVE",
"1506 86 OFFCURVE",
"1506 384 CURVE SMOOTH",
"1506 721 OFFCURVE",
"1295 792 OFFCURVE",
"519 781 CURVE",
"1416 1330 LINE",
"1416 1350 LINE",
"150 1350 LINE",
"150 0 LINE"
);
}
);
width = 1721;
},
{
anchors = (
{
name = bottom;
position = "{19, 0}";
},
{
name = top;
position = "{258, 1350}";
}
);
layerId = "4F53612F-C4F8-4368-83AD-8913BEEF8F1D";
paths = (
{
closed = 1;
nodes = (
"-46 0 LINE",
"190 1330 LINE",
"292 1330 LINE",
"118 782 LINE",
"116 762 LINE",
"152 680 OFFCURVE",
"152 542 OFFCURVE",
"116 334 CURVE SMOOTH",
"76 106 OFFCURVE",
"32 22 OFFCURVE",
"-16 22 CURVE",
"-20 0 LINE",
"40 0 OFFCURVE",
"94 86 OFFCURVE",
"138 338 CURVE SMOOTH",
"172 536 OFFCURVE",
"174 698 OFFCURVE",
"138 776 CURVE",
"314 1330 LINE",
"318 1350 LINE",
"172 1350 LINE",
"-68 0 LINE"
);
}
);
width = 210;
},
{
anchors = (
{
name = bottom;
position = "{298, 0}";
},
{
name = top;
position = "{537, 1350}";
}
);
layerId = "55C4185A-9C39-4468-B19C-DE0A3E571700";
paths = (
{
closed = 1;
nodes = (
"260 0 LINE",
"453 1096 LINE",
"531 1096 LINE",
"430 830 LINE",
"386 576 LINE",
"401 560 OFFCURVE",
"417 506 OFFCURVE",
"399 402 CURVE SMOOTH",
"378 286 OFFCURVE",
"347 254 OFFCURVE",
"331 254 CURVE",
"286 0 LINE",
"644 0 OFFCURVE",
"713 163 OFFCURVE",
"758 418 CURVE SMOOTH",
"780 545 OFFCURVE",
"786 668 OFFCURVE",
"718 726 CURVE",
"883 1128 LINE",
"922 1350 LINE",
"148 1350 LINE",
"-90 0 LINE"
);
}
);
width = 795;
},
{
anchors = (
{
name = bottom;
position = "{931, 0}";
},
{
name = top;
position = "{1170, 1350}";
}
);
layerId = "E5A4176B-9C10-4B01-BBC9-D7999ECBFAF8";
paths = (
{
closed = 1;
nodes = (
"602 0 LINE",
"772 966 LINE",
"1178 966 LINE",
"940 850 LINE",
"890 566 LINE",
"1110 566 OFFCURVE",
"1333 564 OFFCURVE",
"1315 462 CURVE SMOOTH",
"1297 356 OFFCURVE",
"1197 344 OFFCURVE",
"851 344 CURVE",
"790 0 LINE",
"1640 0 OFFCURVE",
"1832 136 OFFCURVE",
"1882 418 CURVE SMOOTH",
"1927 676 OFFCURVE",
"1747 756 OFFCURVE",
"1397 756 CURVE",
"1862 988 LINE",
"1926 1350 LINE",
"280 1350 LINE",
"42 0 LINE"
);
}
);
width = 2063;
},
{
anchors = (
{
name = bottom;
position = "{672, 0}";
},
{
name = top;
position = "{911, 1350}";
}
);
layerId = "5997A0D0-E78E-41EC-9011-DECBEAD8517D";
paths = (
{
closed = 1;
nodes = (
"53 0 LINE",
"287 1330 LINE",
"1490 1330 LINE",
"510 787 LINE",
"505 762 LINE",
"1303 774 OFFCURVE",
"1444 715 OFFCURVE",
"1444 483 CURVE SMOOTH",
"1444 110 OFFCURVE",
"1142 -24 OFFCURVE",
"375 22 CURVE",
"371 0 LINE",
"1150 -46 OFFCURVE",
"1463 91 OFFCURVE",
"1466 483 CURVE SMOOTH",
"1468 730 OFFCURVE",
"1319 792 OFFCURVE",
"541 781 CURVE",
"1531 1330 LINE",
"1535 1350 LINE",
"269 1350 LINE",
"31 0 LINE"
);
}
);
width = 1723;
}
);
leftKerningGroup = H;
leftMetricsKey = H;
rightKerningGroup = S;
rightMetricsKey = S;
unicode = 1E9E;
},
{
glyphname = Schwa;
layers = (
{
anchors = (
{
name = bottom;
position = "{90, -11}";
},
{
name = top;
position = "{91, 1350}";
}
);
layerId = "A1A0948C-E637-4A65-8CCC-05505AD98C44";
paths = (
{
closed = 1;
nodes = (
"152 -11 OFFCURVE",
"152 295 OFFCURVE",
"152 678 QCURVE SMOOTH",
"152 992 OFFCURVE",
"152 1356 OFFCURVE",
"91 1356 QCURVE",
"91 1334 LINE",
"130 1334 OFFCURVE",
"130 988 OFFCURVE",
"130 676 QCURVE SMOOTH",
"130 299 OFFCURVE",
"130 11 OFFCURVE",
"90 11 QCURVE SMOOTH",
"50 11 OFFCURVE",
"50 299 OFFCURVE",
"50 676 QCURVE",
"42 665 LINE",
"138 665 LINE",
"138 688 LINE",
"28 688 LINE",
"28 682 OFFCURVE",
"28 678 QCURVE",
"28 285 OFFCURVE",
"28 -11 OFFCURVE",
"90 -11 QCURVE SMOOTH"
);
},
{
closed = 1;
nodes = (
"50 1203 OFFCURVE",
"51 1334 OFFCURVE",
"91 1334 CURVE",
"94 1346 LINE",
"91 1356 LINE",
"30 1356 OFFCURVE",
"28 1230 OFFCURVE",
"28 890 CURVE",
"50 890 LINE"
);
}
);
width = 182;
},
{
anchors = (
{
name = bottom;
position = "{374, -9}";
},
{
name = top;
position = "{374, 1350}";
}
);
layerId = "BA0CA162-2A9B-49EE-921D-3B4346C7D39F";
paths = (
{
closed = 1;
nodes = (
"736 -9 OFFCURVE",
"736 347 OFFCURVE",
"736 677 QCURVE SMOOTH",
"736 997 OFFCURVE",
"736 1360 OFFCURVE",
"376 1360 QCURVE",
"376 1106 LINE",
"388 1106 OFFCURVE",
"388 1003 OFFCURVE",
"388 667 QCURVE SMOOTH",
"388 337 OFFCURVE",
"388 247 OFFCURVE",
"374 247 QCURVE SMOOTH",
"360 247 OFFCURVE",
"360 337 OFFCURVE",
"360 591 QCURVE",
"340 563 LINE",
"416 563 LINE",
"416 787 LINE",
"12 787 LINE",
"12 731 OFFCURVE",
"12 667 QCURVE SMOOTH",
"12 347 OFFCURVE",
"12 -9 OFFCURVE",
"374 -9 QCURVE SMOOTH"
);
},
{
closed = 1;
nodes = (
"360 1050 OFFCURVE",
"361 1106 OFFCURVE",
"376 1106 CURVE",
"394 1244 LINE",
"376 1360 LINE",
"55 1360 OFFCURVE",
"12 1258 OFFCURVE",
"12 905 CURVE",
"360 905 LINE"
);
}
);
width = 748;
},
{
anchors = (
{
name = bottom;
position = "{878, -8}";
},
{
name = top;
position = "{878, 1350}";
}
);
layerId = "71977205-6510-4B11-BB00-17BACA883C8F";
paths = (
{
closed = 1;
nodes = (
"1189 -8 OFFCURVE",
"1626 312 OFFCURVE",
"1626 667 QCURVE SMOOTH",
"1626 1035 OFFCURVE",
"1212 1361 OFFCURVE",
"878 1361 QCURVE",
"878 1339 LINE",
"1208 1339 OFFCURVE",
"1602 1018 OFFCURVE",
"1602 668 QCURVE SMOOTH",
"1602 327 OFFCURVE",
"1183 14 OFFCURVE",
"878 14 QCURVE SMOOTH",
"565 14 OFFCURVE",
"167 321 OFFCURVE",
"167 668 QCURVE",
"156 657 LINE",
"1614 657 LINE",
"1614 680 LINE",
"142 680 LINE",
"142 667 OFFCURVE",
"142 656 QCURVE SMOOTH",
"142 311 OFFCURVE",
"556 -8 OFFCURVE",
"878 -8 QCURVE SMOOTH"
);
},
{
closed = 1;
nodes = (
"178 1181 OFFCURVE",
"500 1339 OFFCURVE",
"878 1339 CURVE",
"881 1351 LINE",
"878 1361 LINE",
"482 1361 OFFCURVE",
"154 1193 OFFCURVE",
"154 975 CURVE",
"178 975 LINE"
);
}
);
width = 1820;
},
{
anchors = (
{
name = bottom;
position = "{1056, -11}";
},
{
name = top;
position = "{1034, 1350}";
}
);
layerId = "C75D3228-2D13-4E9D-9829-45195F4951D0";
paths = (
{
closed = 1;
nodes = (
"1454 -14 OFFCURVE",
"2034 314 OFFCURVE",
"2034 684 QCURVE SMOOTH",
"2034 1074 OFFCURVE",
"1450 1366 OFFCURVE",
"1036 1366 QCURVE",
"1034 1038 LINE",
"1278 1038 OFFCURVE",
"1510 906 OFFCURVE",
"1510 684 QCURVE SMOOTH",
"1510 424 OFFCURVE",
"1268 306 OFFCURVE",
"1054 306 QCURVE SMOOTH",
"880 306 OFFCURVE",
"626 392 OFFCURVE",
"626 558 QCURVE",
"620 512 LINE",
"1558 512 LINE",
"1558 836 LINE",
"98 836 LINE",
"80 778 OFFCURVE",
"80 684 QCURVE SMOOTH",
"80 331 OFFCURVE",
"636 -14 OFFCURVE",
"1056 -14 QCURVE SMOOTH"
);
},
{
closed = 1;
nodes = (
"687 1006 OFFCURVE",
"870 1038 OFFCURVE",
"1034 1038 CURVE",
"1072 1244 LINE",
"1036 1366 LINE",
"766 1366 OFFCURVE",
"283 1310 OFFCURVE",
"175 1253 CURVE",
"632 980 LINE"
);
}
);
width = 2121;
},
{
anchors = (
{
name = bottom;
position = "{2, 0}";
},
{
name = top;
position = "{232, 1350}";
}
);
layerId = "4F53612F-C4F8-4368-83AD-8913BEEF8F1D";
paths = (
{
closed = 1;
nodes = (
"53 -11 OFFCURVE",
"107 295 OFFCURVE",
"175 678 QCURVE SMOOTH",
"230 992 OFFCURVE",
"295 1356 OFFCURVE",
"234 1356 QCURVE",
"230 1334 LINE",
"269 1334 OFFCURVE",
"208 988 OFFCURVE",
"153 676 QCURVE SMOOTH",
"86 299 OFFCURVE",
"35 11 OFFCURVE",
"-5 11 QCURVE SMOOTH",
"-45 11 OFFCURVE",
"6 299 OFFCURVE",
"73 676 QCURVE",
"63 665 LINE",
"159 665 LINE",
"163 688 LINE",
"53 688 LINE",
"52 682 OFFCURVE",
"51 678 QCURVE",
"-18 285 OFFCURVE",
"-71 -11 OFFCURVE",
"-9 -11 QCURVE SMOOTH"
);
},
{
closed = 1;
nodes = (
"166 1203 OFFCURVE",
"190 1334 OFFCURVE",
"230 1334 CURVE",
"235 1346 LINE",
"234 1356 LINE",
"173 1356 OFFCURVE",
"148 1230 OFFCURVE",
"88 890 CURVE",
"110 890 LINE"
);
}
);
width = 182;
},
{
anchors = (
{
name = bottom;
position = "{266, 0}";
},
{
name = top;
position = "{504, 1350}";
}
);
layerId = "55C4185A-9C39-4468-B19C-DE0A3E571700";
paths = (
{
closed = 1;
nodes = (
"630 -9 OFFCURVE",
"693 347 OFFCURVE",
"751 677 QCURVE SMOOTH",
"808 997 OFFCURVE",
"872 1360 OFFCURVE",
"512 1360 QCURVE",
"467 1106 LINE",
"479 1106 OFFCURVE",
"461 1003 OFFCURVE",
"402 667 QCURVE SMOOTH",
"343 337 OFFCURVE",
"327 247 OFFCURVE",
"313 247 QCURVE SMOOTH",
"299 247 OFFCURVE",
"315 337 OFFCURVE",
"360 591 QCURVE",
"335 563 LINE",
"411 563 LINE",
"451 787 LINE",
"47 787 LINE",
"37 731 OFFCURVE",
"26 667 QCURVE SMOOTH",
"-31 347 OFFCURVE",
"-94 -9 OFFCURVE",
"268 -9 QCURVE SMOOTH"
);
},
{
closed = 1;
nodes = (
"441 1050 OFFCURVE",
"452 1106 OFFCURVE",
"467 1106 CURVE",
"509 1244 LINE",
"512 1360 LINE",
"191 1360 OFFCURVE",
"130 1258 OFFCURVE",
"67 905 CURVE",
"415 905 LINE"
);
}
);
width = 748;
},
{
anchors = (
{
name = bottom;
position = "{757, 0}";
},
{
name = top;
position = "{995, 1350}";
}
);
layerId = "5997A0D0-E78E-41EC-9011-DECBEAD8517D";
paths = (
{
closed = 1;
nodes = (
"1061 -8 OFFCURVE",
"1552 312 OFFCURVE",
"1614 667 QCURVE SMOOTH",
"1679 1035 OFFCURVE",
"1317 1361 OFFCURVE",
"983 1361 QCURVE",
"985 1339 LINE",
"1315 1339 OFFCURVE",
"1652 1018 OFFCURVE",
"1591 668 QCURVE SMOOTH",
"1530 327 OFFCURVE",
"1056 14 OFFCURVE",
"751 14 QCURVE SMOOTH",
"438 14 OFFCURVE",
"94 321 OFFCURVE",
"156 668 QCURVE",
"143 657 LINE",
"1601 657 LINE",
"1605 680 LINE",
"133 680 LINE",
"130 667 OFFCURVE",
"128 656 QCURVE SMOOTH",
"68 311 OFFCURVE",
"428 -8 OFFCURVE",
"750 -8 QCURVE SMOOTH"
);
},
{
closed = 1;
nodes = (
"257 1181 OFFCURVE",
"607 1339 OFFCURVE",
"985 1339 CURVE",
"990 1351 LINE",
"983 1361 LINE",
"587 1361 OFFCURVE",
"235 1193 OFFCURVE",
"197 975 CURVE",
"221 975 LINE"
);
}
);
width = 1820;
},
{
anchors = (
{
name = bottom;
position = "{934, 0}";
},
{
name = top;
position = "{1152, 1350}";
}
);
layerId = "E5A4176B-9C10-4B01-BBC9-D7999ECBFAF8";
paths = (
{
closed = 1;
nodes = (
"1332 -14 OFFCURVE",
"1970 314 OFFCURVE",
"2035 684 QCURVE SMOOTH",
"2104 1074 OFFCURVE",
"1572 1366 OFFCURVE",
"1158 1366 QCURVE",
"1098 1038 LINE",
"1342 1038 OFFCURVE",
"1551 906 OFFCURVE",
"1511 684 QCURVE SMOOTH",
"1466 424 OFFCURVE",
"1203 306 OFFCURVE",
"989 306 QCURVE SMOOTH",
"815 306 OFFCURVE",
"576 392 OFFCURVE",
"605 558 QCURVE",
"591 512 LINE",
"1529 512 LINE",
"1586 836 LINE",
"126 836 LINE",
"98 778 OFFCURVE",
"81 684 QCURVE SMOOTH",
"19 331 OFFCURVE",
"514 -14 OFFCURVE",
"934 -14 QCURVE SMOOTH"
);
},
{
closed = 1;
nodes = (
"745 1006 OFFCURVE",
"934 1038 OFFCURVE",
"1098 1038 CURVE",
"1172 1244 LINE",
"1158 1366 LINE",
"888 1366 OFFCURVE",
"395 1310 OFFCURVE",
"277 1253 CURVE",
"686 980 LINE"
);
}
);
width = 2120;
}
);
leftKerningGroup = O;
leftMetricsKey = O;
rightKerningGroup = O;
rightMetricsKey = O;
unicode = 018F;
},
{
glyphname = T;
layers = (
{
anchors = (
{
name = bottom;
position = "{73, 0}";
},
{
name = center;
position = "{79, 675}";
},
{
name = top;
position = "{79, 1350}";
}
);
layerId = "A1A0948C-E637-4A65-8CCC-05505AD98C44";
paths = (
{
closed = 1;
nodes = (
"84 0 LINE",
"84 1328 LINE",
"132 1328 LINE",
"132 1350 LINE",
"16 1350 LINE",
"16 1328 LINE",
"62 1328 LINE",
"62 0 LINE"
);
}
);
width = 148;
},
{
anchors = (
{
name = bottom;
position = "{310, 0}";
},
{
name = center;
position = "{310, 675}";
},
{
name = top;
position = "{310, 1350}";
}
);
layerId = "BA0CA162-2A9B-49EE-921D-3B4346C7D39F";
paths = (
{
closed = 1;
nodes = (
"484 0 LINE",
"484 1096 LINE",
"608 1096 LINE",
"608 1350 LINE",
"12 1350 LINE",
"12 1096 LINE",
"136 1096 LINE",
"136 0 LINE"
);
}
);
width = 620;
},
{
anchors = (
{
name = bottom;
position = "{1069, 0}";
},
{
name = center;
position = "{1069, 675}";
},
{
name = top;
position = "{1069, 1350}";
}
);
layerId = "C75D3228-2D13-4E9D-9829-45195F4951D0";
paths = (
{
closed = 1;
nodes = (
"1352 0 LINE",
"1352 988 LINE",
"2010 988 LINE",
"2010 1350 LINE",
"126 1350 LINE",
"126 988 LINE",
"786 988 LINE",
"786 0 LINE"
);
}
);
width = 2137;
},
{
anchors = (
{
name = bottom;
position = "{939, 0}";
},
{
name = center;
position = "{942, 675}";
},
{
name = top;
position = "{942, 1350}";
}
);
layerId = "71977205-6510-4B11-BB00-17BACA883C8F";
paths = (
{
closed = 1;
nodes = (
"952 0 LINE",
"952 1328 LINE",
"1762 1328 LINE",
"1762 1350 LINE",
"116 1350 LINE",
"116 1328 LINE",
"930 1328 LINE",
"930 0 LINE"
);
}
);
width = 1902;
},
{
anchors = (
{
name = bottom;
position = "{768, 0}";
},
{
name = center;
position = "{888, 675}";
},
{
name = top;
position = "{1007, 1350}";
}
);
layerId = "5997A0D0-E78E-41EC-9011-DECBEAD8517D";
paths = (
{
closed = 1;
nodes = (
"783 0 LINE",
"1017 1328 LINE",
"1827 1328 LINE",
"1831 1350 LINE",
"185 1350 LINE",
"181 1328 LINE",
"995 1328 LINE",
"761 0 LINE"
);
}
);
width = 1902;
},
{
anchors = (
{
name = bottom;
position = "{212, 0}";
},
{
name = center;
position = "{332, 675}";
},
{
name = top;
position = "{451, 1350}";
}
);
layerId = "55C4185A-9C39-4468-B19C-DE0A3E571700";
paths = (
{
closed = 1;
nodes = (
"382 0 LINE",
"575 1096 LINE",
"699 1096 LINE",
"744 1350 LINE",
"148 1350 LINE",
"103 1096 LINE",
"227 1096 LINE",
"34 0 LINE"
);
}
);
width = 620;
},
{
anchors = (
{
name = bottom;
position = "{-20, 0}";
},
{
name = center;
position = "{100, 675}";
},
{
name = top;
position = "{219, 1350}";
}
);
layerId = "4F53612F-C4F8-4368-83AD-8913BEEF8F1D";
paths = (
{
closed = 1;
nodes = (
"-12 0 LINE",
"222 1328 LINE",
"268 1328 LINE",
"272 1350 LINE",
"156 1350 LINE",
"154 1328 LINE",
"200 1328 LINE",
"-34 0 LINE"
);
}
);
width = 148;
},
{
anchors = (
{
name = bottom;
position = "{959, 0}";
},
{
name = center;
position = "{1079, 675}";
},
{
name = top;
position = "{1198, 1350}";
}
);
layerId = "E5A4176B-9C10-4B01-BBC9-D7999ECBFAF8";
paths = (
{
closed = 1;
nodes = (
"1232 0 LINE",
"1406 988 LINE",
"2064 988 LINE",
"2128 1350 LINE",
"244 1350 LINE",
"180 988 LINE",
"840 988 LINE",
"666 0 LINE"
);
}
);
width = 2137;
}
);
leftKerningGroup = T;
note = T;
rightKerningGroup = T;
unicode = 0054;
},
{
glyphname = Tbar;
layers = (
{
components = (
{
name = T;
}
);
layerId = "A1A0948C-E637-4A65-8CCC-05505AD98C44";
paths = (
{
closed = 1;
nodes = (
"130 966 LINE",
"130 988 LINE",
"20 988 LINE",
"20 966 LINE"
);
}
);
width = 148;
},
{
components = (
{
name = T;
}
);
layerId = "BA0CA162-2A9B-49EE-921D-3B4346C7D39F";
paths = (
{
closed = 1;
nodes = (
"580 696 LINE",
"580 920 LINE",
"30 920 LINE",
"30 696 LINE"
);
}
);
width = 620;
},
{
components = (
{
name = T;
}
);
layerId = "C75D3228-2D13-4E9D-9829-45195F4951D0";
paths = (
{
closed = 1;
nodes = (
"1870 500 LINE",
"1870 804 LINE",
"302 804 LINE",
"302 500 LINE"
);
}
);
width = 2137;
},
{
components = (
{
name = T;
}
);
layerId = "71977205-6510-4B11-BB00-17BACA883C8F";
paths = (
{
closed = 1;
nodes = (
"1628 807 LINE",
"1628 829 LINE",
"239 829 LINE",
"239 807 LINE"
);
}
);
width = 1902;
},
{
components = (
{
name = T;
}
);
layerId = "5997A0D0-E78E-41EC-9011-DECBEAD8517D";
paths = (
{
closed = 1;
nodes = (
"1524 828 LINE",
"1528 850 LINE",
"306 850 LINE",
"302 828 LINE"
);
}
);
width = 1902;
},
{
components = (
{
name = T;
}
);
layerId = "55C4185A-9C39-4468-B19C-DE0A3E571700";
paths = (
{
closed = 1;
nodes = (
"609 696 LINE",
"651 920 LINE",
"103 920 LINE",
"59 696 LINE"
);
}
);
width = 620;
},
{
components = (
{
name = T;
}
);
layerId = "4F53612F-C4F8-4368-83AD-8913BEEF8F1D";
paths = (
{
closed = 1;
nodes = (
"208 966 LINE",
"212 988 LINE",
"102 988 LINE",
"98 966 LINE"
);
}
);
width = 152;
},
{
components = (
{
name = T;
}
);
layerId = "E5A4176B-9C10-4B01-BBC9-D7999ECBFAF8";
paths = (
{
closed = 1;
nodes = (
"1854 500 LINE",
"1906 804 LINE",
"338 804 LINE",
"286 500 LINE"
);
}
);
width = 2137;
}
);
leftKerningGroup = T;
leftMetricsKey = T;
rightKerningGroup = T;
rightMetricsKey = T;
unicode = 0166;
},
{
glyphname = U;
layers = (
{
anchors = (
{
name = bottom;
position = "{95, 0}";
},
{
name = ogonek;
position = "{97, 0}";
},
{
name = top;
position = "{95, 1350}";
},
{
name = topright;
position = "{147, 1302}";
}
);
layerId = "A1A0948C-E637-4A65-8CCC-05505AD98C44";
paths = (
{
closed = 1;
nodes = (
"120 -12 OFFCURVE",
"148 52 OFFCURVE",
"148 156 QCURVE SMOOTH",
"148 1350 LINE",
"126 1350 LINE",
"126 160 LINE SMOOTH",
"126 60 OFFCURVE",
"108 10 OFFCURVE",
"90 10 QCURVE SMOOTH",
"72 10 OFFCURVE",
"54 60 OFFCURVE",
"54 160 QCURVE SMOOTH",
"54 1350 LINE",
"32 1350 LINE",
"32 156 LINE SMOOTH",
"32 52 OFFCURVE",
"60 -12 OFFCURVE",
"90 -12 QCURVE SMOOTH"
);
}
);
width = 190;
},
{
anchors = (
{
name = bottom;
position = "{372, 0}";
},
{
name = ogonek;
position = "{377, 0}";
},
{
name = top;
position = "{372, 1350}";
},
{
name = topright;
position = "{730, 1252}";
}
);
layerId = "BA0CA162-2A9B-49EE-921D-3B4346C7D39F";
paths = (
{
closed = 1;
nodes = (
"570 -8 OFFCURVE",
"732 120 OFFCURVE",
"732 264 QCURVE SMOOTH",
"732 1350 LINE",
"384 1350 LINE",
"384 312 LINE SMOOTH",
"384 280 OFFCURVE",
"382 246 OFFCURVE",
"372 246 QCURVE SMOOTH",
"362 246 OFFCURVE",
"360 280 OFFCURVE",
"360 312 QCURVE SMOOTH",
"360 1350 LINE",
"12 1350 LINE",
"12 264 LINE SMOOTH",
"12 120 OFFCURVE",
"174 -8 OFFCURVE",
"372 -8 QCURVE SMOOTH"
);
}
);
width = 744;
},
{
anchors = (
{
name = bottom;
position = "{1137, 0}";
},
{
name = ogonek;
position = "{1122, 0}";
},
{
name = top;
position = "{1137, 1350}";
},
{
name = topright;
position = "{2111, 1193}";
}
);
layerId = "C75D3228-2D13-4E9D-9829-45195F4951D0";
paths = (
{
closed = 1;
nodes = (
"1614 -8 OFFCURVE",
"2114 306 OFFCURVE",
"2114 682 QCURVE SMOOTH",
"2114 1350 LINE",
"1548 1350 LINE",
"1548 726 LINE SMOOTH",
"1548 526 OFFCURVE",
"1354 354 OFFCURVE",
"1122 354 QCURVE SMOOTH",
"890 354 OFFCURVE",
"696 528 OFFCURVE",
"696 726 QCURVE SMOOTH",
"696 1350 LINE",
"130 1350 LINE",
"130 682 LINE SMOOTH",
"130 306 OFFCURVE",
"630 -8 OFFCURVE",
"1122 -8 QCURVE SMOOTH"
);
}
);
width = 2273;
},
{
anchors = (
{
name = bottom;
position = "{998, 0}";
},
{
name = ogonek;
position = "{996, 0}";
},
{
name = top;
position = "{998, 1350}";
},
{
name = topright;
position = "{1787, 1192}";
}
);
layerId = "71977205-6510-4B11-BB00-17BACA883C8F";
paths = (
{
closed = 1;
nodes = (
"1367 -7 OFFCURVE",
"1789 289 OFFCURVE",
"1789 612 QCURVE SMOOTH",
"1789 1348 LINE",
"1767 1348 LINE",
"1767 627 LINE SMOOTH",
"1767 309 OFFCURVE",
"1367 15 OFFCURVE",
"997 15 QCURVE SMOOTH",
"627 15 OFFCURVE",
"227 309 OFFCURVE",
"227 627 QCURVE SMOOTH",
"227 1348 LINE",
"205 1348 LINE",
"205 612 LINE SMOOTH",
"205 289 OFFCURVE",
"627 -7 OFFCURVE",
"997 -7 QCURVE SMOOTH"
);
}
);
width = 2070;
},
{
anchors = (
{
name = bottom;
position = "{887, 0}";
},
{
name = ogonek;
position = "{854, 0}";
},
{
name = top;
position = "{1131, 1350}";
},
{
name = topright;
position = "{1859, 1192}";
}
);
layerId = "5997A0D0-E78E-41EC-9011-DECBEAD8517D";
paths = (
{
closed = 1;
nodes = (
"1228 -7 OFFCURVE",
"1702 289 OFFCURVE",
"1759 612 QCURVE SMOOTH",
"1888 1348 LINE",
"1866 1348 LINE",
"1739 627 LINE SMOOTH",
"1683 309 OFFCURVE",
"1231 15 OFFCURVE",
"861 15 QCURVE SMOOTH",
"491 15 OFFCURVE",
"143 309 OFFCURVE",
"199 627 QCURVE SMOOTH",
"326 1348 LINE",
"304 1348 LINE",
"175 612 LINE SMOOTH",
"118 289 OFFCURVE",
"488 -7 OFFCURVE",
"858 -7 QCURVE SMOOTH"
);
}
);
width = 2070;
},
{
anchors = (
{
name = bottom;
position = "{273, 0}";
},
{
name = ogonek;
position = "{284, 0}";
},
{
name = top;
position = "{512, 1350}";
},
{
name = topright;
position = "{842, 1252}";
}
);
layerId = "55C4185A-9C39-4468-B19C-DE0A3E571700";
paths = (
{
closed = 1;
nodes = (
"466 -8 OFFCURVE",
"651 120 OFFCURVE",
"676 264 QCURVE SMOOTH",
"868 1350 LINE",
"520 1350 LINE",
"337 312 LINE SMOOTH",
"331 280 OFFCURVE",
"323 246 OFFCURVE",
"313 246 QCURVE SMOOTH",
"303 246 OFFCURVE",
"307 280 OFFCURVE",
"313 312 QCURVE SMOOTH",
"496 1350 LINE",
"148 1350 LINE",
"-44 264 LINE SMOOTH",
"-69 120 OFFCURVE",
"70 -8 OFFCURVE",
"268 -8 QCURVE SMOOTH"
);
}
);
width = 744;
},
{
anchors = (
{
name = bottom;
position = "{-10, 0}";
},
{
name = ogonek;
position = "{1, 0}";
},
{
name = top;
position = "{236, 1350}";
},
{
name = topright;
position = "{281, 1302}";
}
);
layerId = "4F53612F-C4F8-4368-83AD-8913BEEF8F1D";
paths = (
{
closed = 1;
nodes = (
"21 -12 OFFCURVE",
"62 52 OFFCURVE",
"80 156 QCURVE SMOOTH",
"290 1350 LINE",
"268 1350 LINE",
"58 160 LINE SMOOTH",
"40 60 OFFCURVE",
"14 10 OFFCURVE",
"-6 10 QCURVE SMOOTH",
"-24 10 OFFCURVE",
"-34 60 OFFCURVE",
"-16 160 QCURVE SMOOTH",
"196 1350 LINE",
"174 1350 LINE",
"-38 156 LINE SMOOTH",
"-56 52 OFFCURVE",
"-40 -12 OFFCURVE",
"-10 -12 QCURVE SMOOTH"
);
}
);
width = 190;
},
{
anchors = (
{
name = bottom;
position = "{1042, 0}";
},
{
name = ogonek;
position = "{1022, 0}";
},
{
name = top;
position = "{1271, 1350}";
},
{
name = topright;
position = "{2206, 1193}";
}
);
layerId = "E5A4176B-9C10-4B01-BBC9-D7999ECBFAF8";
paths = (
{
closed = 1;
nodes = (
"1502 -8 OFFCURVE",
"2058 306 OFFCURVE",
"2124 682 QCURVE SMOOTH",
"2242 1350 LINE",
"1676 1350 LINE",
"1566 726 LINE SMOOTH",
"1529 516 OFFCURVE",
"1326 354 OFFCURVE",
"1074 354 QCURVE SMOOTH",
"823 354 OFFCURVE",
"677 518 OFFCURVE",
"714 726 QCURVE SMOOTH",
"824 1350 LINE",
"258 1350 LINE",
"140 682 LINE SMOOTH",
"74 306 OFFCURVE",
"518 -8 OFFCURVE",
"1010 -8 QCURVE SMOOTH"
);
}
);
width = 2273;
}
);
leftKerningGroup = U;
note = U;
rightKerningGroup = U;
unicode = 0055;
},
{
glyphname = V;
lastChange = "2020-04-16 14:52:36 +0000";
layers = (
{
anchors = (
{
name = bottom;
position = "{92, 0}";
},
{
name = top;
position = "{92, 1350}";
}
);
layerId = "A1A0948C-E637-4A65-8CCC-05505AD98C44";
paths = (
{
closed = 1;
nodes = (
"106 0 LINE",
"156 1350 LINE",
"134 1350 LINE",
"88 22 LINE",
"80 22 LINE",
"34 1350 LINE",
"12 1350 LINE",
"62 0 LINE"
);
}
);
width = 174;
},
{
anchors = (
{
name = bottom;
position = "{386, 0}";
},
{
name = top;
position = "{386, 1350}";
}
);
layerId = "BA0CA162-2A9B-49EE-921D-3B4346C7D39F";
paths = (
{
closed = 1;
nodes = (
"662 0 LINE",
"762 1350 LINE",
"408 1350 LINE",
"388 250 LINE",
"384 250 LINE",
"366 1350 LINE",
"10 1350 LINE",
"110 0 LINE"
);
}
);
width = 772;
},
{
anchors = (
{
name = bottom;
position = "{1116, 0}";
},
{
name = top;
position = "{1116, 1350}";
}
);
layerId = "C75D3228-2D13-4E9D-9829-45195F4951D0";
paths = (
{
closed = 1;
nodes = (
"1526 0 LINE",
"2140 1350 LINE",
"1568 1350 LINE",
"1100 270 LINE",
"1124 270 LINE",
"652 1350 LINE",
"80 1350 LINE",
"696 0 LINE"
);
}
);
width = 2232;
},
{
anchors = (
{
name = bottom;
position = "{931, 0}";
},
{
name = top;
position = "{931, 1350}";
}
);
layerId = "71977205-6510-4B11-BB00-17BACA883C8F";
paths = (
{
closed = 1;
nodes = (
"951 0 LINE",
"1760 1350 LINE",
"1734 1350 LINE",
"931 10 LINE",
"934 10 LINE",
"134 1350 LINE",
"107 1350 LINE",
"912 0 LINE"
);
}
);
width = 1934;
},
{
anchors = (
{
name = bottom;
position = "{799, 0}";
},
{
name = top;
position = "{998, 1350}";
}
);
layerId = "5997A0D0-E78E-41EC-9011-DECBEAD8517D";
paths = (
{
closed = 1;
nodes = (
"822 0 LINE",
"1869 1350 LINE",
"1841 1350 LINE",
"802 10 LINE",
"805 10 LINE",
"241 1350 LINE",
"216 1350 LINE",
"783 0 LINE"
);
}
);
width = 1934;
},
{
anchors = (
{
name = bottom;
position = "{291, 0}";
},
{
name = top;
position = "{530, 1350}";
}
);
layerId = "55C4185A-9C39-4468-B19C-DE0A3E571700";
paths = (
{
closed = 1;
nodes = (
"563 0 LINE",
"901 1350 LINE",
"542 1350 LINE",
"328 250 LINE",
"324 250 LINE",
"500 1350 LINE",
"149 1350 LINE",
"11 0 LINE"
);
}
);
width = 772;
},
{
anchors = (
{
name = bottom;
position = "{-13, 0}";
},
{
name = top;
position = "{226, 1350}";
}
);
layerId = "4F53612F-C4F8-4368-83AD-8913BEEF8F1D";
paths = (
{
closed = 1;
nodes = (
"4 0 LINE",
"294 1350 LINE",
"272 1350 LINE",
"-10 22 LINE",
"-18 22 LINE",
"172 1350 LINE",
"150 1350 LINE",
"-40 0 LINE"
);
}
);
width = 174;
},
{
anchors = (
{
name = bottom;
position = "{1011, 0}";
},
{
name = top;
position = "{1250, 1350}";
}
);
layerId = "E5A4176B-9C10-4B01-BBC9-D7999ECBFAF8";
paths = (
{
closed = 1;
nodes = (
"1396 0 LINE",
"2248 1350 LINE",
"1668 1350 LINE",
"1008 270 LINE",
"1032 270 LINE",
"752 1350 LINE",
"186 1350 LINE",
"564 0 LINE"
);
}
);
width = 2232;
}
);
leftKerningGroup = V;
note = V;
rightKerningGroup = V;
unicode = 0056;
},
{
glyphname = V.ss01;
lastChange = "2020-04-16 18:03:22 +0000";
layers = (
{
anchors = (
{
name = bottom;
position = "{92, 0}";
},
{
name = top;
position = "{92, 1350}";
}
);
layerId = "A1A0948C-E637-4A65-8CCC-05505AD98C44";
paths = (
{
closed = 1;
nodes = (
"106 0 LINE",
"156 924 LINE",
"156 1350 LINE",
"134 1350 LINE",
"134 924 LINE",
"88 22 LINE",
"80 22 LINE",
"34 924 LINE",
"34 1350 LINE",
"12 1350 LINE",
"12 924 LINE",
"62 0 LINE"
);
}
);
width = 174;
},
{
anchors = (
{
name = bottom;
position = "{388, 0}";
},
{
name = top;
position = "{388, 1350}";
}
);
layerId = "BA0CA162-2A9B-49EE-921D-3B4346C7D39F";
paths = (
{
closed = 1;
nodes = (
"674 0 LINE",
"764 751 LINE",
"764 1350 LINE",
"410 1350 LINE",
"410 857 LINE",
"392 250 LINE",
"384 250 LINE",
"368 857 LINE",
"368 1350 LINE",
"12 1350 LINE",
"12 751 LINE",
"102 0 LINE"
);
}
);
width = 776;
},
{
anchors = (
{
name = bottom;
position = "{934, 0}";
},
{
name = top;
position = "{933, 1350}";
}
);
layerId = "71977205-6510-4B11-BB00-17BACA883C8F";
paths = (
{
closed = 1;
nodes = (
"951 0 LINE",
"1760 1078 LINE",
"1760 1350 LINE",
"1738 1350 LINE",
"1738 1088 LINE",
"931 10 LINE",
"934 10 LINE",
"129 1088 LINE",
"129 1350 LINE",
"107 1350 LINE",
"107 1078 LINE",
"912 0 LINE"
);
}
);
width = 1934;
},
{
anchors = (
{
name = bottom;
position = "{1116, 0}";
},
{
name = top;
position = "{1116, 1350}";
}
);
layerId = "C75D3228-2D13-4E9D-9829-45195F4951D0";
paths = (
{
closed = 1;
nodes = (
"1526 0 LINE",
"2140 973 LINE",
"2140 1350 LINE",
"1574 1350 LINE",
"1574 1023 LINE",
"1100 270 LINE",
"1124 270 LINE",
"646 1023 LINE",
"646 1350 LINE",
"80 1350 LINE",
"80 973 LINE",
"696 0 LINE"
);
}
);
width = 2232;
},
{
anchors = (
{
name = bottom;
position = "{-19, 0}";
},
{
name = top;
position = "{219, 1350}";
}
);
layerId = "4F53612F-C4F8-4368-83AD-8913BEEF8F1D";
paths = (
{
closed = 1;
nodes = (
"7 0 LINE",
"220 924 LINE",
"295 1350 LINE",
"273 1350 LINE",
"198 924 LINE",
"-7 22 LINE",
"-15 22 LINE",
"98 924 LINE",
"173 1350 LINE",
"151 1350 LINE",
"76 924 LINE",
"-37 0 LINE"
);
}
);
width = 174;
},
{
anchors = (
{
name = bottom;
position = "{282, 0}";
},
{
name = top;
position = "{520, 1350}";
}
);
layerId = "55C4185A-9C39-4468-B19C-DE0A3E571700";
paths = (
{
closed = 1;
nodes = (
"572 0 LINE",
"794 751 LINE",
"900 1350 LINE",
"546 1350 LINE",
"459 857 LINE",
"330 250 LINE",
"322 250 LINE",
"417 857 LINE",
"504 1350 LINE",
"148 1350 LINE",
"42 751 LINE",
"0 0 LINE"
);
}
);
width = 776;
},
{
anchors = (
{
name = bottom;
position = "{817, 0}";
},
{
name = top;
position = "{1053, 1350}";
}
);
layerId = "5997A0D0-E78E-41EC-9011-DECBEAD8517D";
paths = (
{
closed = 1;
nodes = (
"832 0 LINE",
"1831 1078 LINE",
"1879 1350 LINE",
"1857 1350 LINE",
"1812 1091 LINE",
"811 10 LINE",
"814 10 LINE",
"201 1083 LINE",
"248 1350 LINE",
"226 1350 LINE",
"178 1078 LINE",
"793 0 LINE"
);
}
);
width = 1934;
},
{
anchors = (
{
name = bottom;
position = "{1013, 0}";
},
{
name = top;
position = "{1251, 1350}";
}
);
layerId = "E5A4176B-9C10-4B01-BBC9-D7999ECBFAF8";
paths = (
{
closed = 1;
nodes = (
"1407 0 LINE",
"2193 973 LINE",
"2259 1350 LINE",
"1693 1350 LINE",
"1635 1023 LINE",
"1029 270 LINE",
"1053 270 LINE",
"707 1023 LINE",
"765 1350 LINE",
"199 1350 LINE",
"133 973 LINE",
"577 0 LINE"
);
}
);
width = 2232;
}
);
leftKerningGroup = V;
rightKerningGroup = V;
},
{
glyphname = W;
layers = (
{
anchors = (
{
name = bottom;
position = "{163, 0}";
},
{
name = top;
position = "{163, 1350}";
}
);
layerId = "A1A0948C-E637-4A65-8CCC-05505AD98C44";
paths = (
{
closed = 1;
nodes = (
"108 0 LINE",
"156 1328 LINE",
"160 1328 LINE",
"206 0 LINE",
"250 0 LINE",
"288 1350 LINE",
"266 1350 LINE",
"230 20 LINE",
"226 20 LINE",
"180 1350 LINE",
"136 1350 LINE",
"88 20 LINE",
"84 20 LINE",
"50 1350 LINE",
"28 1350 LINE",
"64 0 LINE"
);
}
);
width = 326;
},
{
anchors = (
{
name = bottom;
position = "{609, 0}";
},
{
name = top;
position = "{609, 1350}";
}
);
layerId = "BA0CA162-2A9B-49EE-921D-3B4346C7D39F";
paths = (
{
closed = 1;
nodes = (
"580 0 LINE",
"608 1086 LINE",
"612 1086 LINE",
"638 0 LINE",
"1144 0 LINE",
"1210 1350 LINE",
"852 1350 LINE",
"852 254 LINE",
"848 254 LINE",
"788 1350 LINE",
"430 1350 LINE",
"370 254 LINE",
"366 254 LINE",
"366 1350 LINE",
"8 1350 LINE",
"74 0 LINE"
);
}
);
width = 1218;
},
{
anchors = (
{
name = bottom;
position = "{1610, 0}";
},
{
name = top;
position = "{1610, 1350}";
}
);
layerId = "C75D3228-2D13-4E9D-9829-45195F4951D0";
paths = (
{
closed = 1;
nodes = (
"1326 0 LINE",
"1606 1070 LINE",
"1568 1070 LINE",
"1844 0 LINE",
"2730 0 LINE",
"3140 1350 LINE",
"2514 1350 LINE",
"2246 294 LINE",
"2306 294 LINE",
"2002 1350 LINE",
"1172 1350 LINE",
"868 294 LINE",
"928 294 LINE",
"678 1350 LINE",
"52 1350 LINE",
"444 0 LINE"
);
}
);
width = 3220;
},
{
anchors = (
{
name = bottom;
position = "{1375, 0}";
},
{
name = top;
position = "{1375, 1350}";
}
);
layerId = "71977205-6510-4B11-BB00-17BACA883C8F";
paths = (
{
closed = 1;
nodes = (
"701 0 LINE",
"1350 1328 LINE",
"1352 1328 LINE",
"2003 0 LINE",
"2034 0 LINE",
"2573 1350 LINE",
"2546 1350 LINE",
"2019 25 LINE",
"2018 25 LINE",
"1367 1350 LINE",
"1334 1350 LINE",
"687 25 LINE",
"686 25 LINE",
"156 1350 LINE",
"129 1350 LINE",
"670 0 LINE"
);
}
);
width = 2750;
},
{
anchors = (
{
name = bottom;
position = "{1232, 0}";
},
{
name = top;
position = "{1471, 1350}";
}
);
layerId = "5997A0D0-E78E-41EC-9011-DECBEAD8517D";
paths = (
{
closed = 1;
nodes = (
"582 0 LINE",
"1465 1328 LINE",
"1467 1328 LINE",
"1884 0 LINE",
"1915 0 LINE",
"2692 1350 LINE",
"2664 1350 LINE",
"1903 25 LINE",
"1902 25 LINE",
"1485 1350 LINE",
"1452 1350 LINE",
"571 25 LINE",
"570 25 LINE",
"274 1350 LINE",
"248 1350 LINE",
"551 0 LINE"
);
}
);
width = 2750;
},
{
anchors = (
{
name = bottom;
position = "{494, 0}";
},
{
name = top;
position = "{733, 1350}";
}
);
layerId = "55C4185A-9C39-4468-B19C-DE0A3E571700";
paths = (
{
closed = 1;
nodes = (
"474 0 LINE",
"693 1086 LINE",
"697 1086 LINE",
"532 0 LINE",
"1038 0 LINE",
"1342 1350 LINE",
"979 1350 LINE",
"786 254 LINE",
"782 254 LINE",
"915 1350 LINE",
"557 1350 LINE",
"304 254 LINE",
"300 254 LINE",
"493 1350 LINE",
"140 1350 LINE",
"-32 0 LINE"
);
}
);
width = 1218;
},
{
anchors = (
{
name = bottom;
position = "{69, 0}";
},
{
name = top;
position = "{308, 1350}";
}
);
layerId = "4F53612F-C4F8-4368-83AD-8913BEEF8F1D";
paths = (
{
closed = 1;
nodes = (
"12 0 LINE",
"296 1328 LINE",
"300 1328 LINE",
"110 0 LINE",
"154 0 LINE",
"432 1350 LINE",
"410 1350 LINE",
"138 20 LINE",
"134 20 LINE",
"324 1350 LINE",
"278 1350 LINE",
"-4 20 LINE",
"-8 20 LINE",
"194 1350 LINE",
"172 1350 LINE",
"-32 0 LINE"
);
}
);
width = 326;
},
{
anchors = (
{
name = bottom;
position = "{1494, 0}";
},
{
name = top;
position = "{1733, 1350}";
}
);
layerId = "E5A4176B-9C10-4B01-BBC9-D7999ECBFAF8";
paths = (
{
closed = 1;
nodes = (
"1207 0 LINE",
"1676 1070 LINE",
"1638 1070 LINE",
"1725 0 LINE",
"2611 0 LINE",
"3259 1350 LINE",
"2633 1350 LINE",
"2179 294 LINE",
"2239 294 LINE",
"2121 1350 LINE",
"1291 1350 LINE",
"801 294 LINE",
"861 294 LINE",
"797 1350 LINE",
"171 1350 LINE",
"325 0 LINE"
);
}
);
width = 3220;
}
);
leftKerningGroup = W;
note = W;
rightKerningGroup = W;
unicode = 0057;
},
{
glyphname = X;
layers = (
{
anchors = (
{
name = bottom;
position = "{95, 0}";
},
{
name = top;
position = "{95, 1350}";
}
);
layerId = "A1A0948C-E637-4A65-8CCC-05505AD98C44";
paths = (
{
closed = 1;
nodes = (
"38 0 LINE",
"90 656 LINE",
"142 0 LINE",
"164 0 LINE",
"111 668 LINE",
"162 1350 LINE",
"140 1350 LINE",
"90 680 LINE",
"42 1350 LINE",
"20 1350 LINE",
"69 668 LINE",
"16 0 LINE"
);
}
);
width = 190;
},
{
anchors = (
{
name = bottom;
position = "{404, 0}";
},
{
name = top;
position = "{404, 1350}";
}
);
layerId = "BA0CA162-2A9B-49EE-921D-3B4346C7D39F";
paths = (
{
closed = 1;
nodes = (
"368 0 LINE",
"404 522 LINE",
"440 0 LINE",
"804 0 LINE",
"704 668 LINE",
"798 1350 LINE",
"434 1350 LINE",
"404 814 LINE",
"374 1350 LINE",
"10 1350 LINE",
"104 668 LINE",
"4 0 LINE"
);
}
);
width = 808;
},
{
anchors = (
{
name = bottom;
position = "{1102, 0}";
},
{
name = top;
position = "{1102, 1350}";
}
);
layerId = "C75D3228-2D13-4E9D-9829-45195F4951D0";
paths = (
{
closed = 1;
nodes = (
"684 0 LINE",
"1102 430 LINE",
"1522 0 LINE",
"2204 0 LINE",
"1478 668 LINE",
"2184 1350 LINE",
"1502 1350 LINE",
"1102 906 LINE",
"704 1350 LINE",
"20 1350 LINE",
"722 668 LINE",
"0 0 LINE"
);
}
);
width = 2204;
},
{
anchors = (
{
name = bottom;
position = "{954, 0}";
},
{
name = top;
position = "{954, 1350}";
}
);
layerId = "71977205-6510-4B11-BB00-17BACA883C8F";
paths = (
{
closed = 1;
nodes = (
"128 0 LINE",
"909 661 LINE",
"1690 0 LINE",
"1726 0 LINE",
"933 668 LINE",
"1704 1350 LINE",
"1668 1350 LINE",
"909 675 LINE",
"150 1350 LINE",
"114 1350 LINE",
"885 668 LINE",
"92 0 LINE"
);
}
);
width = 1908;
},
{
anchors = (
{
name = bottom;
position = "{747, 0}";
},
{
name = top;
position = "{986, 1350}";
}
);
layerId = "5997A0D0-E78E-41EC-9011-DECBEAD8517D";
paths = (
{
closed = 1;
nodes = (
"29 0 LINE",
"927 661 LINE",
"1591 0 LINE",
"1625 0 LINE",
"952 668 LINE",
"1843 1350 LINE",
"1805 1350 LINE",
"929 675 LINE",
"287 1350 LINE",
"253 1350 LINE",
"904 668 LINE",
"-9 0 LINE"
);
}
);
width = 1908;
},
{
anchors = (
{
name = bottom;
position = "{303, 0}";
},
{
name = top;
position = "{542, 1350}";
}
);
layerId = "55C4185A-9C39-4468-B19C-DE0A3E571700";
paths = (
{
closed = 1;
nodes = (
"264 0 LINE",
"392 522 LINE",
"336 0 LINE",
"700 0 LINE",
"718 668 LINE",
"932 1350 LINE",
"568 1350 LINE",
"444 814 LINE",
"508 1350 LINE",
"144 1350 LINE",
"118 668 LINE",
"-100 0 LINE"
);
}
);
width = 808;
},
{
anchors = (
{
name = bottom;
position = "{1, 0}";
},
{
name = top;
position = "{240, 1350}";
}
);
layerId = "4F53612F-C4F8-4368-83AD-8913BEEF8F1D";
paths = (
{
closed = 1;
nodes = (
"-54 0 LINE",
"112 654 LINE",
"50 0 LINE",
"72 0 LINE",
"134 668 LINE",
"308 1350 LINE",
"286 1350 LINE",
"118 682 LINE",
"186 1350 LINE",
"164 1350 LINE",
"96 668 LINE",
"-78 0 LINE"
);
}
);
width = 190;
},
{
anchors = (
{
name = bottom;
position = "{1007, 0}";
},
{
name = top;
position = "{1246, 1350}";
}
);
layerId = "E5A4176B-9C10-4B01-BBC9-D7999ECBFAF8";
paths = (
{
closed = 1;
nodes = (
"590 0 LINE",
"1084 430 LINE",
"1428 0 LINE",
"2110 0 LINE",
"1502 668 LINE",
"2330 1350 LINE",
"1648 1350 LINE",
"1168 906 LINE",
"850 1350 LINE",
"166 1350 LINE",
"746 668 LINE",
"-94 0 LINE"
);
}
);
width = 2204;
}
);
leftKerningGroup = X;
note = X;
rightKerningGroup = X;
unicode = 0058;
},
{
glyphname = Y;
layers = (
{
anchors = (
{
name = bottom;
position = "{82, 0}";
},
{
name = top;
position = "{82, 1350}";
},
{
name = topleft;
position = "{10, 1350}";
}
);
layerId = "A1A0948C-E637-4A65-8CCC-05505AD98C44";
paths = (
{
closed = 1;
nodes = (
"88 478 LINE",
"141 1350 LINE",
"119 1350 LINE",
"76 529 LINE",
"78 529 LINE",
"35 1350 LINE",
"13 1350 LINE",
"66 478 LINE"
);
},
{
closed = 1;
nodes = (
"88 0 LINE",
"88 500 LINE",
"66 500 LINE",
"66 0 LINE"
);
}
);
width = 160;
},
{
anchors = (
{
name = bottom;
position = "{398, 0}";
},
{
name = top;
position = "{398, 1350}";
},
{
name = topleft;
position = "{20, 1350}";
}
);
layerId = "BA0CA162-2A9B-49EE-921D-3B4346C7D39F";
paths = (
{
closed = 1;
nodes = (
"568 266 LINE",
"788 1350 LINE",
"426 1350 LINE",
"402 680 LINE",
"398 680 LINE",
"372 1350 LINE",
"10 1350 LINE",
"232 266 LINE"
);
},
{
closed = 1;
nodes = (
"574 0 LINE",
"574 552 LINE",
"226 552 LINE",
"226 0 LINE"
);
}
);
width = 796;
},
{
anchors = (
{
name = bottom;
position = "{1143, 0}";
},
{
name = top;
position = "{1143, 1350}";
},
{
name = topleft;
position = "{20, 1350}";
}
);
layerId = "C75D3228-2D13-4E9D-9829-45195F4951D0";
paths = (
{
closed = 1;
nodes = (
"1414 528 LINE",
"2288 1350 LINE",
"1652 1350 LINE",
"1110 822 LINE",
"1184 822 LINE",
"638 1350 LINE",
"2 1350 LINE",
"878 528 LINE"
);
},
{
closed = 1;
nodes = (
"1428 0 LINE",
"1428 754 LINE",
"864 754 LINE",
"864 0 LINE"
);
}
);
width = 2285;
},
{
anchors = (
{
name = bottom;
position = "{993, 0}";
},
{
name = top;
position = "{953, 1350}";
},
{
name = topleft;
position = "{0, 1350}";
}
);
layerId = "71977205-6510-4B11-BB00-17BACA883C8F";
paths = (
{
closed = 1;
nodes = (
"956 625 LINE",
"1782 1350 LINE",
"1750 1350 LINE",
"948 646 LINE",
"954 646 LINE",
"152 1350 LINE",
"120 1350 LINE",
"947 625 LINE"
);
},
{
closed = 1;
nodes = (
"962 0 LINE",
"962 644 LINE",
"940 644 LINE",
"940 0 LINE"
);
}
);
width = 1962;
},
{
anchors = (
{
name = bottom;
position = "{817, 0}";
},
{
name = top;
position = "{1067, 1350}";
},
{
name = topleft;
position = "{184, 1350}";
}
);
layerId = "5997A0D0-E78E-41EC-9011-DECBEAD8517D";
paths = (
{
closed = 1;
nodes = (
"917 625 LINE",
"1871 1350 LINE",
"1837 1350 LINE",
"911 646 LINE",
"917 646 LINE",
"239 1350 LINE",
"209 1350 LINE",
"908 625 LINE"
);
},
{
closed = 1;
nodes = (
"813 0 LINE",
"927 644 LINE",
"905 644 LINE",
"791 0 LINE"
);
}
);
width = 1962;
},
{
anchors = (
{
name = bottom;
position = "{300, 0}";
},
{
name = top;
position = "{539, 1350}";
},
{
name = topleft;
position = "{164, 1350}";
}
);
layerId = "55C4185A-9C39-4468-B19C-DE0A3E571700";
paths = (
{
closed = 1;
nodes = (
"510 266 LINE",
"922 1350 LINE",
"560 1350 LINE",
"416 680 LINE",
"412 680 LINE",
"506 1350 LINE",
"144 1350 LINE",
"174 266 LINE"
);
},
{
closed = 1;
nodes = (
"468 0 LINE",
"566 552 LINE",
"218 552 LINE",
"120 0 LINE"
);
}
);
width = 790;
},
{
anchors = (
{
name = bottom;
position = "{-9, 0}";
},
{
name = top;
position = "{223, 1350}";
},
{
name = topleft;
position = "{158, 1350}";
}
);
layerId = "4F53612F-C4F8-4368-83AD-8913BEEF8F1D";
paths = (
{
closed = 1;
nodes = (
"78 478 LINE",
"285 1350 LINE",
"263 1350 LINE",
"74 529 LINE",
"77 529 LINE",
"179 1350 LINE",
"157 1350 LINE",
"56 478 LINE"
);
},
{
closed = 1;
nodes = (
"-6 0 LINE",
"82 500 LINE",
"60 500 LINE",
"-28 0 LINE"
);
}
);
width = 160;
},
{
anchors = (
{
name = bottom;
position = "{1035, 0}";
},
{
name = top;
position = "{1274, 1350}";
},
{
name = topleft;
position = "{164, 1350}";
}
);
layerId = "E5A4176B-9C10-4B01-BBC9-D7999ECBFAF8";
paths = (
{
closed = 1;
nodes = (
"1378 528 LINE",
"2397 1350 LINE",
"1751 1350 LINE",
"1116 822 LINE",
"1190 822 LINE",
"737 1350 LINE",
"111 1350 LINE",
"842 528 LINE"
);
},
{
closed = 1;
nodes = (
"1299 0 LINE",
"1432 754 LINE",
"868 754 LINE",
"735 0 LINE"
);
}
);
width = 2285;
}
);
leftKerningGroup = Y;
note = Y;
rightKerningGroup = Y;
unicode = 0059;
},
{
glyphname = Y.ss01;
lastChange = "2020-04-16 18:03:22 +0000";
layers = (
{
anchors = (
{
name = bottom;
position = "{80, 0}";
},
{
name = top;
position = "{80, 1350}";
},
{
name = topleft;
position = "{20, 1350}";
}
);
layerId = "A1A0948C-E637-4A65-8CCC-05505AD98C44";
paths = (
{
closed = 1;
nodes = (
"86 437 LINE",
"134 1350 LINE",
"112 1350 LINE",
"74 564 LINE",
"76 564 LINE",
"38 1350 LINE",
"16 1350 LINE",
"64 437 LINE"
);
},
{
closed = 1;
nodes = (
"86 0 LINE",
"86 559 LINE",
"64 559 LINE",
"64 0 LINE"
);
}
);
width = 160;
},
{
anchors = (
{
name = bottom;
position = "{378, 0}";
},
{
name = top;
position = "{378, 1350}";
},
{
name = topleft;
position = "{20, 1350}";
}
);
layerId = "BA0CA162-2A9B-49EE-921D-3B4346C7D39F";
paths = (
{
closed = 1;
nodes = (
"624 420 LINE",
"744 1350 LINE",
"410 1350 LINE",
"378 674 LINE",
"382 674 LINE",
"348 1350 LINE",
"14 1350 LINE",
"136 420 LINE"
);
},
{
closed = 1;
nodes = (
"554 0 LINE",
"554 626 LINE",
"206 626 LINE",
"206 0 LINE"
);
}
);
width = 756;
},
{
anchors = (
{
name = bottom;
position = "{1143, 0}";
},
{
name = top;
position = "{1143, 1350}";
},
{
name = topleft;
position = "{20, 1350}";
}
);
layerId = "C75D3228-2D13-4E9D-9829-45195F4951D0";
paths = (
{
closed = 1;
nodes = (
"1414 446 LINE",
"2288 1350 LINE",
"1652 1350 LINE",
"1110 740 LINE",
"1184 740 LINE",
"638 1350 LINE",
"2 1350 LINE",
"878 446 LINE"
);
},
{
closed = 1;
nodes = (
"1428 0 LINE",
"1428 672 LINE",
"866 672 LINE",
"866 0 LINE"
);
}
);
width = 2285;
},
{
anchors = (
{
name = bottom;
position = "{1014, 0}";
},
{
name = top;
position = "{1014, 1350}";
},
{
name = topleft;
position = "{20, 1350}";
}
);
layerId = "71977205-6510-4B11-BB00-17BACA883C8F";
paths = (
{
closed = 1;
nodes = (
"977 599 LINE",
"1833 1350 LINE",
"1797 1350 LINE",
"968 619 LINE",
"974 619 LINE",
"145 1350 LINE",
"109 1350 LINE",
"965 599 LINE"
);
},
{
closed = 1;
nodes = (
"982 0 LINE",
"982 618 LINE",
"960 618 LINE",
"960 0 LINE"
);
}
);
width = 2028;
},
{
anchors = (
{
name = bottom;
position = "{797, 0}";
},
{
name = top;
position = "{1036, 1350}";
},
{
name = topleft;
position = "{164, 1350}";
}
);
layerId = "5997A0D0-E78E-41EC-9011-DECBEAD8517D";
paths = (
{
closed = 1;
nodes = (
"904 599 LINE",
"1892 1350 LINE",
"1854 1350 LINE",
"896 619 LINE",
"902 619 LINE",
"202 1350 LINE",
"168 1350 LINE",
"892 599 LINE"
);
},
{
closed = 1;
nodes = (
"803 0 LINE",
"912 618 LINE",
"890 618 LINE",
"781 0 LINE"
);
}
);
width = 2028;
},
{
anchors = (
{
name = bottom;
position = "{283, 0}";
},
{
name = top;
position = "{522, 1350}";
},
{
name = topleft;
position = "{164, 1350}";
}
);
layerId = "55C4185A-9C39-4468-B19C-DE0A3E571700";
paths = (
{
closed = 1;
nodes = (
"600 420 LINE",
"884 1350 LINE",
"550 1350 LINE",
"398 674 LINE",
"402 674 LINE",
"488 1350 LINE",
"154 1350 LINE",
"112 420 LINE"
);
},
{
closed = 1;
nodes = (
"454 0 LINE",
"566 626 LINE",
"218 626 LINE",
"106 0 LINE"
);
}
);
width = 756;
},
{
anchors = (
{
name = bottom;
position = "{-15, 0}";
},
{
name = top;
position = "{224, 1350}";
},
{
name = topleft;
position = "{164, 1350}";
}
);
layerId = "4F53612F-C4F8-4368-83AD-8913BEEF8F1D";
paths = (
{
closed = 1;
nodes = (
"68 437 LINE",
"277 1350 LINE",
"255 1350 LINE",
"78 564 LINE",
"80 564 LINE",
"181 1350 LINE",
"159 1350 LINE",
"46 437 LINE"
);
},
{
closed = 1;
nodes = (
"-9 0 LINE",
"90 559 LINE",
"68 559 LINE",
"-31 0 LINE"
);
}
);
width = 160;
},
{
anchors = (
{
name = bottom;
position = "{1047, 0}";
},
{
name = top;
position = "{1286, 1350}";
},
{
name = topleft;
position = "{164, 1350}";
}
);
layerId = "E5A4176B-9C10-4B01-BBC9-D7999ECBFAF8";
paths = (
{
closed = 1;
nodes = (
"1382 446 LINE",
"2416 1350 LINE",
"1760 1350 LINE",
"1110 740 LINE",
"1184 740 LINE",
"746 1350 LINE",
"130 1350 LINE",
"846 446 LINE"
);
},
{
closed = 1;
nodes = (
"1316 0 LINE",
"1436 672 LINE",
"874 672 LINE",
"754 0 LINE"
);
}
);
width = 2284;
}
);
leftKerningGroup = Y;
note = Y;
rightKerningGroup = Y;
},
{
glyphname = Z;
layers = (
{
anchors = (
{
name = bottom;
position = "{74, 0}";
},
{
name = center;
position = "{74, 675}";
},
{
name = top;
position = "{74, 1350}";
}
);
layerId = "A1A0948C-E637-4A65-8CCC-05505AD98C44";
paths = (
{
closed = 1;
nodes = (
"110 0 LINE",
"110 22 LINE",
"50 22 LINE",
"104 1330 LINE",
"104 1350 LINE",
"28 1350 LINE",
"28 1328 LINE",
"82 1328 LINE",
"28 20 LINE",
"28 0 LINE"
);
}
);
width = 148;
},
{
anchors = (
{
name = bottom;
position = "{254, 0}";
},
{
name = center;
position = "{254, 675}";
},
{
name = top;
position = "{254, 1350}";
}
);
layerId = "BA0CA162-2A9B-49EE-921D-3B4346C7D39F";
paths = (
{
closed = 1;
nodes = (
"496 0 LINE",
"496 250 LINE",
"330 250 LINE",
"494 1100 LINE",
"494 1350 LINE",
"26 1350 LINE",
"26 1100 LINE",
"178 1100 LINE",
"12 254 LINE",
"12 0 LINE"
);
}
);
width = 508;
},
{
anchors = (
{
name = bottom;
position = "{998, 0}";
},
{
name = center;
position = "{998, 675}";
},
{
name = top;
position = "{998, 1350}";
}
);
layerId = "C75D3228-2D13-4E9D-9829-45195F4951D0";
paths = (
{
closed = 1;
nodes = (
"1842 0 LINE",
"1842 364 LINE",
"784 364 LINE",
"1824 984 LINE",
"1824 1350 LINE",
"114 1350 LINE",
"114 990 LINE",
"1138 990 LINE",
"98 380 LINE",
"98 0 LINE"
);
}
);
width = 1995;
},
{
anchors = (
{
name = bottom;
position = "{916, 0}";
},
{
name = center;
position = "{916, 675}";
},
{
name = top;
position = "{916, 1350}";
}
);
layerId = "71977205-6510-4B11-BB00-17BACA883C8F";
paths = (
{
closed = 1;
nodes = (
"1636 0 LINE",
"1636 24 LINE",
"157 24 LINE",
"1554 1323 LINE",
"1554 1350 LINE",
"139 1350 LINE",
"139 1326 LINE",
"1522 1326 LINE",
"125 32 LINE",
"125 0 LINE"
);
}
);
width = 1833;
},
{
anchors = (
{
name = bottom;
position = "{711, 0}";
},
{
name = center;
position = "{831, 675}";
},
{
name = top;
position = "{950, 1350}";
}
);
layerId = "5997A0D0-E78E-41EC-9011-DECBEAD8517D";
paths = (
{
closed = 1;
nodes = (
"1537 0 LINE",
"1541 24 LINE",
"64 24 LINE",
"1688 1323 LINE",
"1693 1350 LINE",
"278 1350 LINE",
"274 1326 LINE",
"1655 1326 LINE",
"32 32 LINE",
"26 0 LINE"
);
}
);
width = 1833;
},
{
anchors = (
{
name = bottom;
position = "{157, 0}";
},
{
name = center;
position = "{277, 675}";
},
{
name = top;
position = "{396, 1350}";
}
);
layerId = "55C4185A-9C39-4468-B19C-DE0A3E571700";
paths = (
{
closed = 1;
nodes = (
"395 0 LINE",
"439 250 LINE",
"273 250 LINE",
"587 1100 LINE",
"631 1350 LINE",
"163 1350 LINE",
"119 1100 LINE",
"271 1100 LINE",
"-44 254 LINE",
"-89 0 LINE"
);
}
);
width = 508;
},
{
anchors = (
{
name = bottom;
position = "{-28, 0}";
},
{
name = center;
position = "{92, 675}";
},
{
name = top;
position = "{211, 1350}";
}
);
layerId = "4F53612F-C4F8-4368-83AD-8913BEEF8F1D";
paths = (
{
closed = 1;
nodes = (
"10 0 LINE",
"14 22 LINE",
"-50 22 LINE",
"238 1330 LINE",
"242 1350 LINE",
"164 1350 LINE",
"160 1328 LINE",
"216 1328 LINE",
"-72 20 LINE",
"-76 0 LINE"
);
}
);
width = 148;
},
{
anchors = (
{
name = bottom;
position = "{903, 0}";
},
{
name = center;
position = "{1023, 675}";
},
{
name = top;
position = "{1142, 1350}";
}
);
layerId = "E5A4176B-9C10-4B01-BBC9-D7999ECBFAF8";
paths = (
{
closed = 1;
nodes = (
"1723 0 LINE",
"1787 364 LINE",
"739 364 LINE",
"1878 984 LINE",
"1943 1350 LINE",
"233 1350 LINE",
"170 990 LINE",
"1184 990 LINE",
"46 380 LINE",
"-21 0 LINE"
);
}
);
width = 1995;
}
);
leftKerningGroup = Z;
note = Z;
rightKerningGroup = Z;
unicode = 005A;
},
{
glyphname = a;
lastChange = "2020-04-16 15:42:04 +0000";
layers = (
{
anchors = (
{
name = bottom;
position = "{100, 0}";
},
{
name = ogonek;
position = "{144, 0}";
},
{
name = top;
position = "{101, 1200}";
}
);
layerId = "A1A0948C-E637-4A65-8CCC-05505AD98C44";
paths = (
{
closed = 1;
nodes = (
"156 0 LINE",
"156 732 LINE SMOOTH",
"156 957 OFFCURVE",
"156 1212 OFFCURVE",
"101 1212 QCURVE",
"101 1190 LINE",
"134 1190 OFFCURVE",
"134 952 OFFCURVE",
"134 726 QCURVE SMOOTH",
"134 44 LINE",
"136 0 LINE"
);
},
{
closed = 1;
nodes = (
"116 -6 OFFCURVE",
"141 48 OFFCURVE",
"141 78 QCURVE",
"134 106 LINE",
"134 73 OFFCURVE",
"111 16 OFFCURVE",
"90 16 QCURVE SMOOTH",
"58 16 OFFCURVE",
"58 232 OFFCURVE",
"58 366 QCURVE SMOOTH",
"58 511 OFFCURVE",
"58 664 OFFCURVE",
"117 664 QCURVE SMOOTH",
"134 664 OFFCURVE",
"146 664 QCURVE",
"146 686 LINE",
"134 686 OFFCURVE",
"122 686 QCURVE SMOOTH",
"36 686 OFFCURVE",
"36 510 OFFCURVE",
"36 366 QCURVE SMOOTH",
"36 222 OFFCURVE",
"36 -6 OFFCURVE",
"86 -6 QCURVE SMOOTH"
);
},
{
closed = 1;
nodes = (
"58 769 LINE",
"58 1042 OFFCURVE",
"59 1190 OFFCURVE",
"101 1190 CURVE",
"103 1200 LINE",
"101 1212 LINE",
"37 1212 OFFCURVE",
"36 1081 OFFCURVE",
"36 769 CURVE"
);
}
);
width = 200;
},
{
anchors = (
{
name = bottom;
position = "{383, 0}";
},
{
name = ogonek;
position = "{545, 0}";
},
{
name = top;
position = "{392, 1200}";
}
);
layerId = "BA0CA162-2A9B-49EE-921D-3B4346C7D39F";
paths = (
{
closed = 1;
nodes = (
"749 0 LINE",
"749 551 LINE SMOOTH",
"749 839 OFFCURVE",
"750 1211 OFFCURVE",
"397 1211 QCURVE",
"387 955 LINE",
"399 955 OFFCURVE",
"399 890 OFFCURVE",
"399 767 QCURVE SMOOTH",
"399 182 LINE",
"475 0 LINE"
);
},
{
closed = 1;
nodes = (
"442 -10 OFFCURVE",
"502 167 OFFCURVE",
"502 334 QCURVE",
"399 358 LINE",
"399 290 OFFCURVE",
"399 244 OFFCURVE",
"385 244 QCURVE SMOOTH",
"371 244 OFFCURVE",
"371 290 OFFCURVE",
"371 358 QCURVE SMOOTH",
"371 422 OFFCURVE",
"371 478 OFFCURVE",
"392 478 QCURVE SMOOTH",
"400 478 OFFCURVE",
"407 478 QCURVE",
"407 722 LINE",
"309 722 OFFCURVE",
"214 722 QCURVE SMOOTH",
"94 722 OFFCURVE",
"11 572 OFFCURVE",
"11 354 QCURVE SMOOTH",
"11 110 OFFCURVE",
"135 -10 OFFCURVE",
"271 -10 QCURVE SMOOTH"
);
},
{
closed = 1;
nodes = (
"371 774 LINE",
"371 935 OFFCURVE",
"372 955 OFFCURVE",
"387 955 CURVE",
"397 1091 LINE",
"397 1211 LINE",
"32 1211 OFFCURVE",
"11 1119 OFFCURVE",
"11 774 CURVE"
);
}
);
width = 762;
},
{
anchors = (
{
name = bottom;
position = "{1075, 0}";
},
{
name = ogonek;
position = "{1621, 0}";
},
{
name = top;
position = "{1026, 1172}";
}
);
background = {
paths = (
{
closed = 0;
nodes = (
"1008 1184 LINE",
"1038 840 LINE"
);
},
{
closed = 0;
nodes = (
"1038 840 LINE",
"1048 1025 LINE",
"1008 1184 LINE"
);
}
);
};
layerId = "C75D3228-2D13-4E9D-9829-45195F4951D0";
paths = (
{
closed = 1;
nodes = (
"1980 0 LINE",
"1980 693 LINE SMOOTH",
"1980 961 OFFCURVE",
"1429 1184 OFFCURVE",
"1008 1184 QCURVE",
"1061 840 LINE",
"1203 840 OFFCURVE",
"1422 780 OFFCURVE",
"1422 728 QCURVE SMOOTH",
"1422 186 LINE",
"1474 0 LINE"
);
},
{
closed = 1;
nodes = (
"1168 -20 OFFCURVE",
"1646 186 OFFCURVE",
"1646 380 QCURVE",
"1422 455 LINE",
"1422 401 OFFCURVE",
"1152 288 OFFCURVE",
"958 288 QCURVE SMOOTH",
"800 288 OFFCURVE",
"648 321 OFFCURVE",
"648 361 QCURVE SMOOTH",
"648 401 OFFCURVE",
"822 444 OFFCURVE",
"1062 444 QCURVE SMOOTH",
"1244 444 OFFCURVE",
"1456 444 QCURVE",
"1456 726 LINE",
"1279 726 OFFCURVE",
"1047 726 QCURVE SMOOTH",
"584 726 OFFCURVE",
"88 550 OFFCURVE",
"88 352 QCURVE SMOOTH",
"88 144 OFFCURVE",
"532 -20 OFFCURVE",
"845 -20 QCURVE SMOOTH"
);
},
{
closed = 1;
nodes = (
"670 758 LINE",
"724 798 OFFCURVE",
"880 840 OFFCURVE",
"1061 840 CURVE",
"1056 1025 LINE",
"1008 1184 LINE",
"684 1184 OFFCURVE",
"255 1081 OFFCURVE",
"148 1009 CURVE"
);
}
);
width = 2150;
},
{
anchors = (
{
name = bottom;
position = "{863, 0}";
},
{
name = ogonek;
position = "{1536, 0}";
},
{
name = top;
position = "{850, 1169}";
}
);
layerId = "71977205-6510-4B11-BB00-17BACA883C8F";
paths = (
{
closed = 1;
nodes = (
"1548 0 LINE",
"1548 777 LINE SMOOTH",
"1548 964 OFFCURVE",
"1198 1177 OFFCURVE",
"850 1177 QCURVE",
"850 1155 LINE",
"1190 1155 OFFCURVE",
"1526 955 OFFCURVE",
"1526 775 QCURVE SMOOTH",
"1526 252 LINE",
"1526 0 LINE"
);
},
{
closed = 1;
nodes = (
"1128 -11 OFFCURVE",
"1534 177 OFFCURVE",
"1534 250 QCURVE",
"1526 278 LINE",
"1526 197 OFFCURVE",
"1117 11 OFFCURVE",
"811 11 QCURVE SMOOTH",
"494 11 OFFCURVE",
"166 173 OFFCURVE",
"166 333 QCURVE SMOOTH",
"166 502 OFFCURVE",
"517 643 OFFCURVE",
"855 643 QCURVE SMOOTH",
"1126 643 OFFCURVE",
"1531 643 QCURVE",
"1531 665 LINE",
"1137 665 OFFCURVE",
"854 665 QCURVE SMOOTH",
"493 665 OFFCURVE",
"142 507 OFFCURVE",
"142 333 QCURVE SMOOTH",
"142 161 OFFCURVE",
"485 -11 OFFCURVE",
"811 -11 QCURVE SMOOTH"
);
},
{
closed = 1;
nodes = (
"182 860 LINE",
"182 1024 OFFCURVE",
"480 1155 OFFCURVE",
"850 1155 CURVE",
"854 1165 LINE",
"850 1177 LINE",
"473 1177 OFFCURVE",
"159 1038 OFFCURVE",
"159 860 CURVE"
);
}
);
width = 1771;
},
{
anchors = (
{
name = bottom;
position = "{697, 0}";
},
{
name = ogonek;
position = "{1412, 0}";
},
{
name = top;
position = "{950, 1172}";
}
);
layerId = "5997A0D0-E78E-41EC-9011-DECBEAD8517D";
paths = (
{
closed = 1;
nodes = (
"1425 0 LINE",
"1562 777 LINE SMOOTH",
"1595 964 OFFCURVE",
"1278 1177 OFFCURVE",
"930 1177 QCURVE",
"931 1155 LINE",
"1271 1155 OFFCURVE",
"1572 955 OFFCURVE",
"1540 775 QCURVE SMOOTH",
"1448 252 LINE",
"1403 0 LINE"
);
},
{
closed = 1;
nodes = (
"1003 -11 OFFCURVE",
"1446 176 OFFCURVE",
"1459 249 QCURVE",
"1452 278 LINE",
"1438 197 OFFCURVE",
"996 11 OFFCURVE",
"690 11 QCURVE SMOOTH",
"373 11 OFFCURVE",
"92 171 OFFCURVE",
"102 333 QCURVE SMOOTH",
"112 502 OFFCURVE",
"508 643 OFFCURVE",
"846 643 QCURVE SMOOTH",
"1117 643 OFFCURVE",
"1522 643 QCURVE",
"1525 665 LINE",
"1131 665 OFFCURVE",
"848 665 QCURVE SMOOTH",
"487 665 OFFCURVE",
"87 507 OFFCURVE",
"78 333 QCURVE SMOOTH",
"69 159 OFFCURVE",
"360 -11 OFFCURVE",
"686 -11 QCURVE SMOOTH"
);
},
{
closed = 1;
nodes = (
"211 860 LINE",
"240 1018 OFFCURVE",
"561 1155 OFFCURVE",
"931 1155 CURVE",
"937 1165 LINE",
"930 1177 LINE",
"553 1177 OFFCURVE",
"219 1038 OFFCURVE",
"188 860 CURVE"
);
}
);
width = 1771;
},
{
anchors = (
{
name = bottom;
position = "{280, 0}";
},
{
name = ogonek;
position = "{439, 0}";
},
{
name = top;
position = "{501, 1200}";
}
);
layerId = "55C4185A-9C39-4468-B19C-DE0A3E571700";
paths = (
{
closed = 1;
nodes = (
"643 0 LINE",
"740 551 LINE SMOOTH",
"791 839 OFFCURVE",
"858 1211 OFFCURVE",
"505 1211 QCURVE",
"450 955 LINE",
"462 955 OFFCURVE",
"450 890 OFFCURVE",
"428 767 QCURVE SMOOTH",
"325 182 LINE",
"369 0 LINE"
);
},
{
closed = 1;
nodes = (
"334 -10 OFFCURVE",
"426 167 OFFCURVE",
"455 334 QCURVE",
"356 358 LINE",
"344 290 OFFCURVE",
"336 244 OFFCURVE",
"322 244 QCURVE SMOOTH",
"308 244 OFFCURVE",
"316 290 OFFCURVE",
"328 358 QCURVE SMOOTH",
"340 422 OFFCURVE",
"349 478 OFFCURVE",
"370 478 QCURVE SMOOTH",
"378 478 OFFCURVE",
"385 478 QCURVE",
"428 722 LINE",
"330 722 OFFCURVE",
"235 722 QCURVE SMOOTH",
"115 722 OFFCURVE",
"6 572 OFFCURVE",
"-32 354 QCURVE SMOOTH",
"-75 110 OFFCURVE",
"27 -10 OFFCURVE",
"163 -10 QCURVE SMOOTH"
);
},
{
closed = 1;
nodes = (
"402 774 LINE",
"430 935 OFFCURVE",
"435 955 OFFCURVE",
"450 955 CURVE",
"483 1091 LINE",
"505 1211 LINE",
"140 1211 OFFCURVE",
"102 1119 OFFCURVE",
"42 774 CURVE"
);
}
);
width = 762;
},
{
anchors = (
{
name = bottom;
position = "{6, 0}";
},
{
name = ogonek;
position = "{49, 0}";
},
{
name = top;
position = "{214, 1200}";
}
);
layerId = "4F53612F-C4F8-4368-83AD-8913BEEF8F1D";
paths = (
{
closed = 1;
nodes = (
"59 0 LINE",
"188 732 LINE SMOOTH",
"228 957 OFFCURVE",
"272 1212 OFFCURVE",
"215 1212 QCURVE",
"214 1190 LINE",
"247 1190 OFFCURVE",
"205 952 OFFCURVE",
"165 726 QCURVE SMOOTH",
"44 44 LINE",
"39 0 LINE"
);
},
{
closed = 1;
nodes = (
"20 -6 OFFCURVE",
"52 48 OFFCURVE",
"57 78 QCURVE",
"55 106 LINE",
"50 73 OFFCURVE",
"16 16 OFFCURVE",
"-5 16 QCURVE SMOOTH",
"-37 16 OFFCURVE",
"2 232 OFFCURVE",
"25 366 QCURVE SMOOTH",
"51 511 OFFCURVE",
"78 664 OFFCURVE",
"139 664 QCURVE SMOOTH",
"156 664 OFFCURVE",
"166 664 QCURVE",
"170 686 LINE",
"158 686 OFFCURVE",
"146 686 QCURVE SMOOTH",
"60 686 OFFCURVE",
"29 510 OFFCURVE",
"3 366 QCURVE SMOOTH",
"-22 222 OFFCURVE",
"-62 -6 OFFCURVE",
"-10 -6 QCURVE SMOOTH"
);
},
{
closed = 1;
nodes = (
"96 769 LINE",
"144 1042 OFFCURVE",
"172 1190 OFFCURVE",
"214 1190 CURVE",
"217 1200 LINE",
"215 1212 LINE",
"153 1212 OFFCURVE",
"129 1081 OFFCURVE",
"74 769 CURVE"
);
}
);
width = 200;
},
{
anchors = (
{
name = bottom;
position = "{980, 0}";
},
{
name = ogonek;
position = "{1506, 0}";
},
{
name = top;
position = "{1149, 1172}";
}
);
layerId = "E5A4176B-9C10-4B01-BBC9-D7999ECBFAF8";
paths = (
{
closed = 1;
nodes = (
"1866 0 LINE",
"1985 673 LINE SMOOTH",
"2032 941 OFFCURVE",
"1534 1184 OFFCURVE",
"1093 1184 QCURVE",
"1095 840 LINE",
"1237 840 OFFCURVE",
"1446 780 OFFCURVE",
"1437 728 QCURVE SMOOTH",
"1341 186 LINE",
"1398 0 LINE"
);
},
{
closed = 1;
nodes = (
"1081 -20 OFFCURVE",
"1572 166 OFFCURVE",
"1606 360 QCURVE",
"1389 455 LINE",
"1379 401 OFFCURVE",
"1089 288 OFFCURVE",
"895 288 QCURVE SMOOTH",
"737 288 OFFCURVE",
"591 321 OFFCURVE",
"598 361 QCURVE SMOOTH",
"605 401 OFFCURVE",
"787 444 OFFCURVE",
"1027 444 QCURVE SMOOTH",
"1209 444 OFFCURVE",
"1421 444 QCURVE",
"1470 726 LINE",
"1293 726 OFFCURVE",
"1061 726 QCURVE SMOOTH",
"598 726 OFFCURVE",
"36 539 OFFCURVE",
"36 298 QCURVE SMOOTH",
"36 122 OFFCURVE",
"435 -20 OFFCURVE",
"758 -20 QCURVE SMOOTH"
);
},
{
closed = 1;
nodes = (
"690 758 LINE",
"751 798 OFFCURVE",
"914 840 OFFCURVE",
"1095 840 CURVE",
"1123 1025 LINE",
"1093 1184 LINE",
"769 1184 OFFCURVE",
"332 1081 OFFCURVE",
"212 1009 CURVE"
);
}
);
width = 2150;
}
);
leftKerningGroup = a;
note = a;
rightKerningGroup = n;
unicode = 0061;
},
{
glyphname = a.ss01;
lastChange = "2020-04-16 18:03:22 +0000";
layers = (
{
anchors = (
{
name = bottom;
position = "{103, 0}";
},
{
name = ogonek;
position = "{152, 1}";
},
{
name = top;
position = "{98, 1200}";
}
);
components = (
{
name = dcurve;
transform = "{1, 0, 0, 1, 10, 0}";
}
);
layerId = "A1A0948C-E637-4A65-8CCC-05505AD98C44";
paths = (
{
closed = 1;
nodes = (
"162 0 LINE",
"162 1200 LINE",
"140 1200 LINE",
"140 66 LINE",
"142 0 LINE"
);
}
);
width = 206;
},
{
anchors = (
{
name = bottom;
position = "{1053, 0}";
},
{
name = ogonek;
position = "{1546, 0}";
},
{
name = top;
position = "{1060, 1172}";
}
);
components = (
{
name = dcurve;
transform = "{1, 0, 0, 1, 22, 0}";
}
);
layerId = "C75D3228-2D13-4E9D-9829-45195F4951D0";
paths = (
{
closed = 1;
nodes = (
"1996 0 LINE",
"1996 1172 LINE",
"1430 1172 LINE",
"1430 228 LINE",
"1430 0 LINE"
);
}
);
width = 2196;
},
{
anchors = (
{
name = bottom;
position = "{369, 0}";
},
{
name = ogonek;
position = "{530, 0}";
},
{
name = top;
position = "{369, 1200}";
}
);
components = (
{
name = dcurve;
}
);
layerId = "BA0CA162-2A9B-49EE-921D-3B4346C7D39F";
paths = (
{
closed = 1;
nodes = (
"726 0 LINE",
"726 1200 LINE",
"382 1200 LINE",
"382 168 LINE",
"456 0 LINE"
);
}
);
width = 738;
},
{
anchors = (
{
name = bottom;
position = "{897, 0}";
},
{
name = ogonek;
position = "{1541, 0}";
},
{
name = top;
position = "{875, 1168}";
}
);
components = (
{
name = dcurve;
transform = "{1, 0, 0, 1, 83, 0}";
}
);
layerId = "71977205-6510-4B11-BB00-17BACA883C8F";
paths = (
{
closed = 1;
nodes = (
"1552 0 LINE",
"1552 1168 LINE",
"1530 1168 LINE",
"1530 367 LINE",
"1530 0 LINE"
);
}
);
width = 1752;
},
{
anchors = (
{
name = bottom;
position = "{784, 0}";
},
{
name = ogonek;
position = "{1429, 0}";
},
{
name = top;
position = "{959, 1172}";
}
);
components = (
{
name = dcurve;
transform = "{1, 0, 0, 1, 241, 0}";
}
);
layerId = "5997A0D0-E78E-41EC-9011-DECBEAD8517D";
paths = (
{
closed = 1;
nodes = (
"1441 0 LINE",
"1647 1172 LINE",
"1625 1172 LINE",
"1477 328 LINE",
"1419 0 LINE"
);
}
);
width = 1764;
},
{
anchors = (
{
name = bottom;
position = "{270, 0}";
},
{
name = ogonek;
position = "{431, 0}";
},
{
name = top;
position = "{464, 1200}";
}
);
components = (
{
name = dcurve;
transform = "{1, 0, 0, 1, -3, 0}";
}
);
layerId = "55C4185A-9C39-4468-B19C-DE0A3E571700";
paths = (
{
closed = 1;
nodes = (
"623 0 LINE",
"833 1200 LINE",
"489 1200 LINE",
"309 168 LINE",
"353 0 LINE"
);
}
);
width = 733;
},
{
anchors = (
{
name = bottom;
position = "{-5, 0}";
},
{
name = ogonek;
position = "{58, 0}";
},
{
name = top;
position = "{216, 1200}";
}
);
components = (
{
name = dcurve;
transform = "{1, 0, 0, 1, 7, 0}";
}
);
layerId = "4F53612F-C4F8-4368-83AD-8913BEEF8F1D";
paths = (
{
closed = 1;
nodes = (
"67 0 LINE",
"277 1200 LINE",
"255 1200 LINE",
"55 66 LINE",
"47 0 LINE"
);
}
);
width = 205;
},
{
anchors = (
{
name = bottom;
position = "{1002, 0}";
},
{
name = ogonek;
position = "{1437, 0}";
},
{
name = top;
position = "{1192, 1072}";
}
);
components = (
{
name = dcurve;
transform = "{1, 0, 0, 1, 31, 0}";
}
);
layerId = "E5A4176B-9C10-4B01-BBC9-D7999ECBFAF8";
paths = (
{
closed = 1;
nodes = (
"1881 0 LINE",
"2087 1172 LINE",
"1521 1172 LINE",
"1355 228 LINE",
"1315 0 LINE"
);
}
);
width = 2182;
}
);
leftKerningGroup = o;
leftMetricsKey = d;
rightKerningGroup = l;
rightMetricsKey = d;
},
{
glyphname = ae;
layers = (
{
anchors = (
{
name = bottom;
position = "{151, 0}";
},
{
name = top;
position = "{146, 1200}";
}
);
components = (
{
alignment = -1;
name = e;
transform = "{1, 0, 0, 1, 100, 0}";
}
);
layerId = "A1A0948C-E637-4A65-8CCC-05505AD98C44";
paths = (
{
closed = 1;
nodes = (
"156 806 LINE SMOOTH",
"156 992 OFFCURVE",
"156 1210 OFFCURVE",
"96 1210 QCURVE SMOOTH",
"36 1210 OFFCURVE",
"36 992 OFFCURVE",
"36 740 QCURVE",
"58 740 LINE",
"58 986 OFFCURVE",
"58 1188 OFFCURVE",
"96 1188 QCURVE SMOOTH",
"134 1188 OFFCURVE",
"134 986 OFFCURVE",
"134 800 QCURVE SMOOTH",
"134 140 LINE",
"136 104 LINE",
"156 96 LINE"
);
},
{
closed = 1;
nodes = (
"120 -6 OFFCURVE",
"154 76 OFFCURVE",
"154 192 QCURVE",
"134 192 LINE",
"134 78 OFFCURVE",
"108 16 OFFCURVE",
"86 16 QCURVE SMOOTH",
"60 16 OFFCURVE",
"58 152 OFFCURVE",
"58 276 QCURVE SMOOTH",
"58 476 OFFCURVE",
"59 594 OFFCURVE",
"103 594 QCURVE SMOOTH",
"119 594 OFFCURVE",
"146 594 QCURVE",
"146 616 LINE",
"132 616 OFFCURVE",
"112 616 QCURVE SMOOTH",
"36 616 OFFCURVE",
"36 468 OFFCURVE",
"36 276 QCURVE SMOOTH",
"36 152 OFFCURVE",
"36 -6 OFFCURVE",
"86 -6 QCURVE SMOOTH"
);
}
);
width = 300;
},
{
anchors = (
{
name = bottom;
position = "{568, 0}";
},
{
name = top;
position = "{568, 1200}";
}
);
components = (
{
alignment = -1;
name = e;
transform = "{1, 0, 0, 1, 389, 0}";
}
);
layerId = "BA0CA162-2A9B-49EE-921D-3B4346C7D39F";
paths = (
{
closed = 1;
nodes = (
"749 775 LINE SMOOTH",
"749 919 OFFCURVE",
"749 1211 OFFCURVE",
"387 1211 QCURVE SMOOTH",
"23 1211 OFFCURVE",
"23 919 OFFCURVE",
"23 720 QCURVE",
"373 720 LINE",
"373 919 OFFCURVE",
"373 985 OFFCURVE",
"387 985 QCURVE SMOOTH",
"401 985 OFFCURVE",
"401 921 OFFCURVE",
"401 789 QCURVE SMOOTH",
"401 182 LINE",
"467 182 LINE",
"749 148 LINE"
);
},
{
closed = 1;
nodes = (
"495 -10 OFFCURVE",
"609 148 OFFCURVE",
"607 314 QCURVE",
"401 450 LINE",
"401 278 OFFCURVE",
"401 214 OFFCURVE",
"387 214 QCURVE SMOOTH",
"373 214 OFFCURVE",
"373 278 OFFCURVE",
"373 324 QCURVE SMOOTH",
"373 390 OFFCURVE",
"373 442 OFFCURVE",
"395 442 QCURVE SMOOTH",
"407 442 OFFCURVE",
"409 442 QCURVE",
"409 672 LINE",
"333 672 OFFCURVE",
"257 672 QCURVE SMOOTH",
"133 672 OFFCURVE",
"11 552 OFFCURVE",
"11 338 QCURVE SMOOTH",
"11 130 OFFCURVE",
"145 -10 OFFCURVE",
"261 -10 QCURVE SMOOTH"
);
}
);
width = 1137;
},
{
anchors = (
{
name = bottom;
position = "{1713, 0}";
},
{
name = top;
position = "{1727, 1172}";
}
);
components = (
{
alignment = -1;
name = e;
transform = "{1, 0, 0, 1, 1344, 0}";
}
);
layerId = "C75D3228-2D13-4E9D-9829-45195F4951D0";
paths = (
{
closed = 1;
nodes = (
"1914 624 LINE SMOOTH",
"1914 940 OFFCURVE",
"1392 1182 OFFCURVE",
"1058 1182 QCURVE SMOOTH",
"729 1182 OFFCURVE",
"278 1073 OFFCURVE",
"161 1014 QCURVE",
"674 760 LINE",
"739 802 OFFCURVE",
"922 838 OFFCURVE",
"1064 838 QCURVE SMOOTH",
"1226 838 OFFCURVE",
"1432 757 OFFCURVE",
"1432 688 QCURVE SMOOTH",
"1432 336 LINE",
"1502 286 LINE",
"1914 286 LINE"
);
},
{
closed = 1;
nodes = (
"1176 -19 OFFCURVE",
"1693 162 OFFCURVE",
"1727 340 QCURVE",
"1437 475 LINE",
"1437 408 OFFCURVE",
"1206 298 OFFCURVE",
"998 298 QCURVE SMOOTH",
"789 298 OFFCURVE",
"664 344 OFFCURVE",
"664 374 QCURVE SMOOTH",
"664 406 OFFCURVE",
"818 442 OFFCURVE",
"1018 442 QCURVE SMOOTH",
"1194 442 OFFCURVE",
"1456 442 QCURVE",
"1456 716 LINE",
"1076 716 OFFCURVE",
"844 716 QCURVE SMOOTH",
"535 716 OFFCURVE",
"88 568 OFFCURVE",
"88 362 QCURVE SMOOTH",
"88 188 OFFCURVE",
"510 -19 OFFCURVE",
"830 -19 QCURVE SMOOTH"
);
}
);
width = 3490;
},
{
anchors = (
{
name = bottom;
position = "{1497, 0}";
},
{
name = top;
position = "{1505, 1172}";
}
);
components = (
{
alignment = -1;
name = e;
transform = "{1, 0, 0, 1, 1328, 0}";
}
);
layerId = "71977205-6510-4B11-BB00-17BACA883C8F";
paths = (
{
closed = 1;
nodes = (
"1479 669 LINE SMOOTH",
"1479 917 OFFCURVE",
"1131 1178 OFFCURVE",
"839 1178 QCURVE SMOOTH",
"515 1178 OFFCURVE",
"147 942 OFFCURVE",
"147 791 QCURVE",
"173 791 LINE",
"173 929 OFFCURVE",
"525 1156 OFFCURVE",
"839 1156 QCURVE SMOOTH",
"1121 1156 OFFCURVE",
"1457 906 OFFCURVE",
"1457 656 QCURVE SMOOTH",
"1457 610 LINE",
"1457 595 LINE",
"1479 596 LINE"
);
},
{
closed = 1;
nodes = (
"1068 -11 OFFCURVE",
"1479 248 OFFCURVE",
"1479 582 QCURVE",
"1457 582 LINE",
"1457 263 OFFCURVE",
"1060 11 OFFCURVE",
"742 11 QCURVE SMOOTH",
"446 11 OFFCURVE",
"166 174 OFFCURVE",
"166 311 QCURVE SMOOTH",
"166 449 OFFCURVE",
"458 581 OFFCURVE",
"788 581 QCURVE SMOOTH",
"1059 581 OFFCURVE",
"1462 581 QCURVE",
"1462 603 LINE",
"1069 603 OFFCURVE",
"786 603 QCURVE SMOOTH",
"435 603 OFFCURVE",
"142 455 OFFCURVE",
"142 311 QCURVE SMOOTH",
"142 160 OFFCURVE",
"439 -11 OFFCURVE",
"742 -11 QCURVE SMOOTH"
);
}
);
width = 3159;
},
{
anchors = (
{
name = bottom;
position = "{1402, 0}";
},
{
name = top;
position = "{1570, 1172}";
}
);
components = (
{
alignment = -1;
name = e;
transform = "{1, 0, 0, 1, 1307, 0}";
}
);
layerId = "5997A0D0-E78E-41EC-9011-DECBEAD8517D";
paths = (
{
closed = 1;
nodes = (
"1472 669 LINE SMOOTH",
"1516 917 OFFCURVE",
"1208 1178 OFFCURVE",
"917 1178 QCURVE SMOOTH",
"592 1178 OFFCURVE",
"188 942 OFFCURVE",
"162 791 QCURVE",
"188 791 LINE",
"212 929 OFFCURVE",
"604 1156 OFFCURVE",
"918 1156 QCURVE SMOOTH",
"1200 1156 OFFCURVE",
"1491 906 OFFCURVE",
"1448 656 QCURVE SMOOTH",
"1440 610 LINE",
"1437 595 LINE",
"1459 596 LINE"
);
},
{
closed = 1;
nodes = (
"944 -11 OFFCURVE",
"1398 248 OFFCURVE",
"1457 582 QCURVE",
"1435 582 LINE",
"1378 263 OFFCURVE",
"937 11 OFFCURVE",
"619 11 QCURVE SMOOTH",
"323 11 OFFCURVE",
"82 174 OFFCURVE",
"96 311 QCURVE SMOOTH",
"110 450 OFFCURVE",
"436 581 OFFCURVE",
"766 581 QCURVE SMOOTH",
"1037 581 OFFCURVE",
"1440 581 QCURVE",
"1443 603 LINE",
"1050 603 OFFCURVE",
"767 603 QCURVE SMOOTH",
"416 603 OFFCURVE",
"86 456 OFFCURVE",
"72 311 QCURVE SMOOTH",
"57 160 OFFCURVE",
"315 -11 OFFCURVE",
"618 -11 QCURVE SMOOTH"
);
}
);
width = 3138;
},
{
anchors = (
{
name = bottom;
position = "{462, 0}";
},
{
name = top;
position = "{668, 1200}";
}
);
components = (
{
alignment = -1;
name = e;
transform = "{1, 0, 0, 1, 381, 0}";
}
);
layerId = "55C4185A-9C39-4468-B19C-DE0A3E571700";
paths = (
{
closed = 1;
nodes = (
"780 775 LINE SMOOTH",
"805 917 OFFCURVE",
"858 1211 OFFCURVE",
"495 1211 QCURVE SMOOTH",
"131 1211 OFFCURVE",
"79 919 OFFCURVE",
"44 720 QCURVE",
"394 720 LINE",
"429 919 OFFCURVE",
"441 985 OFFCURVE",
"455 985 QCURVE SMOOTH",
"469 985 OFFCURVE",
"457 921 OFFCURVE",
"434 789 QCURVE SMOOTH",
"327 182 LINE",
"393 182 LINE",
"669 148 LINE"
);
},
{
closed = 1;
nodes = (
"427 -10 OFFCURVE",
"529 148 OFFCURVE",
"556 314 QCURVE",
"374 450 LINE",
"344 278 OFFCURVE",
"333 214 OFFCURVE",
"319 214 QCURVE SMOOTH",
"305 214 OFFCURVE",
"316 281 OFFCURVE",
"324 324 QCURVE SMOOTH",
"336 390 OFFCURVE",
"345 442 OFFCURVE",
"367 442 QCURVE SMOOTH",
"379 442 OFFCURVE",
"381 442 QCURVE",
"422 672 LINE",
"346 672 OFFCURVE",
"270 672 QCURVE SMOOTH",
"147 672 OFFCURVE",
"2 552 OFFCURVE",
"-35 339 QCURVE SMOOTH",
"-72 130 OFFCURVE",
"37 -10 OFFCURVE",
"193 -10 QCURVE SMOOTH"
);
}
);
width = 1129;
},
{
anchors = (
{
name = bottom;
position = "{56, 0}";
},
{
name = top;
position = "{254, 1200}";
}
);
components = (
{
alignment = -1;
name = e;
transform = "{1, 0, 0, 1, 98, 0}";
}
);
layerId = "4F53612F-C4F8-4368-83AD-8913BEEF8F1D";
paths = (
{
closed = 1;
nodes = (
"201 806 LINE SMOOTH",
"234 991 OFFCURVE",
"272 1210 OFFCURVE",
"212 1210 QCURVE SMOOTH",
"152 1210 OFFCURVE",
"114 992 OFFCURVE",
"69 740 QCURVE",
"91 740 LINE",
"135 986 OFFCURVE",
"170 1188 OFFCURVE",
"208 1188 QCURVE SMOOTH",
"246 1188 OFFCURVE",
"210 983 OFFCURVE",
"178 800 QCURVE SMOOTH",
"62 140 LINE",
"57 104 LINE",
"76 96 LINE"
);
},
{
closed = 1;
nodes = (
"28 -6 OFFCURVE",
"70 76 OFFCURVE",
"91 192 QCURVE",
"71 192 LINE",
"51 78 OFFCURVE",
"14 16 OFFCURVE",
"-8 16 QCURVE SMOOTH",
"-34 16 OFFCURVE",
"-12 149 OFFCURVE",
"10 276 QCURVE SMOOTH",
"45 476 OFFCURVE",
"67 594 OFFCURVE",
"111 594 QCURVE SMOOTH",
"127 594 OFFCURVE",
"154 594 QCURVE",
"157 616 LINE",
"143 616 OFFCURVE",
"123 616 QCURVE SMOOTH",
"47 616 OFFCURVE",
"21 468 OFFCURVE",
"-12 277 QCURVE SMOOTH",
"-34 151 OFFCURVE",
"-62 -6 OFFCURVE",
"-12 -6 QCURVE SMOOTH"
);
}
);
width = 298;
},
{
anchors = (
{
name = bottom;
position = "{1589, 0}";
},
{
name = top;
position = "{1809, 1172}";
}
);
components = (
{
alignment = -1;
name = e;
transform = "{1, 0, 0, 1, 1345, 0}";
}
);
layerId = "E5A4176B-9C10-4B01-BBC9-D7999ECBFAF8";
paths = (
{
closed = 1;
nodes = (
"1914 624 LINE SMOOTH",
"1969 940 OFFCURVE",
"1491 1182 OFFCURVE",
"1157 1182 QCURVE SMOOTH",
"828 1182 OFFCURVE",
"358 1073 OFFCURVE",
"230 1014 QCURVE",
"698 760 LINE",
"771 802 OFFCURVE",
"960 838 OFFCURVE",
"1102 838 QCURVE SMOOTH",
"1264 838 OFFCURVE",
"1456 757 OFFCURVE",
"1444 688 QCURVE SMOOTH",
"1382 336 LINE",
"1443 286 LINE",
"1855 286 LINE"
);
},
{
closed = 1;
nodes = (
"1063 -19 OFFCURVE",
"1612 162 OFFCURVE",
"1677 340 QCURVE",
"1411 475 LINE",
"1399 408 OFFCURVE",
"1149 298 OFFCURVE",
"941 298 QCURVE SMOOTH",
"732 298 OFFCURVE",
"615 344 OFFCURVE",
"620 374 QCURVE SMOOTH",
"626 406 OFFCURVE",
"786 442 OFFCURVE",
"986 442 QCURVE SMOOTH",
"1162 442 OFFCURVE",
"1424 442 QCURVE",
"1473 716 LINE",
"1093 716 OFFCURVE",
"861 716 QCURVE SMOOTH",
"552 716 OFFCURVE",
"79 568 OFFCURVE",
"42 362 QCURVE SMOOTH",
"12 188 OFFCURVE",
"397 -19 OFFCURVE",
"717 -19 QCURVE SMOOTH"
);
}
);
width = 3491;
}
);
leftKerningGroup = a;
leftMetricsKey = a;
rightKerningGroup = e;
rightMetricsKey = e;
unicode = 00E6;
},
{
glyphname = b;
layers = (
{
anchors = (
{
name = bottom;
position = "{101, 0}";
},
{
name = top;
position = "{101, 1570}";
}
);
components = (
{
name = bcurve;
transform = "{1, 0, 0, 1, 8, 0}";
}
);
layerId = "A1A0948C-E637-4A65-8CCC-05505AD98C44";
paths = (
{
closed = 1;
nodes = (
"52 0 LINE",
"54 52 LINE",
"54 1570 LINE",
"32 1570 LINE",
"32 0 LINE"
);
}
);
width = 200;
},
{
anchors = (
{
name = bottom;
position = "{369, 0}";
},
{
name = top;
position = "{443, 1552}";
}
);
components = (
{
name = bcurve;
}
);
layerId = "BA0CA162-2A9B-49EE-921D-3B4346C7D39F";
paths = (
{
closed = 1;
nodes = (
"296 0 LINE",
"356 168 LINE",
"356 1570 LINE",
"12 1570 LINE",
"12 0 LINE"
);
}
);
width = 738;
},
{
anchors = (
{
name = bottom;
position = "{1184, 0}";
},
{
name = top;
position = "{1187, 1570}";
}
);
components = (
{
name = bcurve;
transform = "{1, 0, 0, 1, 9, 0}";
}
);
layerId = "C75D3228-2D13-4E9D-9829-45195F4951D0";
paths = (
{
closed = 1;
nodes = (
"675 0 LINE",
"695 156 LINE",
"695 1570 LINE",
"135 1570 LINE",
"135 0 LINE"
);
}
);
width = 2157;
},
{
anchors = (
{
name = bottom;
position = "{917, 0}";
},
{
name = top;
position = "{916, 1570}";
}
);
components = (
{
name = bcurve;
transform = "{1, 0, 0, 1, 64, 0}";
}
);
layerId = "71977205-6510-4B11-BB00-17BACA883C8F";
paths = (
{
closed = 1;
nodes = (
"232 0 LINE",
"232 370 LINE",
"232 1570 LINE",
"210 1570 LINE",
"210 0 LINE"
);
}
);
width = 1840;
},
{
anchors = (
{
name = bottom;
position = "{720, 0}";
},
{
name = top;
position = "{981, 1570}";
}
);
components = (
{
name = bcurve;
transform = "{1, 0, 0, 1, 31, 0}";
}
);
layerId = "5997A0D0-E78E-41EC-9011-DECBEAD8517D";
paths = (
{
closed = 1;
nodes = (
"81 0 LINE",
"139 328 LINE",
"357 1570 LINE",
"335 1570 LINE",
"59 0 LINE"
);
}
);
width = 1810;
},
{
anchors = (
{
name = bottom;
position = "{272, 0}";
},
{
name = top;
position = "{544, 1570}";
}
);
components = (
{
name = bcurve;
}
);
layerId = "55C4185A-9C39-4468-B19C-DE0A3E571700";
paths = (
{
closed = 1;
nodes = (
"194 0 LINE",
"284 168 LINE",
"530 1570 LINE",
"186 1570 LINE",
"-90 0 LINE"
);
}
);
width = 739;
},
{
anchors = (
{
name = bottom;
position = "{-3, 0}";
},
{
name = top;
position = "{258, 1570}";
}
);
components = (
{
name = bcurve;
transform = "{1, 0, 0, 1, -2, 0}";
}
);
layerId = "4F53612F-C4F8-4368-83AD-8913BEEF8F1D";
paths = (
{
closed = 1;
nodes = (
"-52 0 LINE",
"-38 72 LINE",
"228 1570 LINE",
"206 1570 LINE",
"-72 0 LINE"
);
}
);
width = 192;
},
{
anchors = (
{
name = bottom;
position = "{1016, 0}";
},
{
name = top;
position = "{1277, 1570}";
}
);
components = (
{
name = bcurve;
transform = "{1, 0, 0, 1, 36, 0}";
}
);
layerId = "E5A4176B-9C10-4B01-BBC9-D7999ECBFAF8";
paths = (
{
closed = 1;
nodes = (
"578 0 LINE",
"626 156 LINE",
"874 1570 LINE",
"314 1570 LINE",
"38 0 LINE"
);
}
);
width = 2175;
}
);
leftKerningGroup = h;
leftMetricsKey = h;
note = b;
rightKerningGroup = o;
rightMetricsKey = o;
unicode = 0062;
},
{
glyphname = c;
layers = (
{
anchors = (
{
name = bottom;
position = "{99, 0}";
},
{
name = top;
position = "{94, 1200}";
}
);
layerId = "A1A0948C-E637-4A65-8CCC-05505AD98C44";
paths = (
{
closed = 1;
nodes = (
"154 -6 OFFCURVE",
"154 323 OFFCURVE",
"154 465 QCURVE",
"132 465 LINE",
"132 329 OFFCURVE",
"132 16 OFFCURVE",
"94 16 QCURVE SMOOTH",
"56 16 OFFCURVE",
"56 329 OFFCURVE",
"56 601 QCURVE SMOOTH",
"56 937 OFFCURVE",
"56 1190 OFFCURVE",
"94 1190 QCURVE SMOOTH",
"132 1190 OFFCURVE",
"132 937 OFFCURVE",
"132 737 QCURVE",
"154 737 LINE",
"154 943 OFFCURVE",
"154 1212 OFFCURVE",
"94 1212 QCURVE SMOOTH",
"34 1212 OFFCURVE",
"34 943 OFFCURVE",
"34 601 QCURVE SMOOTH",
"34 323 OFFCURVE",
"34 -6 OFFCURVE",
"94 -6 QCURVE SMOOTH"
);
}
);
width = 198;
},
{
anchors = (
{
name = bottom;
position = "{375, 0}";
},
{
name = top;
position = "{375, 1200}";
}
);
layerId = "BA0CA162-2A9B-49EE-921D-3B4346C7D39F";
paths = (
{
closed = 1;
nodes = (
"736 -10 OFFCURVE",
"736 350 OFFCURVE",
"736 550 QCURVE",
"386 550 LINE",
"386 334 OFFCURVE",
"386 244 OFFCURVE",
"372 244 QCURVE SMOOTH",
"358 244 OFFCURVE",
"358 334 OFFCURVE",
"358 596 QCURVE SMOOTH",
"358 865 OFFCURVE",
"358 955 OFFCURVE",
"372 955 QCURVE SMOOTH",
"386 955 OFFCURVE",
"386 865 OFFCURVE",
"386 642 QCURVE",
"736 642 LINE",
"736 852 OFFCURVE",
"736 1211 OFFCURVE",
"372 1211 QCURVE SMOOTH",
"12 1211 OFFCURVE",
"12 856 OFFCURVE",
"12 596 QCURVE SMOOTH",
"12 336 OFFCURVE",
"12 -10 OFFCURVE",
"372 -10 QCURVE SMOOTH"
);
}
);
width = 750;
},
{
anchors = (
{
name = bottom;
position = "{1019, 0}";
},
{
name = top;
position = "{1019, 1172}";
}
);
layerId = "C75D3228-2D13-4E9D-9829-45195F4951D0";
paths = (
{
closed = 1;
nodes = (
"1328 -16 OFFCURVE",
"1818 122 OFFCURVE",
"1868 170 QCURVE",
"1418 466 LINE",
"1398 439 OFFCURVE",
"1180 344 OFFCURVE",
"1026 344 QCURVE SMOOTH",
"876 344 OFFCURVE",
"636 464 OFFCURVE",
"636 582 QCURVE SMOOTH",
"636 700 OFFCURVE",
"876 820 OFFCURVE",
"1026 820 QCURVE SMOOTH",
"1180 820 OFFCURVE",
"1398 725 OFFCURVE",
"1418 698 QCURVE",
"1868 982 LINE",
"1818 1030 OFFCURVE",
"1328 1182 OFFCURVE",
"1026 1182 QCURVE SMOOTH",
"620 1182 OFFCURVE",
"62 892 OFFCURVE",
"62 582 QCURVE SMOOTH",
"62 272 OFFCURVE",
"620 -16 OFFCURVE",
"1026 -16 QCURVE SMOOTH"
);
}
);
width = 1978;
},
{
anchors = (
{
name = bottom;
position = "{892, 0}";
},
{
name = top;
position = "{860, 1168}";
}
);
layerId = "71977205-6510-4B11-BB00-17BACA883C8F";
paths = (
{
closed = 1;
nodes = (
"1178 -11 OFFCURVE",
"1553 223 OFFCURVE",
"1553 379 QCURVE",
"1529 379 LINE",
"1529 236 OFFCURVE",
"1170 11 OFFCURVE",
"860 11 QCURVE SMOOTH",
"539 11 OFFCURVE",
"118 293 OFFCURVE",
"118 584 QCURVE SMOOTH",
"118 865 OFFCURVE",
"534 1155 OFFCURVE",
"860 1155 QCURVE SMOOTH",
"1171 1155 OFFCURVE",
"1529 920 OFFCURVE",
"1529 789 QCURVE",
"1553 789 LINE",
"1553 935 OFFCURVE",
"1180 1177 OFFCURVE",
"860 1177 QCURVE SMOOTH",
"531 1177 OFFCURVE",
"94 883 OFFCURVE",
"94 584 QCURVE SMOOTH",
"94 275 OFFCURVE",
"531 -11 OFFCURVE",
"860 -11 QCURVE SMOOTH"
);
}
);
width = 1783;
},
{
anchors = (
{
name = bottom;
position = "{762, 0}";
},
{
name = top;
position = "{969, 1172}";
}
);
layerId = "5997A0D0-E78E-41EC-9011-DECBEAD8517D";
paths = (
{
closed = 1;
nodes = (
"1089 -11 OFFCURVE",
"1500 223 OFFCURVE",
"1527 379 QCURVE",
"1503 379 LINE",
"1478 236 OFFCURVE",
"1079 11 OFFCURVE",
"769 11 QCURVE SMOOTH",
"468 11 OFFCURVE",
"128 279 OFFCURVE",
"128 504 QCURVE SMOOTH",
"128 835 OFFCURVE",
"605 1155 OFFCURVE",
"961 1155 QCURVE SMOOTH",
"1272 1155 OFFCURVE",
"1578 920 OFFCURVE",
"1575 789 QCURVE",
"1599 789 LINE",
"1605 935 OFFCURVE",
"1277 1177 OFFCURVE",
"959 1177 QCURVE SMOOTH",
"598 1177 OFFCURVE",
"104 850 OFFCURVE",
"104 504 QCURVE SMOOTH",
"104 261 OFFCURVE",
"462 -11 OFFCURVE",
"771 -11 QCURVE SMOOTH"
);
}
);
width = 1783;
},
{
anchors = (
{
name = bottom;
position = "{275, 0}";
},
{
name = top;
position = "{486, 1200}";
}
);
layerId = "55C4185A-9C39-4468-B19C-DE0A3E571700";
paths = (
{
closed = 1;
nodes = (
"634 -10 OFFCURVE",
"698 350 OFFCURVE",
"733 550 QCURVE",
"383 550 LINE",
"345 334 OFFCURVE",
"329 244 OFFCURVE",
"315 244 QCURVE SMOOTH",
"301 244 OFFCURVE",
"317 334 OFFCURVE",
"363 596 QCURVE SMOOTH",
"411 865 OFFCURVE",
"427 955 OFFCURVE",
"441 955 QCURVE SMOOTH",
"455 955 OFFCURVE",
"439 865 OFFCURVE",
"399 642 QCURVE",
"749 642 LINE",
"786 852 OFFCURVE",
"850 1211 OFFCURVE",
"486 1211 QCURVE SMOOTH",
"126 1211 OFFCURVE",
"63 856 OFFCURVE",
"17 596 QCURVE SMOOTH",
"-29 336 OFFCURVE",
"-90 -10 OFFCURVE",
"270 -10 QCURVE SMOOTH"
);
}
);
width = 750;
},
{
anchors = (
{
name = bottom;
position = "{4, 0}";
},
{
name = top;
position = "{212, 1200}";
}
);
layerId = "4F53612F-C4F8-4368-83AD-8913BEEF8F1D";
paths = (
{
closed = 1;
nodes = (
"59 -6 OFFCURVE",
"117 323 OFFCURVE",
"142 465 QCURVE",
"120 465 LINE",
"96 329 OFFCURVE",
"40 16 OFFCURVE",
"2 16 QCURVE SMOOTH",
"-36 16 OFFCURVE",
"20 329 OFFCURVE",
"68 601 QCURVE SMOOTH",
"127 937 OFFCURVE",
"172 1190 OFFCURVE",
"210 1190 QCURVE SMOOTH",
"248 1190 OFFCURVE",
"203 937 OFFCURVE",
"168 737 QCURVE",
"190 737 LINE",
"226 943 OFFCURVE",
"273 1212 OFFCURVE",
"213 1212 QCURVE SMOOTH",
"153 1212 OFFCURVE",
"106 943 OFFCURVE",
"46 601 QCURVE SMOOTH",
"-3 323 OFFCURVE",
"-61 -6 OFFCURVE",
"-1 -6 QCURVE SMOOTH"
);
}
);
width = 198;
},
{
anchors = (
{
name = bottom;
position = "{894, 0}";
},
{
name = top;
position = "{1100, 1172}";
}
);
layerId = "E5A4176B-9C10-4B01-BBC9-D7999ECBFAF8";
paths = (
{
closed = 1;
nodes = (
"1227 -16 OFFCURVE",
"1732 122 OFFCURVE",
"1790 170 QCURVE",
"1392 466 LINE",
"1368 439 OFFCURVE",
"1133 344 OFFCURVE",
"979 344 QCURVE SMOOTH",
"829 344 OFFCURVE",
"631 458 OFFCURVE",
"631 554 QCURVE SMOOTH",
"631 694 OFFCURVE",
"913 820 OFFCURVE",
"1063 820 QCURVE SMOOTH",
"1217 820 OFFCURVE",
"1418 725 OFFCURVE",
"1433 698 QCURVE",
"1933 982 LINE",
"1892 1030 OFFCURVE",
"1419 1182 OFFCURVE",
"1117 1182 QCURVE SMOOTH",
"711 1182 OFFCURVE",
"57 863 OFFCURVE",
"57 512 QCURVE SMOOTH",
"57 248 OFFCURVE",
"519 -16 OFFCURVE",
"925 -16 QCURVE SMOOTH"
);
}
);
width = 1978;
}
);
leftKerningGroup = o;
note = c;
rightKerningGroup = c;
unicode = 0063;
},
